<mxfile host="app.diagrams.net" modified="2022-08-12T20:40:44.266Z" agent="5.0 (Windows NT 10.0; Win64; x64) AppleWebKit/537.36 (KHTML, like Gecko) Chrome/104.0.0.0 Safari/537.36" etag="v2FBXvNt0Za_mQ_peT06" version="20.2.3" type="github">
  <diagram id="FYNhYHmv1s_CumY7zgUR" name="Page-1">
    <mxGraphModel dx="1720" dy="537" grid="1" gridSize="10" guides="1" tooltips="1" connect="1" arrows="1" fold="1" page="1" pageScale="1" pageWidth="850" pageHeight="1100" math="0" shadow="0">
      <root>
        <mxCell id="0" />
        <mxCell id="1" parent="0" />
        <mxCell id="ulKWUaOaeuFDGbGcjOlc-95" value="" style="group" parent="1" vertex="1" connectable="0">
          <mxGeometry x="-100" y="150" width="1540" height="764" as="geometry" />
        </mxCell>
        <mxCell id="ulKWUaOaeuFDGbGcjOlc-2" value="" style="verticalLabelPosition=bottom;verticalAlign=top;html=1;shape=mxgraph.basic.rect;fillColor2=none;strokeWidth=1;size=20;indent=5;fillColor=#0066CC;" parent="ulKWUaOaeuFDGbGcjOlc-95" vertex="1">
          <mxGeometry x="240" width="10" height="200" as="geometry" />
        </mxCell>
        <mxCell id="ulKWUaOaeuFDGbGcjOlc-3" value="" style="verticalLabelPosition=bottom;verticalAlign=top;html=1;shape=mxgraph.basic.rect;fillColor2=none;strokeWidth=1;size=20;indent=5;fillColor=#0066CC;" parent="ulKWUaOaeuFDGbGcjOlc-95" vertex="1">
          <mxGeometry x="270" width="10" height="200" as="geometry" />
        </mxCell>
        <mxCell id="ulKWUaOaeuFDGbGcjOlc-4" value="" style="verticalLabelPosition=bottom;verticalAlign=top;html=1;shape=mxgraph.basic.rect;fillColor2=none;strokeWidth=1;size=20;indent=5;fillColor=#0066CC;" parent="ulKWUaOaeuFDGbGcjOlc-95" vertex="1">
          <mxGeometry x="270" y="240" width="10" height="100" as="geometry" />
        </mxCell>
        <mxCell id="ulKWUaOaeuFDGbGcjOlc-5" value="" style="verticalLabelPosition=bottom;verticalAlign=top;html=1;shape=mxgraph.basic.rect;fillColor2=none;strokeWidth=1;size=20;indent=5;fillColor=#0066CC;" parent="ulKWUaOaeuFDGbGcjOlc-95" vertex="1">
          <mxGeometry x="300" y="240" width="20" height="100" as="geometry" />
        </mxCell>
        <mxCell id="ulKWUaOaeuFDGbGcjOlc-6" value="" style="verticalLabelPosition=bottom;verticalAlign=top;html=1;shape=mxgraph.basic.rect;fillColor2=none;strokeWidth=1;size=20;indent=5;fillColor=#0066CC;" parent="ulKWUaOaeuFDGbGcjOlc-95" vertex="1">
          <mxGeometry x="340" y="240" width="20" height="100" as="geometry" />
        </mxCell>
        <mxCell id="ulKWUaOaeuFDGbGcjOlc-7" value="" style="verticalLabelPosition=bottom;verticalAlign=top;html=1;shape=mxgraph.basic.rect;fillColor2=none;strokeWidth=1;size=20;indent=5;fillColor=#0066CC;" parent="ulKWUaOaeuFDGbGcjOlc-95" vertex="1">
          <mxGeometry x="340" y="380" width="20" height="100" as="geometry" />
        </mxCell>
        <mxCell id="ulKWUaOaeuFDGbGcjOlc-8" value="" style="verticalLabelPosition=bottom;verticalAlign=top;html=1;shape=mxgraph.basic.rect;fillColor2=none;strokeWidth=1;size=20;indent=5;fillColor=#0066CC;" parent="ulKWUaOaeuFDGbGcjOlc-95" vertex="1">
          <mxGeometry x="380" y="380" width="40" height="100" as="geometry" />
        </mxCell>
        <mxCell id="ulKWUaOaeuFDGbGcjOlc-9" value="" style="verticalLabelPosition=bottom;verticalAlign=top;html=1;shape=mxgraph.basic.rect;fillColor2=none;strokeWidth=1;size=20;indent=5;fillColor=#0066CC;" parent="ulKWUaOaeuFDGbGcjOlc-95" vertex="1">
          <mxGeometry x="440" y="380" width="40" height="100" as="geometry" />
        </mxCell>
        <mxCell id="ulKWUaOaeuFDGbGcjOlc-10" value="" style="verticalLabelPosition=bottom;verticalAlign=top;html=1;shape=mxgraph.basic.rect;fillColor2=none;strokeWidth=1;size=20;indent=5;fillColor=#0066CC;" parent="ulKWUaOaeuFDGbGcjOlc-95" vertex="1">
          <mxGeometry x="440" y="520" width="40" height="50" as="geometry" />
        </mxCell>
        <mxCell id="ulKWUaOaeuFDGbGcjOlc-11" value="" style="verticalLabelPosition=bottom;verticalAlign=top;html=1;shape=mxgraph.basic.rect;fillColor2=none;strokeWidth=1;size=20;indent=5;fillColor=#0066CC;" parent="ulKWUaOaeuFDGbGcjOlc-95" vertex="1">
          <mxGeometry x="500" y="520" width="60" height="50" as="geometry" />
        </mxCell>
        <mxCell id="ulKWUaOaeuFDGbGcjOlc-12" value="" style="verticalLabelPosition=bottom;verticalAlign=top;html=1;shape=mxgraph.basic.rect;fillColor2=none;strokeWidth=1;size=20;indent=5;fillColor=#0066CC;" parent="ulKWUaOaeuFDGbGcjOlc-95" vertex="1">
          <mxGeometry x="580" y="520" width="60" height="50" as="geometry" />
        </mxCell>
        <mxCell id="ulKWUaOaeuFDGbGcjOlc-13" value="" style="verticalLabelPosition=bottom;verticalAlign=top;html=1;shape=mxgraph.basic.rect;fillColor2=none;strokeWidth=1;size=20;indent=5;fillColor=#0066CC;" parent="ulKWUaOaeuFDGbGcjOlc-95" vertex="1">
          <mxGeometry x="580" y="610" width="60" height="30" as="geometry" />
        </mxCell>
        <mxCell id="ulKWUaOaeuFDGbGcjOlc-14" value="" style="verticalLabelPosition=bottom;verticalAlign=top;html=1;shape=mxgraph.basic.rect;fillColor2=none;strokeWidth=1;size=20;indent=5;fillColor=#0066CC;" parent="ulKWUaOaeuFDGbGcjOlc-95" vertex="1">
          <mxGeometry x="660" y="610" width="100" height="30" as="geometry" />
        </mxCell>
        <mxCell id="ulKWUaOaeuFDGbGcjOlc-15" value="" style="verticalLabelPosition=bottom;verticalAlign=top;html=1;shape=mxgraph.basic.rect;fillColor2=none;strokeWidth=1;size=20;indent=5;fillColor=#0066CC;" parent="ulKWUaOaeuFDGbGcjOlc-95" vertex="1">
          <mxGeometry x="780" y="610" width="100" height="30" as="geometry" />
        </mxCell>
        <mxCell id="ulKWUaOaeuFDGbGcjOlc-16" value="" style="verticalLabelPosition=bottom;verticalAlign=top;html=1;shape=mxgraph.basic.rect;fillColor2=none;strokeWidth=1;size=20;indent=5;fillColor=#00CC66;" parent="ulKWUaOaeuFDGbGcjOlc-95" vertex="1">
          <mxGeometry x="790" y="520" width="60" height="50" as="geometry" />
        </mxCell>
        <mxCell id="ulKWUaOaeuFDGbGcjOlc-17" value="" style="verticalLabelPosition=bottom;verticalAlign=top;html=1;shape=mxgraph.basic.rect;fillColor2=none;strokeWidth=1;size=20;indent=5;fillColor=#00CC66;" parent="ulKWUaOaeuFDGbGcjOlc-95" vertex="1">
          <mxGeometry x="870" y="520" width="60" height="50" as="geometry" />
        </mxCell>
        <mxCell id="ulKWUaOaeuFDGbGcjOlc-18" value="" style="verticalLabelPosition=bottom;verticalAlign=top;html=1;shape=mxgraph.basic.rect;fillColor2=none;strokeWidth=1;size=20;indent=5;fillColor=#00CCCC;" parent="ulKWUaOaeuFDGbGcjOlc-95" vertex="1">
          <mxGeometry x="730" y="520" width="60" height="50" as="geometry" />
        </mxCell>
        <mxCell id="ulKWUaOaeuFDGbGcjOlc-19" value="" style="verticalLabelPosition=bottom;verticalAlign=top;html=1;shape=mxgraph.basic.rect;fillColor2=none;strokeWidth=1;size=20;indent=5;fillColor=#00CC66;" parent="ulKWUaOaeuFDGbGcjOlc-95" vertex="1">
          <mxGeometry x="950" y="520" width="60" height="50" as="geometry" />
        </mxCell>
        <mxCell id="ulKWUaOaeuFDGbGcjOlc-20" value="" style="verticalLabelPosition=bottom;verticalAlign=top;html=1;shape=mxgraph.basic.rect;fillColor2=none;strokeWidth=1;size=20;indent=5;fillColor=#00CC66;" parent="ulKWUaOaeuFDGbGcjOlc-95" vertex="1">
          <mxGeometry x="970" y="380" width="40" height="100" as="geometry" />
        </mxCell>
        <mxCell id="ulKWUaOaeuFDGbGcjOlc-21" value="" style="verticalLabelPosition=bottom;verticalAlign=top;html=1;shape=mxgraph.basic.rect;fillColor2=none;strokeWidth=1;size=20;indent=5;fillColor=#00CC66;" parent="ulKWUaOaeuFDGbGcjOlc-95" vertex="1">
          <mxGeometry x="1030" y="380" width="40" height="100" as="geometry" />
        </mxCell>
        <mxCell id="ulKWUaOaeuFDGbGcjOlc-22" value="" style="verticalLabelPosition=bottom;verticalAlign=top;html=1;shape=mxgraph.basic.rect;fillColor2=none;strokeWidth=1;size=20;indent=5;fillColor=#00CC66;" parent="ulKWUaOaeuFDGbGcjOlc-95" vertex="1">
          <mxGeometry x="1090" y="380" width="40" height="100" as="geometry" />
        </mxCell>
        <mxCell id="ulKWUaOaeuFDGbGcjOlc-23" value="" style="verticalLabelPosition=bottom;verticalAlign=top;html=1;shape=mxgraph.basic.rect;fillColor2=none;strokeWidth=1;size=20;indent=5;fillColor=#00CCCC;" parent="ulKWUaOaeuFDGbGcjOlc-95" vertex="1">
          <mxGeometry x="930" y="380" width="40" height="100" as="geometry" />
        </mxCell>
        <mxCell id="ulKWUaOaeuFDGbGcjOlc-24" value="" style="verticalLabelPosition=bottom;verticalAlign=top;html=1;shape=mxgraph.basic.rect;fillColor2=none;strokeWidth=1;size=20;indent=5;fillColor=#00CC66;" parent="ulKWUaOaeuFDGbGcjOlc-95" vertex="1">
          <mxGeometry x="1110" y="240" width="20" height="100" as="geometry" />
        </mxCell>
        <mxCell id="ulKWUaOaeuFDGbGcjOlc-25" value="" style="verticalLabelPosition=bottom;verticalAlign=top;html=1;shape=mxgraph.basic.rect;fillColor2=none;strokeWidth=1;size=20;indent=5;fillColor=#00CC66;" parent="ulKWUaOaeuFDGbGcjOlc-95" vertex="1">
          <mxGeometry x="1150" y="240" width="20" height="100" as="geometry" />
        </mxCell>
        <mxCell id="ulKWUaOaeuFDGbGcjOlc-26" value="" style="verticalLabelPosition=bottom;verticalAlign=top;html=1;shape=mxgraph.basic.rect;fillColor2=none;strokeWidth=1;size=20;indent=5;fillColor=#00CCCC;" parent="ulKWUaOaeuFDGbGcjOlc-95" vertex="1">
          <mxGeometry x="1090" y="240" width="20" height="100" as="geometry" />
        </mxCell>
        <mxCell id="ulKWUaOaeuFDGbGcjOlc-27" value="" style="verticalLabelPosition=bottom;verticalAlign=top;html=1;shape=mxgraph.basic.rect;fillColor2=none;strokeWidth=1;size=20;indent=5;fillColor=#00CC66;" parent="ulKWUaOaeuFDGbGcjOlc-95" vertex="1">
          <mxGeometry x="1190" y="240" width="20" height="100" as="geometry" />
        </mxCell>
        <mxCell id="ulKWUaOaeuFDGbGcjOlc-28" value="" style="verticalLabelPosition=bottom;verticalAlign=top;html=1;shape=mxgraph.basic.rect;fillColor2=none;strokeWidth=1;size=20;indent=5;fillColor=#00CC66;" parent="ulKWUaOaeuFDGbGcjOlc-95" vertex="1">
          <mxGeometry x="1200" width="10" height="200" as="geometry" />
        </mxCell>
        <mxCell id="ulKWUaOaeuFDGbGcjOlc-29" value="" style="verticalLabelPosition=bottom;verticalAlign=top;html=1;shape=mxgraph.basic.rect;fillColor2=none;strokeWidth=1;size=20;indent=5;fillColor=#00CC66;" parent="ulKWUaOaeuFDGbGcjOlc-95" vertex="1">
          <mxGeometry x="1230" width="10" height="200" as="geometry" />
        </mxCell>
        <mxCell id="ulKWUaOaeuFDGbGcjOlc-30" value="" style="verticalLabelPosition=bottom;verticalAlign=top;html=1;shape=mxgraph.basic.rect;fillColor2=none;strokeWidth=1;size=20;indent=5;fillColor=#00CCCC;" parent="ulKWUaOaeuFDGbGcjOlc-95" vertex="1">
          <mxGeometry x="1190" width="10" height="200" as="geometry" />
        </mxCell>
        <mxCell id="ulKWUaOaeuFDGbGcjOlc-31" value="" style="verticalLabelPosition=bottom;verticalAlign=top;html=1;shape=mxgraph.basic.rect;fillColor2=none;strokeWidth=1;size=20;indent=5;fillColor=#00CC66;" parent="ulKWUaOaeuFDGbGcjOlc-95" vertex="1">
          <mxGeometry x="1260" width="10" height="200" as="geometry" />
        </mxCell>
        <mxCell id="ulKWUaOaeuFDGbGcjOlc-33" value="" style="endArrow=none;html=1;rounded=0;strokeColor=#00CC66;strokeWidth=2;" parent="ulKWUaOaeuFDGbGcjOlc-95" edge="1">
          <mxGeometry width="50" height="50" relative="1" as="geometry">
            <mxPoint x="1290" y="200" as="sourcePoint" />
            <mxPoint x="1290" as="targetPoint" />
          </mxGeometry>
        </mxCell>
        <mxCell id="ulKWUaOaeuFDGbGcjOlc-34" value="" style="endArrow=none;html=1;rounded=0;strokeColor=#0066CC;strokeWidth=2;" parent="ulKWUaOaeuFDGbGcjOlc-95" edge="1">
          <mxGeometry width="50" height="50" relative="1" as="geometry">
            <mxPoint x="219.99999999999977" y="200" as="sourcePoint" />
            <mxPoint x="219.99999999999977" as="targetPoint" />
          </mxGeometry>
        </mxCell>
        <mxCell id="ulKWUaOaeuFDGbGcjOlc-35" value="" style="rounded=0;whiteSpace=wrap;html=1;fillColor=none;dashed=1;" parent="ulKWUaOaeuFDGbGcjOlc-95" vertex="1">
          <mxGeometry x="265" y="30" width="20" height="140" as="geometry" />
        </mxCell>
        <mxCell id="ulKWUaOaeuFDGbGcjOlc-36" value="" style="rounded=0;whiteSpace=wrap;html=1;fillColor=none;dashed=1;" parent="ulKWUaOaeuFDGbGcjOlc-95" vertex="1">
          <mxGeometry x="335" y="260" width="30" height="60" as="geometry" />
        </mxCell>
        <mxCell id="ulKWUaOaeuFDGbGcjOlc-37" value="" style="rounded=0;whiteSpace=wrap;html=1;fillColor=none;dashed=1;" parent="ulKWUaOaeuFDGbGcjOlc-95" vertex="1">
          <mxGeometry x="435" y="400" width="50" height="60" as="geometry" />
        </mxCell>
        <mxCell id="ulKWUaOaeuFDGbGcjOlc-38" value="" style="rounded=0;whiteSpace=wrap;html=1;fillColor=none;dashed=1;" parent="ulKWUaOaeuFDGbGcjOlc-95" vertex="1">
          <mxGeometry x="575" y="530" width="70" height="30" as="geometry" />
        </mxCell>
        <mxCell id="ulKWUaOaeuFDGbGcjOlc-40" value="" style="endArrow=classic;html=1;rounded=0;strokeWidth=4;strokeColor=#999999;" parent="ulKWUaOaeuFDGbGcjOlc-95" edge="1">
          <mxGeometry width="50" height="50" relative="1" as="geometry">
            <mxPoint x="650" y="544.8800000000001" as="sourcePoint" />
            <mxPoint x="715" y="544.44" as="targetPoint" />
          </mxGeometry>
        </mxCell>
        <mxCell id="ulKWUaOaeuFDGbGcjOlc-41" value="" style="endArrow=classic;html=1;rounded=0;strokeWidth=4;strokeColor=#999999;" parent="ulKWUaOaeuFDGbGcjOlc-95" edge="1">
          <mxGeometry width="50" height="50" relative="1" as="geometry">
            <mxPoint x="510" y="429.7700000000001" as="sourcePoint" />
            <mxPoint x="920" y="428.89" as="targetPoint" />
          </mxGeometry>
        </mxCell>
        <mxCell id="ulKWUaOaeuFDGbGcjOlc-42" value="" style="endArrow=classic;html=1;rounded=0;strokeWidth=4;strokeColor=#999999;" parent="ulKWUaOaeuFDGbGcjOlc-95" edge="1">
          <mxGeometry width="50" height="50" relative="1" as="geometry">
            <mxPoint x="383" y="289.4500000000001" as="sourcePoint" />
            <mxPoint x="1070" y="289" as="targetPoint" />
          </mxGeometry>
        </mxCell>
        <mxCell id="ulKWUaOaeuFDGbGcjOlc-43" value="" style="endArrow=classic;html=1;rounded=0;strokeWidth=4;strokeColor=#999999;" parent="ulKWUaOaeuFDGbGcjOlc-95" edge="1">
          <mxGeometry width="50" height="50" relative="1" as="geometry">
            <mxPoint x="300" y="109.02000000000004" as="sourcePoint" />
            <mxPoint x="1160" y="109" as="targetPoint" />
          </mxGeometry>
        </mxCell>
        <mxCell id="ulKWUaOaeuFDGbGcjOlc-44" value="" style="endArrow=classic;html=1;rounded=0;strokeColor=#0000FF;strokeWidth=4;" parent="ulKWUaOaeuFDGbGcjOlc-95" edge="1">
          <mxGeometry width="50" height="50" relative="1" as="geometry">
            <mxPoint x="560" y="544.58" as="sourcePoint" />
            <mxPoint x="580" y="545" as="targetPoint" />
          </mxGeometry>
        </mxCell>
        <mxCell id="ulKWUaOaeuFDGbGcjOlc-45" value="" style="endArrow=classic;html=1;rounded=0;strokeColor=#0000FF;strokeWidth=4;" parent="ulKWUaOaeuFDGbGcjOlc-95" edge="1">
          <mxGeometry width="50" height="50" relative="1" as="geometry">
            <mxPoint x="480" y="544.58" as="sourcePoint" />
            <mxPoint x="500" y="544.9999999999999" as="targetPoint" />
          </mxGeometry>
        </mxCell>
        <mxCell id="ulKWUaOaeuFDGbGcjOlc-47" value="" style="endArrow=classic;html=1;rounded=0;strokeColor=#0000FF;strokeWidth=4;" parent="ulKWUaOaeuFDGbGcjOlc-95" edge="1">
          <mxGeometry width="50" height="50" relative="1" as="geometry">
            <mxPoint x="360" y="429.58000000000004" as="sourcePoint" />
            <mxPoint x="380" y="429.9999999999999" as="targetPoint" />
          </mxGeometry>
        </mxCell>
        <mxCell id="ulKWUaOaeuFDGbGcjOlc-48" value="" style="endArrow=classic;html=1;rounded=0;strokeColor=#0000FF;strokeWidth=4;" parent="ulKWUaOaeuFDGbGcjOlc-95" edge="1">
          <mxGeometry width="50" height="50" relative="1" as="geometry">
            <mxPoint x="419.99999999999994" y="429.58000000000004" as="sourcePoint" />
            <mxPoint x="439.99999999999994" y="429.9999999999999" as="targetPoint" />
          </mxGeometry>
        </mxCell>
        <mxCell id="ulKWUaOaeuFDGbGcjOlc-49" value="" style="endArrow=classic;html=1;rounded=0;strokeColor=#0000FF;strokeWidth=4;" parent="ulKWUaOaeuFDGbGcjOlc-95" edge="1">
          <mxGeometry width="50" height="50" relative="1" as="geometry">
            <mxPoint x="280" y="289.58000000000004" as="sourcePoint" />
            <mxPoint x="300" y="289.9999999999999" as="targetPoint" />
          </mxGeometry>
        </mxCell>
        <mxCell id="ulKWUaOaeuFDGbGcjOlc-52" value="" style="endArrow=classic;html=1;rounded=0;strokeColor=#0000FF;strokeWidth=4;" parent="ulKWUaOaeuFDGbGcjOlc-95" edge="1">
          <mxGeometry width="50" height="50" relative="1" as="geometry">
            <mxPoint x="220" y="109.58000000000004" as="sourcePoint" />
            <mxPoint x="240" y="109.99999999999989" as="targetPoint" />
          </mxGeometry>
        </mxCell>
        <mxCell id="ulKWUaOaeuFDGbGcjOlc-53" value="" style="endArrow=classic;html=1;rounded=0;strokeColor=#0000FF;strokeWidth=4;" parent="ulKWUaOaeuFDGbGcjOlc-95" edge="1">
          <mxGeometry width="50" height="50" relative="1" as="geometry">
            <mxPoint x="250" y="109.58000000000004" as="sourcePoint" />
            <mxPoint x="270" y="109.99999999999989" as="targetPoint" />
          </mxGeometry>
        </mxCell>
        <mxCell id="ulKWUaOaeuFDGbGcjOlc-54" value="" style="endArrow=classic;html=1;rounded=0;strokeColor=#0000FF;strokeWidth=4;" parent="ulKWUaOaeuFDGbGcjOlc-95" edge="1">
          <mxGeometry width="50" height="50" relative="1" as="geometry">
            <mxPoint x="320" y="289.58000000000004" as="sourcePoint" />
            <mxPoint x="340" y="289.9999999999999" as="targetPoint" />
          </mxGeometry>
        </mxCell>
        <mxCell id="ulKWUaOaeuFDGbGcjOlc-55" value="" style="endArrow=classic;html=1;rounded=0;strokeColor=#0000FF;strokeWidth=4;" parent="ulKWUaOaeuFDGbGcjOlc-95" edge="1">
          <mxGeometry width="50" height="50" relative="1" as="geometry">
            <mxPoint x="640" y="624.2900000000001" as="sourcePoint" />
            <mxPoint x="660" y="624.7099999999999" as="targetPoint" />
          </mxGeometry>
        </mxCell>
        <mxCell id="ulKWUaOaeuFDGbGcjOlc-56" value="" style="endArrow=classic;html=1;rounded=0;strokeColor=#0000FF;strokeWidth=4;" parent="ulKWUaOaeuFDGbGcjOlc-95" edge="1">
          <mxGeometry width="50" height="50" relative="1" as="geometry">
            <mxPoint x="760" y="624.5799999999999" as="sourcePoint" />
            <mxPoint x="780" y="625" as="targetPoint" />
          </mxGeometry>
        </mxCell>
        <mxCell id="ulKWUaOaeuFDGbGcjOlc-57" value="" style="endArrow=classic;html=1;rounded=0;strokeColor=#0000FF;strokeWidth=4;" parent="ulKWUaOaeuFDGbGcjOlc-95" edge="1">
          <mxGeometry width="50" height="50" relative="1" as="geometry">
            <mxPoint x="850.0000000000001" y="548.9999999999999" as="sourcePoint" />
            <mxPoint x="870.0000000000001" y="549.42" as="targetPoint" />
          </mxGeometry>
        </mxCell>
        <mxCell id="ulKWUaOaeuFDGbGcjOlc-58" value="" style="endArrow=classic;html=1;rounded=0;strokeColor=#0000FF;strokeWidth=4;" parent="ulKWUaOaeuFDGbGcjOlc-95" edge="1">
          <mxGeometry width="50" height="50" relative="1" as="geometry">
            <mxPoint x="930.0000000000001" y="550" as="sourcePoint" />
            <mxPoint x="950.0000000000001" y="550.4200000000001" as="targetPoint" />
          </mxGeometry>
        </mxCell>
        <mxCell id="ulKWUaOaeuFDGbGcjOlc-60" value="" style="endArrow=classic;html=1;rounded=0;strokeColor=#0000FF;strokeWidth=4;" parent="ulKWUaOaeuFDGbGcjOlc-95" edge="1">
          <mxGeometry width="50" height="50" relative="1" as="geometry">
            <mxPoint x="1010" y="429.5799999999999" as="sourcePoint" />
            <mxPoint x="1030" y="430" as="targetPoint" />
          </mxGeometry>
        </mxCell>
        <mxCell id="ulKWUaOaeuFDGbGcjOlc-61" value="" style="endArrow=classic;html=1;rounded=0;strokeColor=#0000FF;strokeWidth=4;" parent="ulKWUaOaeuFDGbGcjOlc-95" edge="1">
          <mxGeometry width="50" height="50" relative="1" as="geometry">
            <mxPoint x="1070" y="429.58000000000004" as="sourcePoint" />
            <mxPoint x="1090" y="429.9999999999999" as="targetPoint" />
          </mxGeometry>
        </mxCell>
        <mxCell id="ulKWUaOaeuFDGbGcjOlc-62" value="" style="endArrow=classic;html=1;rounded=0;strokeColor=#0000FF;strokeWidth=4;" parent="ulKWUaOaeuFDGbGcjOlc-95" edge="1">
          <mxGeometry width="50" height="50" relative="1" as="geometry">
            <mxPoint x="1130" y="289.47" as="sourcePoint" />
            <mxPoint x="1150" y="289.8899999999999" as="targetPoint" />
          </mxGeometry>
        </mxCell>
        <mxCell id="ulKWUaOaeuFDGbGcjOlc-63" value="" style="endArrow=classic;html=1;rounded=0;strokeColor=#0000FF;strokeWidth=4;" parent="ulKWUaOaeuFDGbGcjOlc-95" edge="1">
          <mxGeometry width="50" height="50" relative="1" as="geometry">
            <mxPoint x="1170" y="289.47" as="sourcePoint" />
            <mxPoint x="1190" y="289.8899999999999" as="targetPoint" />
          </mxGeometry>
        </mxCell>
        <mxCell id="ulKWUaOaeuFDGbGcjOlc-64" value="" style="endArrow=classic;html=1;rounded=0;strokeColor=#0000FF;strokeWidth=4;" parent="ulKWUaOaeuFDGbGcjOlc-95" edge="1">
          <mxGeometry width="50" height="50" relative="1" as="geometry">
            <mxPoint x="1210" y="110" as="sourcePoint" />
            <mxPoint x="1230" y="110.41999999999985" as="targetPoint" />
          </mxGeometry>
        </mxCell>
        <mxCell id="ulKWUaOaeuFDGbGcjOlc-65" value="" style="endArrow=classic;html=1;rounded=0;strokeColor=#0000FF;strokeWidth=4;" parent="ulKWUaOaeuFDGbGcjOlc-95" edge="1">
          <mxGeometry width="50" height="50" relative="1" as="geometry">
            <mxPoint x="1240" y="110" as="sourcePoint" />
            <mxPoint x="1260" y="110.41999999999985" as="targetPoint" />
          </mxGeometry>
        </mxCell>
        <mxCell id="ulKWUaOaeuFDGbGcjOlc-66" value="" style="endArrow=classic;html=1;rounded=0;strokeColor=#009999;strokeWidth=4;" parent="ulKWUaOaeuFDGbGcjOlc-95" edge="1">
          <mxGeometry width="50" height="50" relative="1" as="geometry">
            <mxPoint x="1270" y="110" as="sourcePoint" />
            <mxPoint x="1290" y="110.41999999999985" as="targetPoint" />
          </mxGeometry>
        </mxCell>
        <mxCell id="ulKWUaOaeuFDGbGcjOlc-68" value="" style="endArrow=classic;html=1;rounded=0;strokeColor=#FF0000;strokeWidth=4;" parent="ulKWUaOaeuFDGbGcjOlc-95" edge="1">
          <mxGeometry width="50" height="50" relative="1" as="geometry">
            <mxPoint x="274.72" y="200" as="sourcePoint" />
            <mxPoint x="275" y="230" as="targetPoint" />
          </mxGeometry>
        </mxCell>
        <mxCell id="ulKWUaOaeuFDGbGcjOlc-69" value="" style="endArrow=classic;html=1;rounded=0;strokeColor=#FF0000;strokeWidth=4;" parent="ulKWUaOaeuFDGbGcjOlc-95" edge="1">
          <mxGeometry width="50" height="50" relative="1" as="geometry">
            <mxPoint x="349.7200000000001" y="340" as="sourcePoint" />
            <mxPoint x="350" y="370" as="targetPoint" />
          </mxGeometry>
        </mxCell>
        <mxCell id="ulKWUaOaeuFDGbGcjOlc-70" value="" style="endArrow=classic;html=1;rounded=0;strokeColor=#FF0000;strokeWidth=4;" parent="ulKWUaOaeuFDGbGcjOlc-95" edge="1">
          <mxGeometry width="50" height="50" relative="1" as="geometry">
            <mxPoint x="459.7200000000001" y="480" as="sourcePoint" />
            <mxPoint x="460" y="510" as="targetPoint" />
          </mxGeometry>
        </mxCell>
        <mxCell id="ulKWUaOaeuFDGbGcjOlc-71" value="" style="endArrow=classic;html=1;rounded=0;strokeColor=#00FF00;strokeWidth=4;" parent="ulKWUaOaeuFDGbGcjOlc-95" edge="1">
          <mxGeometry width="50" height="50" relative="1" as="geometry">
            <mxPoint x="989.72" y="520" as="sourcePoint" />
            <mxPoint x="989.72" y="490" as="targetPoint" />
          </mxGeometry>
        </mxCell>
        <mxCell id="ulKWUaOaeuFDGbGcjOlc-72" value="" style="endArrow=classic;html=1;rounded=0;strokeColor=#00FF00;strokeWidth=4;" parent="ulKWUaOaeuFDGbGcjOlc-95" edge="1">
          <mxGeometry width="50" height="50" relative="1" as="geometry">
            <mxPoint x="1119.41" y="380" as="sourcePoint" />
            <mxPoint x="1119.41" y="350" as="targetPoint" />
          </mxGeometry>
        </mxCell>
        <mxCell id="ulKWUaOaeuFDGbGcjOlc-73" value="" style="endArrow=classic;html=1;rounded=0;strokeColor=#00FF00;strokeWidth=4;" parent="ulKWUaOaeuFDGbGcjOlc-95" edge="1">
          <mxGeometry width="50" height="50" relative="1" as="geometry">
            <mxPoint x="1204.41" y="240" as="sourcePoint" />
            <mxPoint x="1204.41" y="210" as="targetPoint" />
          </mxGeometry>
        </mxCell>
        <mxCell id="ulKWUaOaeuFDGbGcjOlc-77" value="" style="endArrow=none;dashed=1;html=1;dashPattern=1 3;strokeWidth=2;rounded=0;" parent="ulKWUaOaeuFDGbGcjOlc-95" edge="1">
          <mxGeometry width="50" height="50" relative="1" as="geometry">
            <mxPoint x="172.26" y="170" as="sourcePoint" />
            <mxPoint x="220" y="200" as="targetPoint" />
          </mxGeometry>
        </mxCell>
        <mxCell id="ulKWUaOaeuFDGbGcjOlc-78" value="" style="endArrow=none;dashed=1;html=1;dashPattern=1 3;strokeWidth=2;rounded=0;" parent="ulKWUaOaeuFDGbGcjOlc-95" edge="1">
          <mxGeometry width="50" height="50" relative="1" as="geometry">
            <mxPoint x="172.26000000000022" y="23.5" as="sourcePoint" />
            <mxPoint x="220" as="targetPoint" />
          </mxGeometry>
        </mxCell>
        <mxCell id="ulKWUaOaeuFDGbGcjOlc-79" value="" style="endArrow=none;dashed=1;html=1;dashPattern=1 3;strokeWidth=2;rounded=0;entryX=0;entryY=1;entryDx=0;entryDy=0;" parent="ulKWUaOaeuFDGbGcjOlc-95" edge="1">
          <mxGeometry width="50" height="50" relative="1" as="geometry">
            <mxPoint x="1290.0000000000002" y="200" as="sourcePoint" />
            <mxPoint x="1330" y="170" as="targetPoint" />
          </mxGeometry>
        </mxCell>
        <mxCell id="ulKWUaOaeuFDGbGcjOlc-80" value="" style="endArrow=none;dashed=1;html=1;dashPattern=1 3;strokeWidth=2;rounded=0;" parent="ulKWUaOaeuFDGbGcjOlc-95" edge="1">
          <mxGeometry width="50" height="50" relative="1" as="geometry">
            <mxPoint x="1290" as="sourcePoint" />
            <mxPoint x="1337.7399999999998" y="30" as="targetPoint" />
          </mxGeometry>
        </mxCell>
        <mxCell id="ulKWUaOaeuFDGbGcjOlc-81" value="" style="endArrow=classic;html=1;rounded=0;strokeColor=#FF0000;strokeWidth=4;" parent="ulKWUaOaeuFDGbGcjOlc-95" edge="1">
          <mxGeometry width="50" height="50" relative="1" as="geometry">
            <mxPoint x="609.1700000000003" y="570" as="sourcePoint" />
            <mxPoint x="609.45" y="600" as="targetPoint" />
          </mxGeometry>
        </mxCell>
        <mxCell id="ulKWUaOaeuFDGbGcjOlc-82" value="" style="endArrow=classic;html=1;rounded=0;strokeColor=#00FF00;strokeWidth=4;" parent="ulKWUaOaeuFDGbGcjOlc-95" edge="1">
          <mxGeometry width="50" height="50" relative="1" as="geometry">
            <mxPoint x="819.1700000000003" y="610" as="sourcePoint" />
            <mxPoint x="819.1700000000003" y="580" as="targetPoint" />
          </mxGeometry>
        </mxCell>
        <mxCell id="ulKWUaOaeuFDGbGcjOlc-89" value="3x3 conv, RELU" style="text;html=1;resizable=0;autosize=1;align=left;verticalAlign=middle;points=[];fillColor=none;strokeColor=none;rounded=0;dashed=1;fontSize=18;" parent="ulKWUaOaeuFDGbGcjOlc-95" vertex="1">
          <mxGeometry x="1385" y="350" width="140" height="30" as="geometry" />
        </mxCell>
        <mxCell id="cAthD1TXJcCf23zWEAnw-1" value="" style="rounded=0;whiteSpace=wrap;html=1;opacity=70;strokeWidth=3;strokeColor=#0000CC;fillColor=none;dashed=1;" parent="ulKWUaOaeuFDGbGcjOlc-95" vertex="1">
          <mxGeometry x="210" y="-10" width="440" height="610" as="geometry" />
        </mxCell>
        <mxCell id="cAthD1TXJcCf23zWEAnw-2" value="Encoder path" style="text;html=1;resizable=0;autosize=1;align=left;verticalAlign=middle;points=[];fillColor=none;strokeColor=none;rounded=0;dashed=1;fontSize=19;fontStyle=1" parent="ulKWUaOaeuFDGbGcjOlc-95" vertex="1">
          <mxGeometry x="220" y="575" width="140" height="30" as="geometry" />
        </mxCell>
        <mxCell id="cAthD1TXJcCf23zWEAnw-3" value="" style="rounded=0;whiteSpace=wrap;html=1;opacity=70;strokeWidth=3;strokeColor=#00CC00;fillColor=none;dashed=1;" parent="ulKWUaOaeuFDGbGcjOlc-95" vertex="1">
          <mxGeometry x="720" y="-10" width="580" height="610" as="geometry" />
        </mxCell>
        <mxCell id="cAthD1TXJcCf23zWEAnw-4" value="Decoder path" style="text;html=1;resizable=0;autosize=1;align=left;verticalAlign=middle;points=[];fillColor=none;strokeColor=none;rounded=0;dashed=1;fontSize=19;fontStyle=1" parent="ulKWUaOaeuFDGbGcjOlc-95" vertex="1">
          <mxGeometry x="1160" y="570" width="140" height="30" as="geometry" />
        </mxCell>
        <mxCell id="ulKWUaOaeuFDGbGcjOlc-83" value="" style="endArrow=classic;html=1;rounded=0;strokeWidth=4;strokeColor=#999999;" parent="ulKWUaOaeuFDGbGcjOlc-95" edge="1">
          <mxGeometry width="50" height="50" relative="1" as="geometry">
            <mxPoint x="1344.77" y="319.44" as="sourcePoint" />
            <mxPoint x="1379.9991666666667" y="319.44" as="targetPoint" />
            <Array as="points">
              <mxPoint x="1364.77" y="319.94" />
            </Array>
          </mxGeometry>
        </mxCell>
        <mxCell id="ulKWUaOaeuFDGbGcjOlc-84" value="" style="endArrow=classic;html=1;rounded=0;strokeColor=#0000FF;strokeWidth=4;" parent="ulKWUaOaeuFDGbGcjOlc-95" edge="1">
          <mxGeometry width="50" height="50" relative="1" as="geometry">
            <mxPoint x="1348.33" y="364.6" as="sourcePoint" />
            <mxPoint x="1379.9966666666667" y="365.33500000000015" as="targetPoint" />
          </mxGeometry>
        </mxCell>
        <mxCell id="ulKWUaOaeuFDGbGcjOlc-85" value="" style="endArrow=classic;html=1;rounded=0;strokeColor=#FF0000;strokeWidth=4;" parent="ulKWUaOaeuFDGbGcjOlc-95" edge="1">
          <mxGeometry width="50" height="50" relative="1" as="geometry">
            <mxPoint x="1366" y="381" as="sourcePoint" />
            <mxPoint x="1366.2766666666662" y="418.5" as="targetPoint" />
          </mxGeometry>
        </mxCell>
        <mxCell id="ulKWUaOaeuFDGbGcjOlc-86" value="" style="endArrow=classic;html=1;rounded=0;strokeColor=#00FF00;strokeWidth=4;" parent="ulKWUaOaeuFDGbGcjOlc-95" edge="1">
          <mxGeometry width="50" height="50" relative="1" as="geometry">
            <mxPoint x="1366" y="460" as="sourcePoint" />
            <mxPoint x="1365.8333333333333" y="425" as="targetPoint" />
          </mxGeometry>
        </mxCell>
        <mxCell id="ulKWUaOaeuFDGbGcjOlc-87" value="" style="endArrow=classic;html=1;rounded=0;strokeColor=#009999;strokeWidth=4;" parent="ulKWUaOaeuFDGbGcjOlc-95" edge="1">
          <mxGeometry width="50" height="50" relative="1" as="geometry">
            <mxPoint x="1350" y="485" as="sourcePoint" />
            <mxPoint x="1379.9966666666667" y="485.36499999999967" as="targetPoint" />
          </mxGeometry>
        </mxCell>
        <mxCell id="ulKWUaOaeuFDGbGcjOlc-88" value="Copy and crop" style="text;html=1;resizable=0;autosize=1;align=left;verticalAlign=middle;points=[];fillColor=none;strokeColor=none;rounded=0;dashed=1;fontSize=18;" parent="ulKWUaOaeuFDGbGcjOlc-95" vertex="1">
          <mxGeometry x="1385" y="305" width="130" height="30" as="geometry" />
        </mxCell>
        <mxCell id="ulKWUaOaeuFDGbGcjOlc-90" value="2x2 max pool" style="text;html=1;resizable=0;autosize=1;align=left;verticalAlign=middle;points=[];fillColor=none;strokeColor=none;rounded=0;dashed=1;fontSize=18;" parent="ulKWUaOaeuFDGbGcjOlc-95" vertex="1">
          <mxGeometry x="1382.25" y="385" width="120" height="30" as="geometry" />
        </mxCell>
        <mxCell id="ulKWUaOaeuFDGbGcjOlc-91" value="2x2 up-conv" style="text;html=1;resizable=0;autosize=1;align=left;verticalAlign=middle;points=[];fillColor=none;strokeColor=none;rounded=0;dashed=1;fontSize=18;" parent="ulKWUaOaeuFDGbGcjOlc-95" vertex="1">
          <mxGeometry x="1385" y="430" width="110" height="30" as="geometry" />
        </mxCell>
        <mxCell id="ulKWUaOaeuFDGbGcjOlc-92" value="1x1 conv" style="text;html=1;resizable=0;autosize=1;align=left;verticalAlign=middle;points=[];fillColor=none;strokeColor=none;rounded=0;dashed=1;fontSize=18;" parent="ulKWUaOaeuFDGbGcjOlc-95" vertex="1">
          <mxGeometry x="1385" y="470" width="90" height="30" as="geometry" />
        </mxCell>
        <mxCell id="rK9EpbcclRlv6vc371gm-1" value="" style="shape=image;verticalLabelPosition=bottom;labelBackgroundColor=default;verticalAlign=top;aspect=fixed;imageAspect=0;image=data:image/png,iVBORw0KGgoAAAANSUhEUgAAAKwAAACWCAYAAABD0GMTAAAAAXNSR0IArs4c6QAAAARnQU1BAACxjwv8YQUAAAAJcEhZcwAAFxEAABcRAcom8z8AANk7SURBVHhe7P1leF3nerYLmzHJwuIq02r7ltu3Xe2CJGYxm+3YiZmZmZmZmZliBkmWZNmWQbKYyZJly8xw7/N6pqajOM6Cvj2+vffx7R/3McYcNOkc13PdD40qVatWNUWVKlXehndb5ai8/zeJ/4lrVI73Xet/8vr/X/w/Pt678f+L/xfG/1/ctDVr1rR3o1atWi5q1vQsPevfPO7XCe/5/91r/Drn/Z9cX6Fza9eu7eJ9+98X3ves/N6V19/3+t1t3vV3j3k3fp1j9Nnr1Knzdln52tpWed0blY/5deLd87zrv8m13r2Gd1vlfZVfVz5OUUVf7t2ofGIdxXuO+XXja9d6z/5fFv+dc/5/FXXr1n0beq3P6n1d+ft6978blY+vvK3yMd5497h3w3ue93298cv2/Xei8vt5X1de/nfj285/3/YqdWqxQzu19Ebtmu9ELbesW8ez9G5792Jfu8YviXfPc+dWXPvr7+EJbfPGe89VcN26tflzK8L7XpW3fSPqsL/StX9VeH4HT3jO9US9ul+/jvsuFVF5uye++Zm8n7Xy5/Wu16sDrBXb3hd1KqJ2pfPf/i6VgHp7fMVxLr7td9NS+yr2/7J473V/Wbhrf/147+f9ZeE91gH7jTd9BxhvuD/j7ev/ZwCrH9X72b3fo/J3qbztG/EbAiswvfHu9q+/9kTlbV/FNz+T97NW/rze9V8FrPZ7j/Fe4+1v8yuA9b727qv8uvLyl0Xl8/674f28vyy8x3oU9p3QD/suNN+MSvDwJ7glHuN913s33p5XKd7/Hp6o/Ie7Y/kDKsf7fjS9rvxnV/5Tvdt+JbB674r3f/dz1BWklaKyqtbhut74+n5dg9fe9/8N433fq/L2t68rfpev/b6Vfpe3x1Vse3ffu9vfjV92jfeF97hvO77y53z7efn8Xh/rXlcc+z8CrLu4Xr/nWu8L73mV4/3v4YnKoLhjK/4Qb7zvx9Pryn+st4irW3F8ndrah1q+vXZN1ivg1PugkLUArSZRneOqkoBWrVHDqlSvblVcNl45PBls1Yrwrnu2a3+1iiWvq3J+tZpWtXotq1azjtWoVZffTr4Xj+r9TBXh+Zyez1vPRcX3qfh+3vB+37evK36Xr/2+lX6Xt8dVbHt337vb341fdo33hfe4bzu+8uesHJW/g/fY9wLrOdgT3hPeF187p+K8X3bMu/GrvrD+PE989QN5wfX4SE9x7F33wlafO/NDZZV1yaDr1bA6dWvwZys4vk49lgqOZX/tevwofM8aRFVlodVrOrhqAFdd4vvEn1arbv9Qr7b97Lv1zOeHH1rrP/4t6/YPP7J+//ZHNvg//sjG/vzPbXKjH9uEhn9tkxr9jU1s+Ddufewv/sKG/eQPrd+//si6/ePvW/u/+W0L+bPvWoPfr2///oM69lf1a9nv1ahm9QG6epXqQO6BuyqfoQbfv7a74QiWDkKpNev1a9Vz37V23Wpvv/fXovLv9U588zf+5TD9pvGrrvMbMfKefb8EWN74nbv03Xjfeb/qmMrxq76c9n8jKv4Ur/J6gP26CtdBHRX1ef8PUbEPULH6OlYKyjWkZDVqAmYN1A4g6xC/Dyh/D8yBP/yudf2L37Px//kXtiLwH2xnm/9tJ3o1tcghgXZuZKCdHRNocTNa2PlZLSxmZnOLnd7c4qaEWywROaX52zg3OcKiJ4Va/KQQuzA51C5MbW7np3De+BCLHuVvp4f72aEBTW1rl09secQ/26QGf2x9fvJHFvI3v2M/+f0P7Q/r17EPq9ewmny2any2mtWlsDW4wWpZ9fr1rVad+u7Gq/y938a7v1mlePf3fd/6/0n8quv8poy8G98K7K8T3uO9H9Jt+5ai6NcNXevdL+3d5uIbf5DHNngSH473+kQ+R31ArcMfW6VeXatSt44rzqsDwHeJH9eoZWG/9QMb/r/+3JY2+zc71OljuzCsiV2dGGrXp7exKzNa24XpLYEv3E5PDLdjY4LtyKhA2z/M3w4C7v6RTWz/iCa2b5iP7R/qZ/uH+NuBwX52cKi/7Rvka/sG+tjeQX62a2iw7RkaZPuGcs6QANs3ItB2jwiyvcOD7MCIYPtyVKgdHBXB6zA7Mb6FnR4XaqdG+tiB3j+35S3/yYY2+LGF/N3v2j/+9gf2OzXqAzA3WjWUuHZVvvfXfwuPhWK98u/1TlT+Xf+78X9yncpsyEbKp757zC+7/v8rgK0clf8gT3i2eUD1LOvLD9b6wKry/gL0O8TfolLBP/yejf63v7SNIf9mMX2bWdK05nZ9Tku7Nru1xbF+ZkKInRjra8dGNrWjQ5vasWF+LAF0uL8dGhlgh4b42qFBzewE0B4HwGOo7peKwYF2eEgQ4AbaPqDcA6i7B/oCrC8QA/QgABzsa/uJAxyzl2N2DvK3nUOCbauin69t7dXEdg0OsF1cb8/wEDs8KsyOjg2zY+OI0UG8bxNb0+HfbYLPX1mbv/8d+9sf8jvV8tiXKtVQYNbfJnkVv+H74n2/6W8a/yfXqczGtwGr+Lb3qOKg0k6i8sUqh7MH717Au6/yfimcvOGvisrXeRvaXqEQ+uG1rIivneuApHivJe9ZHx/3EcdTNMoWUGRWqaWkpja+sKb9A5B2+cMf2grff7QzvRpZytRwS13Q3q7MawucYXZqVLCdHh1sJ0cH2vHRAYDhD4yBdgJFPDYswI5QbB8e4WtHpKpDUFHA20Mxfnh4oB0B5EMAeQgIDwPywYHN7BDgHewHnP0BUzHAz8V+rQ9EeQegwoMAciDKC7A7WN8KpBv7BtiGnoFAHEaE2O5BwbZzcBD7A2wb523juO1AvHt0mB0E4qOjQ20P77OkzU+s1y/+1H7xRx/a79WRDya547vX5repp1Knlny7fkv5YH6zivU6teuzVLzzn/4Pxq9zbZf3vLPtV4UHWAH3jjJWDu173wdw1VkV53qC7a5Y+hVRcVd97ZqV9n+lnp54u53zVMzXonivgZeTp/sQQGsK0qp1rBaQ/iO+r+Mf/dBm//Rv7MwXPpY1pYMlL/7cYue0sHOT8KDjAuzcmAA7OyrATg33sXPAeo71MyP97OxIvOUIf7b7oaC+dpzl0eEC0ocAPor5fYDy5ZAQIsgOA9QhIDw8MMAOAubBAT5ADNwo7H5Zgv4KX9uNmu8TuMC3l+N39QdW4N7Bth3Au7lXM9vQrZltB9wd/VHfAShtf1QaUHdwznYHN+AOCLSNAwNtA5BvHoqSjwy1fWOa225uoOVdfmH9Gv0F8H5gP6itWgolkN9DxUgw61TlxibBJJSA1qlbHSXWDa6S6Kv/838i/qdugto1SSqJd187YH9VvC9bcxf5xnGV4KoE2rvhzfy919G6F853K+G/Hp6qp/o16xEfumohFYl/iLK0/u3v2dom/2hxw4MtfmyEJYxtbVdntiNJ8rczQBhFsXoOBY0eG2jnSZyiWY9i+5nBzewccEZR7EdhAU7jR08Rx4H0+FAfO8ryS1T0KMAeAsiDgHYU9TsONF8O8HVxDECPEl8C12HCC+0+9u3t62O7ezdFgQU1CguMeyuA3MXrHcSmHk1tczdf29UvyHb3x+Oyfzdw7iS2Afc2jpHSbhkQZBuJDdwoa/HL64jNqP4GPs+WUS1s//gw2z+8mS1o/1Nr8+8/sr/6rTpWsypJW1V+U36r2nU+sJqUSqpJUWlUFyV2v31FVP5v37ft/874jYD9Ntl+97jfFFhvqKrJHS8gvwVYV11FfMAPX706x+FL/71GTZvwv/7Eojp+YnkLPrOMpR3t1OgIvGWExY5pYbH8gVFjKepR0jOjgsjOg+w8inqeLP08iU0MgJ4HxGgiFgsQQzF/lvXTxBkAPj0iwCntSV6fGOxvRwVoP9YHBdlJgDyBTz3N9jP40lP40uN42aPAdARgDwta1HNPH9QVaA8AqIA9iEIe4Py9gOjABOSN3Rrbtp6s9ydBA9g9qOzu/liCflgBBy2K2s/f1rNtI8dsYfsWzt1IrB8Qals5ZiufZc3gEFs+vKVtJZE7iufe07exjQj9F/vpj39gv12jiquqq16rngP3bZ3uO1EHiPXffvX6m//7/13hgPW0wEAvsHnjfQf/0uCLefyIzq0IAfy11xXB+ru+VAB/4H4grlEPM14PsIH3I/24detZTbJ82Y8qFPf1q1S3pvU/sOX/9fd2HVDyl3ewpPnt7fyElkDia5EU4xcnAuYEf6D1sQtSVbadRomiyMylorEoazwW4ALeNJ5rxJHhxwFsLMsoitqzLM/x+jT7T6K2glJxHDtwrI+vnQKQ08B4GihPEQJWcZxtx3ntlFb+ta+v7euNtwVKAeu8LKDu7xeA+qK0bNvHvi1dGtnuHtiFPiRkFdDu6ovC9g2ybcC5DVA39/G3jQKV/dtQ4q1a7+tvm/v62aYBwahuGME23n/94FBbOTTc1o4It71jQmz/MF+b/dkvLPSfft/+oH41qyrVVXUg1qpuLbxsTXIBWTqXsEkwvgr9j+/C6339fwJ05Wv8OtfxHofCqmva1+N9J/zPhT7c1xXXhRQUeD/iLvqI4z4gnNriwapXq+mqogLq17fNPv9q16e0s5SlHSyBDD9mYpjFTYywMyje2QHN7PLEUIvHp17El17Aq8aisFGjfACrsUWhgk5NgTAeBb2Aol4QrIQUNhYvGMsx54HzPAA6eCl2z3Ltc1iAEwB7EujOoJKnUcszAKI4jbKeJrs/VaG6x6Wy7N/XqylLKW4gNgFlZdt+gN2HWh4A+gMo516g3t61ke3Hv+4ldgPzDvbvBMYdffxsGzeIFHYr2zzwBttWAN7EsV8LIN/INTehsusGBhHBto7kbTWxZniobZtA0jY+2BZ0a2Ch//JH9rt42SpVa2AR+O1VZ42QfCiR4fXXSrb3APs/Hb/Jtb8BrMff/PrUV15/3+vK8fYcqWqlH8X9MHVqAGkNB6zqUKvXr8uHq24fAGrIhx/ZLt9/t7xprax4RSdLmRVhceP8LIYiP2Z8c4sh0z/Vt6ldHBFqF8cE2UVU9QpF/xXWL5H9x430tejBJFgkQbFAGAewF1Cd+OFACrTODrAejfrGAeoF4FPEAaniPOecHwacnH8GVTwLeOcA8RwQnsM/nhGwQHoW2E+irCfZfoz9h4Hs2OBgOwLg8rBS2oMcvw+wDgHSYVRxd0+8bA8la8EuIduOfdjGTbG9jw/AkphhQbZX+NgdKOn2ASGobCAWwRObUOINfbAHsgvyty5CbP3AUIANtbWcs4JYwutl3ADr+ExbUOAFnT+xlv/1I/ttSrMqVdQ8LIHw/P+VbdnXgHWh1954/3/89n/+Fha82/878V6F/WUXrvzG33aM4t3jvhYVP4ZCP0594kPnrVDT+rXxWWqurGJN+VE2N/x3K57a0YpWdrDE+eEWP7mlXZzU3C5NCLMrY4PtyrhglJDiuXcTS6AITBjDNtT1GgBexcddHRVol7EAF4EuFpgukZRdxJvGAWwsKhuHqgrWSK4RCbCRJFhS2AtDg7ALwXaJm8AdA9in8YSRFPtRwHkewKLxopHEWQHLtaXCZyiSTwLYUWA7jsodAc7DUllAPTo0xA4PC7GDKN4+VHB3jwDb2cnPdnZFVXsAZi/ABMDNxPY+7O8Xajv7hwJqqG0fGOaW24BPIWg96oodwEqsxz6sxyqs5bw1vQNtda8AW87NsLSHry3r7mdreoSxPdxW92c5ONw2D2thu0Y0tzldfmq+//o7/P41yA34b+qRU1QC9tvA9MYv+7/ft8+77TcN7/lV3vpI51dYdx7z2y+uDiVfdSrRNs9d+G58dRe+L5Sxchw/TD3U9AOK/Y9qfWhVPqhPRlvFfgas8//5HyxvfHt7sL67Zc4NtrRJwZYxsaWlTAqxq+OBcDxAjQu0eKA927eZne/T1JJGhdlV1PY6ydUNILsxMsiujwi0a4CbgH+9AEyXR4Y4ZY0m+3cWYESwncMmnBuC/8WzngHMc6hsDIp6kXMS2H9xdKhT2TP9mjirEI36nici8arngDdyGJ8BaKW20cPD7DhqeBiFPKYkDNU9yjlHBSrKuw9V3NG1mW3p1Mi2d26KbSDJ6k2W383XNnX1sY3EOi27+NrGL7TEo3YnuerqZ+u7NGNfM1vPseu6k2SxXM2xq9i+UsE+T7ANSFeTyK3tgyUQzANDbA2gr3HLIFs5KMKWDmxpm4aH2/ax4Ta+7U/sX//oQ6ulxKx6XatTjwRXJR7/uZq462Pl1IdBUc/V4WoJI46fr0SucniZeXdb5X3fFkqwKr/2nl/Fu1I53j3o/cH+Sir59o78FaHeUfUo6qth/mvXl1+tQ1JVz6rUqGU/4sca9Ae/a4lDW9iTVd0tb34bS5sebhnTwixtCtBODrDUCUGWBKjX8WNXJobYJZKKs92a2jXgSAHQawB6BSCTWaaNCbVEAYuSJgBnHGBeGhnsLIC8bDQQRgLTWXxqJOtRQHoOEKNQ12h8bQzHXOBcBzUJ3Rk8sqzBeZ1PnNE2JWioduTwEBI1PgvwHu7X1I5yzWPsOzEiyE6w7yCKuxNId3VsbAeA8EtAOj4k1I7wvgfVSjYkxPYNCiHhCrZdqOQeJWCElkrAtvfG1/YOsG0o52ZA3No3hAi1Tb2wACRsmwU919ys6BfilHcjyw398LIAu5brriFWE6tQ/pWAuwKbsIT3XEppsW5oKGrczLo3/bH92Q9qWo0qlLZ1P3T/ketEhMDUqot1cI01qstVxxuW/J+138vHV/E+8H7VNgH77jbFfx9YlFGgesPBWLF0dxzLb9tW7YNqeNXa9r3qH1kNbIA6ePy0ZnU7EvAze7CmlxVt7GgpAJpEcZ86JcLSp4RbOgqbOgFggTUVUJNIIq4AbQxF+NkujVHUUAdsEkBeZyl1vTEqGIAD7MpIf6wAlgDA4iuKd1VnSTUFrZKrGNRUMEajwudRyvMjQiwKUM8A5jn2nwJWgR0F4JECm21S1tNKxmQDpLio9ymue1rXHAXAgHoCP7mvSxPb06GhHensZ6cA6gQ24SgqfIQkTU29B7nGfizCXpKrPRTzewB0P0W+qsD243vlbXdjOfZgLXbiaXdgOXagkls5ZgvHbgHKrYC4BTBlJzYCubMJWAQXgpXlamIVXncl567gvVZx7WV47HmcM6Orvy3lOtsQgKVYH79//n2rW6OqVa1R3WoJFBI01zWSqFm9hoO0Vl3VLqi0lcJ+nZfK/Hh5+rZt3xbvO+4tsJU3erf98uC4CgB/0xCs36nxPatS6yPXzj/0D37HCke1tvvb+ljuvOaWPCXMEqe2tev8eMnjQi1tYpiljw+xDABNE7CsJxHXADqaYjqqWzNLpWhLB5JkIhFob2ALEkcHOR+bMFLeFSgH+jhg41G9C0Q8gF0AzBggjB0W5GyAAxfFjMa7RhLniCjiJN71rGDleEX0KLaPDLUzQHkMhTyJQp3izz+NUp4GvuO9fe1ItyZ28ItGLJvhcYGfJOgsCc8ZjjuBPXD1tcB6mBtEduEg5+3rB7wAdRAV3A9U+4F7L+DuAVq3JHZwzBbAFpyqk5WnVc3BFm133jbYNqGuUtj1QLgWkAWrR2GBleOWc9wy3nMeSdg0Pt+8HoA6uLktHtTS1g5tZZvG+NvQsH+0f/xBPfvDOtXtf//BD+zjv/p94vfsr39Q3+pVqWbVa2DtKB2VrHn77/6q+DbG3t3mPe7d+ApY3vCt/0Q9XVS6wDfjm8B6VdSrqm6d42rV47p4Ik9LVS2rWVcWoKr9F7Du9PmJ3VvZ28pWd7fE6c0tcVpziv4IS5ocbtfwp9eALnlciKWwnkWilQXAgvfGWIp/gD3Xq6Fd6ONvKUAlG3ADWBOB9jrnXcPPXgHcK4AvSM9TRMejuvGo7yWOiWN5geUF+Vr8b5wAxVqcUtLUs5kdxmoc6d7MjvfytWM9fewo2fxR99rPTvb157hAOw4wR3j/fV2b2H6U/iCQHu7exE72BnCAOwsckYOBmOseJ5k7AaCnKIKPAecR4pCWQO6gBUa1hKnqS/AqBKzqZdXytRuQd7LuEjMsglNUlFR1sgJ2s6uXJRHDHmzCVgjaTSRtUtjVHLsKeFewvqx/iC1ifT5gT+vmY7OwFMsGtmBfC1sG/Ev4fIsHtLB1I5tzrL8t4nrbJnSwHZM72rZJn9nKMWHWp/W/2R9gHWpWxxrU+5D/Xv053seJGoY8eY/i/TnObwDsV/0AfnlUvpgneIMKKN8XXqtQB9/zXYx63boUIWSg1UnSagNqlw++Y2kDW9vT3cMsY0kHu45XTQPYzGktnAW4MSnUrlL0Xx7tb4kCdjxFPuCl40vTxwRZ6hjgBL7Ibp/aNYq2VLYnA3ASx1wbA+gAfllgAmoCSVMMCiovemEU1mAE3lTrDlSAlf/sR1bfvZEdE2wAeo4/LmZIuMUOjWB/qMXJ1wJTJIp0prePnSYDP9sH+ADnS7zfaUA6PyQMm6H3CuE9UGEUW7UGamBQ1dcpgD3J+gnsgxoXvuR6XwLH4UHqlxAIvICKku7nsxwimVPd7X6O2c177gZ+1/LlAi8LnFrfgq8VvAJ1AzeJYpOquWQJiHW9A0m6Qmx5nxBb0oviv3uQzcCaTPvcx6Z2aMqymc3s4m+z2b6gXxighhN424FhtoTSYMXwlrZyVFtbxHLe8OY2d0QLWziqna2b1t6m9vexP0aBa8hvIkIOSKASH9517+u3UcGHq3t38VVy9e5574tfOsy78ravvamLXw9YdbJQYlW/9odWhQ/4R8A6/a//2B4u6mcPtw+ytAWtLGN6K0ud0QLfGmYZKGsGvlXr1+VTRweglCRQqGsKICYDYuqYAMsG4hv8wVdQvFyUIGcsiRnAJhLX2Sf1vc7x10ezDpiXgOUa8F7lWpdR30tjIixhRITF8gef7tLQoinC40lArkxoYQmTWtjlic0tgYgfG2qXuXkSJofZpQmhdpHPET8uzGKwA9FAfxY/LK8bNzqca7YAWG4iYFNNQhSQnuMzRrJUHe0ZQi1mAveY64MQQOKF2hLqQHMYhfV0pFHjgnp7sUThdvX1s11AuwsVVewEVMV2lF0NCptI6DYB8AYFMG/gmDVAvJLkbBEJ3vxOfjYLQGd8Bpztm9rcDr62oLO/LewRaEt6o7aAPLurr03v4mszuwXafOBeNjCcpAzIScwWDoqwhdiFhSTDC4YC7fC2RGtbN72jfRH+7y4HeaugQOUFT0vv67dRwcf/KLDvC+8bvv0gqgr71pGhnhCw9bEBavarTlL1z3yxw34/szebhlj5th6WNj/ckuaGW/6UlpY5tbmlAkXmpHDLBNpUIEkEkOuo6XWSphSK9zQiY1yQZeCvskYG2lXUMBX1KBzb0vKBKHNsgGVyTtpEFHpiKLaBcwA5GV+aipKmodKp+GD54sv4yPMU+fGAmjqmJYlca5Q5zK5NADzsxiXe9yrHX2b9IteOQ8FjUepo1Pg81iGGG+HUQBIxErlYPG8c0MaS4EWqgUItY4AXiZqq+ktVYZHAeg5LouZhtYi5vgjsV1PuMZRUjQxHUNGj2ICjFP9SWUGr5lsPrJ7+BXtQ/p2o6U5g3SFgsQnrgXO1inXgXAKciwBzXttGNrddY5v7WWOb37GpLe4UYEu74l97BtsqIF3dN8xWAuZKfr8VUuB+oba8L3B2D7ZZXGNujyBbgi1YPKi5LQDehYMUEbZocIQtGNbSFgxpb0v53SYObWbf/w7/MXlJPVTWy0llVlwgWm75LifvAOsNzxg2OKsEq6ISsGwg5F0rg+qNyhdTvA9Y1depPreW/CrK+iHrNTUBRJWq5kd2eaVTsJE5WPGK9pYzt6Xlzm1heShp+gwSrWkRQIpKAkkGwKUAnKzAdRTx6lAfSwXWVDxqFoqbjcJm4VWv4BvTKb7yxkZY7tgQy0NVC8YDvANWCVuwpaOQqSRa6Shj9vQWljku3K7287ELeM1EvGMWoKahpHqvq2MDLRlgb4wn6eO8q/hf2YtLGhYzyt+1ol3ifeJR6PPD1LrWjISN5A0LcBELoIaI88MUnrraKPxqzNAAD8yAGs3nOM/yHPAqgXM1DCRzJ9SogLp+iZrK2wrYQ9iEPQC7q48PS38iwPaiqntInlTNpZ5dW3v526pOvrYI1ZzXpjGQNrX57Xxs2Wds/wIr0C3I1qKy64hNvUNtA4Cu4dwVKPEqzl/Zi3Uswyq87go87ho87VrWl/cJBVj8bddAm8FyXv9wB+0ihcClRFg0sI0tGhFmE0c0tu//oK7VJgH7ANvnxs2Jg9qV6+uJ3xBYT6saUQlWRZXKJ3uSpq+f+G2hCv+3xf7ba9S1D2rXtw8EeX3PiNM6ZJPt6n9oRcM+Mzs41PKWt7W8ua2BtbVlAmr6VDwp/lXVV8mAlgowqcCVxlK+NVGtVsN88a0hKChJF8BkongpgHKta1PLx2cWsC+XyAfWPCktSVnyBDU2eFT2+iiARcGT5W17+tr1Hn6WNQobMakVNwjemUidGOFAvcExKbIbulkA9BoKexl447lhLnGti9xAF0ailhTpMUNQ31Gh+OFAl8zFYT1Uy+AJoBW4Ahb/rJazGNU+sM/V/QK0Os6cRIlPAq66Kx6Vr3W2wNOjS7ELv7ynj5/tU2IHZHsAagtquuqLJragzce2uEUTW9nOz9Z1DrQNFPHr2aeky9XHKlRjAJQuGSPRWs1yBd5WsRxgV3LMqrcBtBwjgJcjBIuBeGa3AJvaJcBmyv8C7nyAnY9NmN+/rS0e0dJ6dfxPq1GtBiXpdwC2NlEDNgShGhcqAftrRGUwK/cCdPa04pi3wHrBc8pZ6SLfHh5YKwNb44OartfVd2p86AbKfYgF6P29j+zOjB72eu8IK16Mqs5vZXlzAHZWS8ue2cIypgLnZJIq7IBUMRVlTaHYvoGqCbDrwJEk4IApA5AzgDFrfHO7hvKkoBSl41pZMdsLiYKJxKQIy+Ma2VwjdzJeWAAC+nUASejV1FJQsWwgy5/W3HKntuAY7AjnpGIlUgh5ZFWjZUxuDsBYElRafRIu8jkujFBTLv6UYj+WIj0BlVdil4D6xg/3c9Viqtv1VpFJaZXsxUuFef8YlFWNE675FmV1wGIHTgxQpxl1XwRYiv7DxJeAfIRt8rG78bA7sC4bujSz1R0b2/LWn9jKNg1sfcdmtq27GhZCbYdqDDhmY69mACpFJRlTDQLAqq52I8BvZLmqlx/BEqhX9MTnSmEBVa9XcbxqE1YC7fL+Iba0f6inNoF9M7r529SuATarDx62fwub27e1LRrW2vq3/5l9p3oVq1UDqPjPa9cFVIkZ0KlIfz8774/fCNivRaWLfHt8BapHmbEEahFBWavUr2vfA9ahP/o9e7aov73Y088yV7S0mwtaWulsbACg5lA850xvbtnTpG5BriHgBsCkAouDR+CgmqlEGrAKJFVlpXJc2kh8JkV6/ujmVja1ld0CzJtEIYpahP8t5prFWIyS6dwYY8PtWu+mdp3MP48kq2gCx3FzFHJMPqqejapnq56X6yZjCW4A5w1UPIUb4KoSPt4zkW1S2yv41kuuxiHQdbS5PDKMpfomBNolPPUF1ecCpWoUXKCogjSepOsSydgFbITU9yxq6knAAl0z7kniNOCeQlGPycf2D3QdZg5JafsH21aSoTWfNbG17RrZpo5NbHtXP9vTO9j2oop7AHEXCrwTqLf1aWabeza1TT39bAu+disAarnZ1Rp4gF0PyBvxsOs4fxUJ5xqOUT3tGo5ZrUDFVwHrMlR2ESAv4vilWIkFWIpp3YJtUpcQm8H580jI5vF5Fw0Ntd7h/2o/rFfVapGn1Kn3ISJGKQsTHg/qAfH9DH09KgOr2iVZ0f8xYJ1P4VhP7y7POKsPier4mN8C1lF/+Lv2eO0ge7y3P6C2sbLZra1wHgo7B/WbTtE+Fa/pagU8iZBglSUQKEqa0hUUw1kAJnVNVQMCoKVOAUD+yKv4t+IJrayUor4U8G6yvYj9RVy3eGZzuzmrhRVSzKf29bEs/qhb49ribyOsAKtQOCkEcIEWFc0D9CxgzUKV01HTNABNdrUSvB8JYAq+Opn1G1iUK8CvGoAj3Rvb0a4+dqy7j53o4Wun+KNPA00Uinie/YL0gpQVOOOHBdhlVPcykKs7Y/RgX08zLyFwT/TnfKntYKDFUx8D1kOAtBPoNnVuZmvaNrTVrRrZxrZ+th9Pehi12w+EalTYpdEMfXwJEjNKG0+XRH9Xe7CDot/VIqCoW1luIjYC3wYB2ysIgNVsS8LGb6PmW7WICdpVwLsCUJehzIuJRT0DbVkvlLZ3mM3vG27TSMYmdQm26SRvs3k9v18LWzWyhQ1q81P77XrVrEYNeKj7ETzIGgg0D6zOQhLvclQ5fhWw2v62A3fl+AbAlcJrAz6oALZmPWBVf0q2VWP9h8A64Q/+0F5uGmxPDg2wggWtrWR+GyvFAuTNbm6Zs8MtayYwuL4BKoYBAg+p4lchL5k+pQVLgGZfFtCooUDr2WpUQBkvDfCxGwMBb0JLoMPDsl1qWTS9JcvmVsD5mcCSyp9aNKqVlc/oaLdQ2xK2F3Hd0qkt7da0VnZzEsDqurxHFuDm8N45SvzGBbnkL0mKCmyRQHGiSxM70O4T293yY9vXuoHtb9HADrRsZPtbN7HdzRvazhYNbUf7xrbn8ya2vxNAUwKc6NnEdcyJouhXAnZOFoCs/xSZ/QnAPMHyKAnVYYryAz2BjyJ/c4dGtg5I17ZqYutbo5btmtim9g1tXw9uFOA6BJR78LXqR7u7n5+D1QHLdVxXRJS2MrAK1Sps55i34HKdjUC6ETDXV4T6G8gSrGR9OculxBIXQawDLjZiMefIIsztFYavDbaJXYJsSq9wmzmgpa0c1sYGtPlP+y7QVq9RH6Ul6YKLr2bWqYh3IK0clYF932tFlffNDfW1N3gnvMC6ySrU+Ze7QJ1XqmIDNGxl5O/8HrCOs1fHBtidRe2seEF7uzkXOGYD00zUbCYQTkfNJssrehoEXDUUynaDIlkeNhPo0oEoTaoHQJmCaRp+c0Yr9oVbfJ9GljYqHA9KkY+aFnAzFEwD3imtLGM4yRIWIGNAgN2e1M7uzupgt+a2sWISvGKuexPfWsT1FGVcq3RaGH6Wz0RkoLzXR4fbhUHBFtnd144ByuEWn9iJlp/aOWCM+cLHElCWJLLlxGGhdoXs/jLHxgJLJIp4jP0H2zayA60BGYD3tgTiVg1sR+uGtg3IFRu53gYUc1ObJraO49a1bWybOG5rc/breF7v+RwgSSgPAvKXKN8+Psv2zxvaQdRSwO4TtJWAVXOu+iGo/+w2YN4uhQZSp7asu9ELFfCqVcz1n5XnRUFlEdYSq7m287QAqhqDZQree2kFsItRdiVhi9i2ELswvx/Qdg+ysZ0CbFzXUJvUp4UtGdXG+jT/T/tOzSpWXZbg3a6Kigrw3hfvAvourFp/q7DqB+tgffcNKkXlN9c0P1JWjceqWa+286zdv/dde7h2mL05NdjuL21pZfPbWjHqWjyLYhtgC4ErewZAkmhloYgZwJgOlFoqM1cxLCsgdVPSJVizKPLzZrUBzFZWMLutZaLGl/s2svxJra1geltUt7Vlo7TpI0mQ+jWzGxSx+aNbWPn0DvZgdjsrn01SxvvfBOrS6dw4gF/AdaXMxc7vNncqfo2iO6rrJ3aq9S/sVKuPLbp9I7sIOEkUhxmjuNF43wxuqrQx/tgGP+xKgKUpSOqSR6ujTRBWpZldGeBr1wcH2yWgugQoF3qRhAFCNNbhXLemdrZbMztOhn8SNT2Gah8lTnRtZmfYH8nx54DwDN/jJKXI8YEESeJR4DvYw8f2dEXlAdADrED0xcf6o7a8lsqqRxiQ7xSkQLmb6+0AxJ1YiD283klsJZSQbSTZksJuIDz9aANIwFSDAKhOYT3QLgXqJYKV14t4vdBBi79VjUE/1LVPuE3sFmIjsSuTeoTY4iHNrVPwv9oHtapQjH8lcB5uvgLRC+G3hRdWb3i3/7eBVb+A7+hCdepaTbLE9vU+snuzh5nFjLHStS2sZElHK0HZSrEBUrcSKRzA5gBsBslRBolODoqXDTRZeM8MFcckUAUzgHBKS7tG1i21zRWss9tYDh5Y4CYDVvbIECvBv6bgA6/187XkAaEkVn52pU9jfGsLuzv/C7vNe5eh6He4UW7PaWclM7lxALaQG6AAdS3gvTNGR9gl1On05w3sBJBGoXpXewZZxjAsxvhWlsfNk4fq5nED5ZCIKbKB0xP4XhLCjFEkhiODLWUEidmAZnadz5SsdTzrlSH+lkAidonlReLScK0DcD+UmgTs4hCNavC3WOzC+YEBFk2cGwCw/X3stKq7Bqivgr+zD+qzsL97M9tP8rirR1Pb0QMrArR7sBJ7gXIvwO4BXI9FIBED0t2CltC666ZIbAPKTdxAG7mR3gILlGvZ5wE20FmCZcAuWyAv6wV2MWDLEizsE0oSFm5zWc7uG2qz+pOQ8fkm92wFtKE2B//eouHfWq1qVawuYvaB7IGXmwoYvQB+W3wrsF4AvZm+W38nKtfNyji/vVDt+la7ek37D9T1eu+W9vr0dLu3sZvdXtbeSuaRZM1saUUomDL2IqJ4JsX6VMEKAHhHVUPlA2/2FKCY3sLyZ5CUoYA58qokYimjgi2PYj9/pupuARlLkDqE8/lxslCTLGAomdYWKDtarmoZhjcFlgDOlxoDOElVGtdIxM9eAoSLnHOhRzOL7dzEIj/71M62QElbNrDLHZtaOj9+3uDmVjiGz4m3LQDWXLxzNn42i2Qsa0yQZZKM5aCoBSSB+ar71ecbHWpZ/EGZAJjC57kyoKldHx5gV4lLQ30tfijvqzFkFevxQ3zt4iAfbAdBAhY3xIdEzRdY1a0RlScB01AejWo4g605ieIK3KOAuL+bjx0CQI0T2y1oUexDwKg4yPaD3HwH+G2cRQBeF06B1R8BteWY7UCo/rQbgXwj19zAuUq8ZAtU5aV62pUc56wBsRI1XdlfLWGAy3GL2L+AhG1enzAi1OYC7Oy+ITYbtZ09oJXNws9OZf9sbFOTf/8TqwK09ep+4EaU1NJ8CBVJ2PuiMqDfFr8xsC6AViMEqrL+J8B6LszfXpyaYulL2ljWHDzrgnZ4Vv78WSgUgApKtWjlEpmTUDCAzZsExMrup6Nm0yOAlaIaYAtYFs1qhToDKcdkYBXyUNycyS0sEXW6QnaeNyTMbqOw5Sjv7YVtrWRha7u5qK3lz2tr14HpwtBgi8PTxfKHnu/QwKI7fGrRbRpaXJumdrEdxXZHVLBbsOUOD7dbqHopaluCyheMC7CCkb5WhJfOH4+KjsOWsO3GmABLxqKkqlqNpaxBDnYgF3hzBezwYFQZu4CqXqcYTxKww/xQUT8UFeWnVFA/hgSN0gXoSxxzabCPxSsAVt0eo7ES54E1hsRM6xqKc1bDblTdpRYwbraDeNmjQPMltkdNuXu745mxCocBT6/lbw9w3NeB1VBzqS5KS6h1bCvq6jrNsN91mmH7WratwYfLGqzmPQSsGhVWKORnAV1J2GL2L+itutkQWwCsc9k/GwWe3TfMxSy87awBzW3+4Ba2YECI/d1f/dCqUALXVzfEitlmvi3eB+i78RbYyvEusK7JtuKiX/UlqGe/B6xr/vMfzCLn2r2DfS17eXvX/q6WqkKnmIBJMqPMOxtosybLDpDxYwPyKZZLSJRuAWdxhb8tmdOKBKm1lbK8DfR3Fra3uws6AE+EJVOMXiURSesVbA/I+ss5p3xRG7u1lBtkWQfL5Ua5go8927OxnevUyBI6+VhWrxAr5gcsRh2KyMgLBwVZ8ZAguzM2wsq5ZtlkbpBx3FSAl6eWMor8gpHAOjLANfNmqd+C+h6MRaXZljjCn2TL31JHBVrmKH/L4HUGxXwGMKYNBeqB+Nf+qDyAXkdNrxCXBwPuUH8sDsDKGrD/cv9mdpXj9ToepY3RSAa1nAFpLMAqHLTEWbadBtATfXzsCIAeB77jfZsBLgkZ8Bzo2tipr+pvD7PtAEnXPiD0+lrnbbERuwF1N5BuB8qtPTzQqpfXJgUgruf1Ovav5fUa1l2zrVrCgHEZFmI5+5YSSwjVGCwg5uOD53LsPIB29oCYBcgzpbr87suGRNgUjv/Rb9exGjWq2Xdqf+ctP//d+LWBda0WKKvesBahVqw+v/tb9nrPJHt4aoDlb+hgRSs72Q0UNWGYr+VOkiriT1X8A2cucGaToWfhIXNYFlBcKwkqQyULsQqlgHp7HgAC6x3Buqid3V9O0sS2TP7cPIqYXAz+nZGt7Om89nZ/SWu7v7qT5QP0ZfXsx4eebfupXevq56qy7kxua4+mt7OXKPXTOc3t4Yxwuzc13EpQzUIpqAII8wEwH8DyeI8c/GQmKp4CeCmAlow6Km6wPw2fmj4Cz0pk4aHTR/pb+qgAloGWBrDpI7AEgzie8/Q6ieteA1SBeQ3lTWC7lPUKy6tc/6payli/OAiLggWIQU3jsAUXsAIaLHmeY89znKCVrz3V18eOkrCdwrce79MExW1mJ/CUJwDzUA+gZf8x7IOg3csxbxWW2E0itgdwBO0uANuOJdgGcJtR583YgE1s28jrDQC4lmPWAOhqweoCa8BSzbhL2beEWCxoUeD5LOdVxFxUdy5WYBZLWYSZA8Js+qAwWzushQ1u8zOrV6uq1atZ3+q7edC+CeKvG1/VwyrpqojK8Mos15BxrqXOLWrJ+sDqVa9uDatXpSjvba8jp1nB5s+scF1HK1jymaWSXF3Gr2WS/HhqAuRZparK+AGYyKWILyC7L5rRGl/bGmVV0d6OBA2ASZbKF3e0O0s/t7J5rZyS5Y6Qv0S1B4fak7mf20MSultLO1gy1z7XBS/a6lOy+WC7NaG9PZnzuT2Z/5mVz2lN0tXCbk0Pd8lXmZb46EJUPhfVlJoWsiycGGw3+WwlKH8poWbe3JEU+YCYS+afQZGdIQiBJ53IAug8gM3CJmRgD9KANhl4k7EBSWT2KahmulNdgYydAFzFdYr/a8B5TUt+n6tOfWUNfC2W68rDxhCxA1gCXhzbYjT5B4ocBbRnNIlH98Z2GiBPse1EPwELvIQU9kC3JnYIBZZlOIiF2MdxTmEFLDZhT69mQOtrO1HbHajsth5+toXj1S9hPVZjPZCukyXo4Wtr2La6J7D2IHpiCXqHAmywLSUhXcz2RUC8gKWswTwU2AXWYD4xD887h0Rttpb42gX9W9riUeHm8/GfWTVE7gPE7oPaMFSnhhsbpgn9vB2sKkdlSL124GvAeutj31tLULsu0NbDONexqnXr2J/xxmda+5nFzbXi7V0se2N7y11GUrSgjd0AipgBjSxNLVRTwi15ssZfBbvugqo+ylEyMwWFnY6yAqzHr7ZxLVO3Fre326h0+SKAnNTK8oc2RynJ9gE/sU9jEp12ljm+HYkNf2ynT+x8y19YUldf14DwYN4X9mQxsALyfSk1lqQUf1xKAqf1Mr3msxXgo/O4gQqwLvl4UbV8FRGCtWQiloFEq4AEK58Eqwj/rCgmCnldQGQPxWoMaYYSc1MCYjoKmu78q+pnUWaATUORs4A+DQ+bDJg3OFaRwvFJ3ADXWRe0CSydTWAZB7wXAPrCQAKfe0HAcgNEAWYk6nlGitqzKQmZnxsMebIv0ALlUbYfR1FVk3AY2A6iwnt7NLG9vZrafhIuZw8Ad28vH7fc2bOZbQPu7ajrNoDdBqibUdgNSsSwBqruUt3saqmsoGX7cpZOYVlfQjhL0CPAFgpSYJ3LOfOAeB7b5xJzUN+5qP9sbNjsAa1tBp52BnnFP//ld90Mi/XrfM8DI9C6Cel+TWCdh32rsJXCC6pXbT/SxMBkelXq1XTNrjP/4s/NTs+10sO9LAd1zV3XwTIWt7b0BW3d8Gv9+BlT2lgqluAG6pWoelZsQRag5rmqK2X+LIH15vw2riWsbFF7u7e6m5Us6kCWDmDjmlv5/Pb2YNkXloyKRXXzt6jPQy0m4hO7SNF/vUszS+Tuzx3DubIRQHqX69xdgLKS8AnO2zNbWhlJnNZLUPabLNVIkAuweQITYG/iVUtQ2ttYl3JuqjKWxQIZZVdovRgvW4SV0LIQZS1CWYsAMn8oSgpYaShgCl7zOt40BQuRiX2QwqYCaxpqm4o1SCEEsoNW/hYwr6KuV1Hsq+y7zOvLACvVvTCgsV3kenEoZeyAADtPQnUGWE8DWzQ361ne5zQ+9jSgnsLfntSMNKyfBM7jeNBDHLe/O9B2B9qe+FqK8X0o6l7WVSUmpXUQc/wuoN4JXFuAbCPnasTCWtUWcOwawNU8B7IHK1BdeVl1R1xKLCHUz2A+116Al14IuPMdtCyltPjaGfjqmQPCbWrv5q7j98jOP7Xv1K1qdWrWg6cPgbG6m3Hma6CqSbYSrF5gvevvAFtRF1sRb+0BF6mtujSyvfCada108RB7GjvGMrd8bnlrP7fspe0sZSFZ/NwWFjmsqSWMCkVd2wJpcxQ2wlImNbe0qS0tQ5X8M9tZ4dx2VoRnLcEG3EYR76yg+EdZS2ahuvzZUtfHK3paPsp7UX/a57526bMmloqC3BzR0h5P7WBPZn5G8R3ugEgfRhGtHlio5s2pFP9AKkBvobAusCmCtkgJ4JQQy8UW5KP2Us5b40LtFklVGZ727oQQuz0BaImbo9Wsq95gwRyHdUB1FfncPIUAe5Pji4A3n+NysASpgwGwbxOXdCWikIkDmuBnfSwVgFNlKaS8hOBNpKi/3Bco+zSyeM65iBrGA1JczyYWy3oMcR5Az6OK0RThkcSJLo3sDKoYjQWIRHUF7BkgPdPP104L2N4oMAnXKQB04BJHgGk/iruzU2Pb3cXHDgLZQSzDXizCXjXvClbew02JxPZNLDdxc6xnu0YsuEB9Be5qYgXXWwHMy1guZZ/87CKWisVAulBWAZsgYOeryoucYyb+fDLvO6dfW1s5poWFNPRYg9r1sAL1PaX5rwNsJYX96uCvwgOw7EEd/KsaDKrz+i95o5OtfexN/DQr3vaF5azvaLmrO1j64jZ2fU6EXaZojcQOXEdRUymKU1UthTXIcMC2sDQSr3TVkc4is1/YwW4u72Alq/Cra7ugfC3dn1syqS3e9nOKR3+LbN/ALn7W1HIGRNijmR3tGVbh2ZLP7SnnPp3fzh7hU+/OaElxDoxjgZFkJ5viOWsICRXrN/GjpViAm1Mp9qepeizE8rEoeZQCxXzGMmzAPeI+x90GxjJ8rYMX9S0BymJgvMmyZAzWAEUtGY09GAXAowSsD+qsVjUSTMDOHA6MFf41ebBqCppaKpE+uLGlo5wpgJzUC6ABLQFILwHrFZTyCsV7AgBeJbG6ioe9xve+groqLrMvrl9ji+7dxE52boDKknTJx1LknyLROsm6WxInUNRjKOrxHlgElkdZftnTxw6jlIcBfh82YHdnNTwEOVClspomaQfHqPl2Oyq5hRtAo241wbK3bnYdNkHArmL/co5bwrWWotZObVFRV3PgwAVWrr2QxGt+BbTzWM5i/9QeQTZnYBtbOKyVzR0SbH/1B/WsevUacKXJqGt4YHwX0neY9D6Y5FcC66CtW89qV61ufX/rB/b61DQrP9jLstd2sDxZgeVtLWlec7s2Uz2ZUA3+uOTpeM7JwZaM4mUCazoe9Ib8rBoEpjS33BmehoCiJe3slqqk2J9C5ps9sbVdHsN1OjW0a581tswBqN/EdvZ8YVd7jD+9v7CtPcR2PJivZTu3LMf7lqOo92e3JkjYAFgKmIWKZeIX0wY1ASZfywZItVyp+2ERwN4cH2jlwPsAtX0AoHfYf5vPexvVvY2i3pkYZrfY7gHWH5ADsSmKICsdG0CCF2ClE0jMRgKsqrfwocm8ZwaJVgo+N32Un+VwfBZLDedR9VfqYPZhAZIBOwXv613eYCmboKQsEZvggtdXUe1LA/lN5WVR4GiUMRqoovqgtPjXSJZaP4MyC+bTwKk4RYJ1AsU91Q+l7Rdox0i8jnDcfkqoXUC7l+V+INsNeKo5UNOtoNXARg0b1yBGzWugAYyufpZYyTFvgSVJWy5vy3ZvR5nFwLkYWL0Ku6Cv6mnxtOqW2D0UL9vc5gxqbstHt7W+n31s9WtUBUw9LMVTA/Xu9J/vMumUl+W3AiupVvcwXbAWF/gH1DV5WGuz61MtayMJ1srPrAA7IHVNntvKrkwNszP9G7iK+0TWEycFWzqWwKOuEZZKxp4OVDlzVMFPkja/tRWQpOWhrImoScbEtnZjUIgldPjEcgeG2sNZ3ezFih72ADW9Pael3ZvXGmjb2V2sRDnv55ZsV9PrLSVWFPl3ZoXzOoQEi4yfG0T9ZPNRxEyBwnuoqiqLG6oI5bxNaXBHvhUo7wHoXUAsxxLcIrEqQ2WdNQBgWYJb4wNY98Stcf5A7IunxTLgb/NG+rm624JRJFkoayoJmaBNH46XRYnTgDl9ZADLQLsBhPKyqipTcnYDwBWyCcmDfEnamqHOgM/nTOQGuMoNd5kb7iI+OUr+lWI8fmCgxQCrN2KJ84SzChTpCo0APqlkTEGSdgxbdYSi/gjAS233qudZdz+8LfYABdwlaFHdrezTDIma2nMD21xvLqB1I2+BeIWDlkBdVeUlYJdJYV14fO1i4F1IqJOMa8btG2Ez1VzLci4l5TzNfTC2vX38L3/onj+hVrD3zVXrZfFt98KK9fcCq4eqCdoPFJysyS4m//iPzS7OtvKjfS1r/WeWvxLwVne01PktLY2ER/NcnevfiGK/jaUA5w2K4gwNLpzSytmB5OkcNxtlXdDRihZ/ZoVL2lruwjaWCOCXBwbbZe7KRH6Ix9O/sDfretkDrMKDpe3t4crP7a58LsX/HZKoO0BaPq+V3VOCBcTlamjAp5ax7/Ys4EXpb1L8F01GRScFAS2qiVreHB+OZQCgfihuv6Z2czj7Ae02NuA+YN5DdcvG+1PsB1gJPrUEfypYS4CyBIgVpWOCOQdQiRxAzFJ9M0lUMbCWjg0FXuAE2vRhwMr1013gsYcHVECsxgbgZX8qQHojjcjiOmnyvAObWgr+9zogX+W1F9hovGYUViCepOsCcMb29bE4IrYPnhc1jXZqKwX2d027Gm92DCvxJSXXEY77kqL+KF73KNsPd8PPdvWzgwIWld0jYPGmO1DQrQC5EQVez3Y3twH/ywaOkzVYyXGCdiWgrkBh1XS7HFuwmO2LOX4JFsOtA/cSwF/EuQvlY7uG2Jw+ADswwmYPBFiswdieDewHH9WwmjU/dHWz7/aVfcviN4HVi69CjQNSVQ13kVTXqlnTfgKwOdO72fOkKZa3q5vdRF1zFodbBtDdmNvSkimKzw/1tQsoSNasdpYOnFkzWlm2IEX50oEpk4QqfXortrex3HltLQvgUnmt4SMx/Aipg8Pt3sJu9mBNN7uzvL3dX9rW7pCU3Vv6uZUvwutS1N+eBaDcHOVYgduAegs7UDarlZVN81RblfF+t7WcJnVFZScEoaIhTjnLpaZYgvKJ+F0U7eYwPCrFsWcd9RwTCpTAOQr/SuJ3EwhLsAk3CedliWLWC5R0cVwu4GXzfXOALw8Qb6LKN7lpCzguXVZEfnaoEkKWCo7NBPQMjtf+TJbZXEPLTBQ3HWVNldpKYVHaK0CrmgT5WAEbi7rGYAsSBgTYpf6+Fk9cZD0eOC/ggeOA8QI+OEatYyjsKaewngmYv9SSbU5tUeND3ZraQaA9gI/dJ8UF1B143u3YiS2AuFGwstwsYFHNTQCrjt+uFQwYVwOvEjCp7TJCCdgyVHkJ0HtUFnUFavU9kKed2S3I5vVHXQeF2SygnTWghS0bG27+v/hzN+V/PeVJeNS6ddTXwFPVpZHWXlArwwuwHjX1Rm1CU7PXqV/TTf4ldZ3zz39jFj/fSo71tKItna0Q5UtfQDG/gOJ8dgu7QtEb2b+JJU7AAgBmCgDJBmSjeJkAlT23nWUCdSYqmUcRX7isMxahjSWNj6DYoygd0cJKZ3W2W7M9YN6ZR9G/8HOA/cxuk1zdxu9qxIJ6YJXMaeFCjQrFsyLs5oyIivpWJVjYARKs8umhdkfAUmzfxqsqsbo7MdAeYFXuE/KgxRTl91D3O6NJorjZ8lCyHPxiMSpcyjYp6k1U9ibHlmIFbmIFVKWVj5/NG+1vuUCaB3AKrediAW6pEQKrkTkM8IAvhchgXybHaCnlFbhZCiDO9C4BNg1L4DkHa+C8LAo70AdAUVkgjOmNlwXaayRmAvkipUQ8Sitg41h30LIeTXKnutrTQHqSOIFFOAaYrjmX8zUN6BHsxQFVefUmANh1V1SjAuBtBdStQOeG16jmAFBdzy6WG3i9DmA1rEa1BfK0y4hFqP9SwBewagVbyPECdiHXVF3trB6BrvVrTv9gm9E/zGagshp5O54k9PsfVXezt9erTQJWF1jVQQZ4vcB6wwvtN4GVHainwYQsa9S0/wTY/Bk97VnCBCva/oWVbvzCspe1t2SASZ4Tbomzmlscf6RaZDKmo66ApdaujJnNUVtiZivLmd3OsvCu6ahiBup4YwqQo2CatC1/ShsrntaOIryd5Y+LcJX2hRTR+RNJzrAV2cCWo4p+kqVSlPom1yyeCagsS7hZigH25lSSM4C9MxU/Oi3UHgHlI4B9iI9+QDycgifm9SOWSrLKuV4RyVA5xf0jlPc+fvXueCAd4WOFFPN5FOvFFO+l2ARFmUAc6496+gOsqrF8nbLmYym0FLA5sgdcM3uEindfl/ApEXP2QEpKpHFjZACpa0njxhCwDlpUPgNlTRnQ1JJQ1iRsQTLnqvrrOtsTUNnYng3tEsnUDfz4tUFN7RLW5qJUlYjr2xRom+Fpm3jmGkN9zwDjSeIUQKofwgkU9xjAHiNpOwJI+1HUg+zbW9ECpuZbdUvcAWiaql69ujRCYbMUFsV0DQrAKpVVFZd6dK0gBOwSbgoBu1iWgP0LUV+NVFjI9gUAO6NbAB4WH+tav1DZQaH42RBbNibCGv7nj9wjS+vX/o4r3d3jVCnZBWnlhyN74xvAqiJX0lwNcDXcZeqfybvOsvKTfaxsYw/L34haLiOBouhNmR1uNyiWI4c2sUv4tdwZn1kmGXsWipcHsLnAlO/mH0BlUdqUSRFubFPysFB+eIpPYL23pIvdREVvzf+MrL+93ZNiTsVvAqgmxcglccueALhk77njeE0SlT0CqIE7f2yY5Y8OtUK2lRDlFOcPRhO8x9PhIfZ4ONtIYO4MAk6K6Nv88bdQrBJeF1DMFnKTlbG9GCUrAo5iICnkzs/AF2bw5xdzvZv41lJUWsAWorb5hICVJRCw3mU+N2A2diFLyRaJV87QZq5VTMoq36qaAhf42RxCoGagrII6C2uiPgypfA4prBofXB0uxyQ5pW1m8X0aWgIA3pACc0NdBeoEZwuwYoIVrxrVqyHANnXicZbXp/keZ9RKBpin8LnHgPMIangAhd3bE1vAvn1AvAfYHLDAp36zUlqNVtjG9i28FqyVgV0FkKo1WIVPXQqUS1DopZzvFFYelmMV8rFqCZvW2c/moqxz+4XaPBKxGYMCbW7fNrZ8aFsb1v1n9kE9bIHmLdB0VnUBFU8rNdWs4F8DFqv6dgZuL7DeiRBq1q7vZmpJHtbOXl2dhLp2tOL1nSx/XTvLXhxhGTPCLXVec7sxPdz9YGljNVSljRUAq/rAajDgLVSwbBGJ0MJWlg+sV3s1pegDuuF4XHXtm9XRbmIXSpdiAfCtT5Z3sEeL29rdBW1c55cyAC7Bt5bgh8tmkFyRvJViI4pUH4rnLKToFqzqvFKISpXy594BgAesPwfkZxzzAFgeAd0TYH82IdweYQPuqb5ViRXF8QOud1tVV6irrEGB1FLq2L+xpfdtZDmAnAtIBUBViDKqeVY1A8WcX8y6fG0+r/NVlYZ/zRguhfVxiqvONapSy5DiqrZA8EpxeZ+simWmqsD4zKkC1FkCgvU0PluKVBYwE3l/1aQkYAtcwwSW4YqA5Qa8MsjfVXvJFsRiy2JQ2BhAjUZRXbUXsJ6Rh6X4PdKziR3EBx8CLvnXXd0b2y5A3gHIu12wDeic0rJ/B2q8DTC3OEvgaVBYzXYlX6opWIbX9fbkcn4WyyBLoJqCpajpQl7PJoGb3tUXUMPcsBqp7CzUdU6/VvjalraAZPU//vG3XI1BXT18pZ5U1dN44CaO8zYaaJ34BrCKmpzwUZWa1v/737PXJyZb+fE+lrv5MyvY1MEKVlG8z4vAj4Zb1sIWeNZwS+qHaiDvpajjXUB9tKCVPV3exl6t/8xeb+5q90my0ns1snwy1ftj21r2IJIZ9RHAKjxY9rndW4G6Lm9LogW4AFu+0BNlarZFwYuxBrdRbjUS3Of1Xb0PcX92S7s3s4XdA+THJHDPpja31yRexo1jbH+NNXmOXXiOTXiOTXhKPJgchI8NsTtTAl0z7ANsxoNZYXZ3epDd4+Z7oGZdjikZS3GPry1EDUtQ6sLBeFZUuXgI540KdVVfpUB6e1KYFUl1R/laNgBnYSWyR5CIjRLY+FvUOGt4MwdyGuorYLNVL8y6jsnlGFW1uWRMIPN+AljQ3gDMJKBMpkS4TrF/pU8jwG1m14D2Iop7qV9jVJbEjLhIXBCw3GSu9gBQVUcbhYKeAcZjeNgjKPQRXh+SygpObME2IFbsRnV3EWr52onPdePDOF8TKW8DQA1eXI+arub8FSRnK13VlrohqsZAflaJl6fPrOzAArbP4ri5qPJMwJ7TUx1kQm0WSdjcAeE2u3+ozUBxF41qYT3b/MTqVKviGqlkCbxDw98Xby2BayDQOssaqOyfQvzZ0Mb2PH6y5Wxrb/mbP7e8dZ9Z7lIlTxGWIx+5GPVc2sKyUbibY/CN81rbqxVt7M3Wz8x2dzTb84U9w7cWdf7E7vCF3kzpZE+GBdtTkq6n67oAZJg9BOxHyz+zJ0D7CG/8YEk7e7jkM5KutnZnvhIt1bW2sHIsRjlA3cOrKu5PC7eHbHsIuA+ncJNMDrNnLJ9jJV5NibBXwPkCMF8A67Mp+NgJgfZoEn4VD3tXPhaQiyjqVaNQDrDls4CYUqOMY0tI0NQ8m4/6FQHQHXxs+bggu4ual+Ehb1IUq3rrzkRKCfy2agZy8bbZJGQ5LHOVlOFnc/Gzzu8S6UrE5GFRWwGrajEBK3DfetmKBCwdWFWTkM77q8orVTYA5bzWp7HHEqC4V4D1Kp73Msr6FbR4WayMnqMbTUQBrlRWHWeUdB0GzMPAewjo9gGmvOv2bo0AF2DZvkuweoFFXbcD/VaK+01YhQ0Avq6nj61j/zoU1jUqAONKFFmtYCv7orIo6lL8rzzsfCCdD7wLeD23lyLYFmocGKDOdV6WGIBFGATAlLZ/8yffs+rVVS/7/u6HglXLbwDrRhdUr25BNWvb/dXD7WHkECva3N6KVqOwy9pZoSr7Ua7bc9rYy3Ud7TWJ2H3U7xZJhK3pYraxA8C2M1uPH1VnkXY/s0edfe316Lb2dBrnbOnpxn3ZmX72fJcUFtCWtreXKz+3Z8RDgFWL1h1ALePGuDMHUFHx+7MiUENiOpAD1n2gfQDAj6YDpKAEwJdTI+zF5Ah7SbwG3pckWc9R50cTAuwecD4A5LtAe5sErIRkTCML7gD67Un+ABxI6RDmgC3jPKlvIVDlAs9t1LScpOzu+BC7r2oyvlceSpeDAhbhXQvHkBSOC8ZjA+s4QATc3NFYglGC0qOomYCpxgR5WqmqwgOrj6fWAK+djZVJB0YtBXTmULy0wOUzKCFLxBKkofRqABG4sgpXsWNX+/s4aK9gDeIBWFVbgvUsinoWYE8RXmCVcB1BKfcT6gCzD5Xd172p7WX7TqAVsJot0T3BBmA3c8w6YBWwG4BzI/BuAsiNgpbXa3i9iuOXo8DysAuwAAuA1TXVAqwGLar1S3N1LekfYYuwA/PxtvMGBNv8gSFuVMLy0S0twu9/kXxVsQ/qql72m8C6aq+vAat6WBItjYD9PifO/7v/ZXZ5rt3d39lKN3eyojUd7daKDq6zSjF/sjpR26YvzLZR7C9rY6V4vufTIsxWdbQXs1tZafdP7HaLX9jz3iH2clI7e7mmp735crC9jhxkL88PsDeXBpkRr/Z+bk8XhduzZW3tMbA+XvSZ3SNJc6DObeHU9RYg3cFqPJzZyp6gqo8A9DHgPiEeTQkCVikp1+CYJ8D6BJV9BpTPAE/xCHV9DKiPpzR30JZzXBmAq9m1DNBuA+8d4i7F+91J4UCsxgaPLchDFe/gs+6iuKXAqObYWxz3UPMc4I2zsA3ZHFMgP81NocRM1V+FqGwhyqtaD9UaZANgtiyArAL+V40MatLNkdoKXMDMxhZoXcdn6TWgZqOw2QCawQ1yAxivk0zdwM8qXIsY4ApUV187oInFYQuiAfgcPlbAyr+eIHc4DuxHnSWQwjbDwxJYgEMAe1jQsk8q63pxYfE0J+02oN+IGm8AZtcxhtgA0Os5bz1qux6I17JtOdtUW7AQWBXysAtUvaVgfbHUtIc/8OJrUdX5/YF2oEdd5w/UjIjhNq53A/v+BzWsdq36b+GsHN9UWCkrsFYj/hpg49pTdJ8fbbnryPhdQ0EbK0ZdXZ9V/vTHU1qYre0KoPjFFS2BNMIKyF7vD6LYbt3E7ncPtjcLUNMtfc0O9Dc7NsjenOxnb872tzdxg+zFtaH2KnU00A6zZ1ta29Olze0p3vcZfvcJ73N/Ad4UcG9P11AWEiN86r1prewxCd0TbownAPdkUpA9RRGfAPQTWQQU9h6f7T6q+hgFVjWWqree8foFyeAzznvEcar6Kp+GBZhE8qYWLKksMJeTGKojzD3V2U4LxBsDLWpZBJCu2Vb1sUCsvrLFwFmKCktFc1SkA1cm31/1sQVAqf6zamDIJ6SWXlXVuTkkeNn42uzhPk6B81TrwLqStzxsRPYw1Btgc7AHecOBXFYBYNW4kNTPx5IoplMGakgOHheVvc5SSdjlQXhbVN/Th7Yp0MoO+NhpKS0Kqx5eRwH+MDAfwSYcBdAvsQNf9mxqh1Fl93hRYNWsMnv6+9tOXm8CWKnsRqDcwPHrOXYDwLpuiIC8Cp/qaUQg2cLLLkJl1dK1kP2LerIN67AUQNUFcS77FwxQbQEAYw3moK4z+5OMDQyzlSTJ//63v29VqlZ7awu8kHrXnYd1w29lBwivHQiuUdPK1w2xh0f7WsaaCMtb0txK5gPPnFZ4y3b2aBYKODKE7Jpkhz/YKNJtSyd8YnMrC/3Ung0h8Tk10Sx1mr26NspexgLraaA92d9enxtkry8MtNcJxLUh9vrqcHt1vJu9WNPCns8Pt9dYgZcA+5CE7vaMUIpuvCOQPpjR2qnao2kt8ayAJyiVUGFPBPADVLV8IrBJRae1wDY0d+A+IJ7NbGlPsRHPZrKOvXgwnaKdJOuuU1beAzWVTRCU9+V1pwSYLW5tL0guy8bjVwHmJpZHvbhuqj8BN0mBvKr6EaiGgfdVR295edcIAECqV80QxKriAmJvI4OUNQcoc93SYxdysAX5qKosiLMhQ5o6YKXcquf1dhpPH6xeXz5Yg6aWio9OA85UXidrGwortVVjQyz24DwhcM8B5jmU8gywngTU4wrU9UtU9xgwC9YveS1g9wPoPmB1E3QA7O4B/rYFYFUfuwU13QSom1FWByyvV7MUsKriWqY62O6+rm+BqrYE7pIeGgcW5JIwQTuXRE3T1M/ViASswhxVcQnegeG2YkSEtQ/+V/fYK/fs4UqQVo4q9WrVdI0Fbk5Xki3ZgWl/+admsROs/ABWYFMH4G1tj0mmXq36zN5swqduEJwUocP5o0gEbvHDvlz0hT0dAAQhP7PnS7rZ65sL7HnmSHuVApDZ4+1NyiizRF5fGWYvLw60l9iBZxcG2DOWr6+PsJcHsAZLQuz1/JYoM16X5O4Jintvpie5ug+U94HxHsp+F8V9BJROaVFOAayivJztperfivIJwhIlVWqeVbIFuA+no8T4YMUDYH+gFjCiBAjvosbypw/wqk+mhNjT6cHcBGr1kiUItIKhzYDKz27iX2+iwHkU9Tmoq8aG5Y0FPo7TtkLVF1PkK6SsDjxAyxzYhGK9iWVRbGeTQOUBV/GIICsezjlctwhgiwG7iPVCJXv8psVa5/xCzi9imckyDSCTgVDDdTJ4nYoduAGcHqXFy6K0F/G7cSRg57EQSr6ktmeB+hSwnujZ2E6hlscBUQqrZzmoufYgx+1GvXcNCDA9Ht89raafr22Tp+0X5GaS2QKsW7APm9i2juUaXrsZYwj14FoiYHt5BisqlvXSvFxBQBzsZo9RC9js7v42D4A1lEbgzgDkmQOa2/JBETauT0P7wXdqWJ2a78wt+zWF1Ypmya6vCtta9ucAezy8qdmVcXZrbxt7sK2z3d3Yxp6igLYJv7qdRGsjGf2kAHsxpZXZ8u52mx//budmVtqxiT1s1cheD29rL2Mm2ov8KWb359ibJ7Pt9ZOZ9ubRDHtTNtHe5I83y0eBiybZm5uTjCzHXl/pay93trY3y1vZa0B9s6itvVjQGtVtbc/mtrFH+NcHM1pSbJPRE/cqFPUucN5B+W6ryJYfVbdAivgybMJtvKgGHqqZ9pa8p5IsgLzHfnnZ+xOD7T4qW4Y3vQO0D4FX9bSPuNbdsXwn/OhtwLs7nqRsPIkW0GQNbOzqYfPdSFuBi2qOwyaQcOWMRklVxYWNyBhFkY6PvTkm1IpJyorxuGqEKEJl8wexD6ByKJ7zAKUQP1oyDKVGoYtR5ZvAeovkrAzgFbeIBxPDLV+NEexPB9IUIFVHGc9IXSxB3yZ2Wa1feNh44gLQxigBA9QolmpEUJxCWU9TlJ9U8qU+tID7JTfAIY7bxTV2CFqUVo/Gl8J66mI1BZKvbQXULUAuhV0rYFHZlT18XE3BMsHq6mUJFHaptmEJBO1yTcah2gPswYwuPm4YjaAVsBphO6NfOMlYqC3CPv3dX30Xla3psQVKvlwfA4UH2iruiXZ1qjuVrV6nhn0KsPnT+tjL+DFWvJ1sfH1bK1vfzp6tbU2x38Fsl2oCOtsTwHg+Dt+5vK29moePHayqpA72ig/1hLvp5dXp9saWmhmgGqDaLLPXs+zN42lm99h3a6K9Lhlnb0rHmN0ZZ6/zUN0jvMc6lHMuSRTJ1guSrsezAAsfW46i3p3eEgDxn4B1T90HUbOb+MUybEm5VFb+FEW+oz4GKKZAvcvxt1HLO1PVnVB9XVFePKS6FCpJey41BdpHQPkYqJ9MCLBHwHd/jJ/dBcC7QHkXpS6XWgP8TQDOHNDIMkm2lDRlA69auHIFL4Dm4EkzR/laJudnsq4WMHlZdY4pRpELuaZqJ1wvMCnsIDzyQH/LA7rcvtwMQOeBFojxvEVYhtwhgD0UwAc2tJzBjVFqQAX4JFkBALuix5YCpaveQmU190EM14rxellAlC04S5wE2JN9fO0Y3vV4j6auf8EhQN7Pcfu5EfZzzh6O2426eoD1tY3dG9lmztuMddjMvg1YCVVxrQVYjUqQyq4CVFVvefoYCFhZhUA3k4xGJCzABy/sF2gzu/l6gAXWObIFfSKwBvjZgUG2YlQL8/3kT6wKDNarVx+r6ukD6w011VZxfREFrGjGP3z+nQ/t2c5xdvdoDyvcSBG7opWVLG9pD5a3sdfrOgJue3uxpK09HUXRORQw11P8r+lkrzDNr1Z1tdejI+zNJJT47gp7ZcsAdjqBlwXa18BrNtvs1WwH7qu7EwB3nCF9ZqUj8Ldf2Kt14fZyGddYgrqitI/mkGzhR+9MJSki8bqLOmrs1QN8rZTyNhCWoba3sQfqT1CCP72J971J8V8ylX3TAFWelW33SbSeKhmjCH8GNAbgbwDWgPrVZJJMVPUFxf0z4imv70l5OfYWIJYC2i2gVQ1CEQrq+r4SGfjQDPxoBuBmjPQhKKrVWMDxAjZLtoD9Glruag6A+Sbn3+LGuTU6wMpIwu7LwuBr87kJCvC+aqDIAdxcfGk2UGYRmYCUS0mmWot0tqcAl4B1IxgA9mLvxhbPORpKrlEKakCIRsHPsc9ZAiks3lf9C471BFbgO876l72UhDUh2SIR430PAORerqnnK3jm7/LDBjSx7UC+FVA3cu4mL7D4V3U7XI2yataYlSRaihXAuQxFXoEtUBdE12sLSyFgBaseszQfS6A62Tl9why4s9W3YHgr69bm36y6Zot5B9i3fQk0fLuOhtsCriZ0m/OPf20WOdFKdrSx/NUtrGBRS7u5gCJ0aSt7BazPUdkX64GWovoeHuvNmu72aj7edmpbe7OxB6qLOk5sZ6/OTrDnGePtNWqKMUVh53lU1gGsbajsk8n25j624C42oRyVje9hLzZFcAO0sFckevfnoZYzUUXVjwLl3Skt7f5UhcDFEqC06oh9S9ZgukYdqDN3iJVO09guguSonPVHrKs24RmZ/2vgFaCvsQCvJwfZa6B+DbSvWH86ztdeAavWXwL8/YkCy9c0XEZVXLfwwzcn+FsxapzDDXudojcFgFIpvpPxn4moYBJxg6QpHZDTUMd0Ils1CUCcB6xFgFwmq8HNUM573RrnY7f5LFLSYs4pBeASVLkYT1s0BHUFwHQlWYCS1qsx4GIHACxdVVoAeg24rpEwJQDbJYC+AMzxJH0XtY7V0HwHUSjvOY6Twh7Hwx7lWhq0qGTLBdc8zA0hpfVUealhQVVdvm5eg11AqEmTNTPiZgDfDLya6kjVWpqAYzV2wNMhxtPHYBkwq15WAxY1IkEdYhb1CyDh8rc52IQZqOwc9gnUeViCeRqs2C/C5g9sYaN6fmzf/bCG1aT4fy+wmohYHrYWG/8YYA+FNDK7PMFubmtjRWvbWvGydlZGxv5oKcX1tk5mB7vZqx0dzbZ3xQeiDvxZT0c3N5vfzWxlF3uJ/3s+JNxeTf/cnu/qY8+SJhgnA+hiQBWwU+3Nmyn25hXLZyyf4F8fTbbXD/C1Sf3tza7WqCyZ/yKKfbL0u3NQedSuDFXVkBUNXXmA2t6nOC8HrLsU+87Psl/1qXcBUC1hd7AEZZOCHBQq8l+ShL2aBLAkUq+nBNmLcX7cWPhwtr2QH1dM9LNXAPkSIF9gIR5NVW8tH+eNPf1hNcoAiEbhHwFV3QDVOcXNOwBcVwH16uAmZOsaeYDioq6pw0mUNLZraBMHraZCKuez3OM73eaGuDPJz9106gReCLQ3UeWbKHWx6zlG8PvmAF8mipoBdDd6NbKr3T61RKDVPAjXgVVjwxIAW1Vacf1RWuzCBbV6sU+NCNH9fV0PLlVtHeve0NOQoBoCKSz+9RggHwVUJV8aSqO+BvsBdr+WQLYTALfzWgnYVvzrZpabevhiEQJcR+91xNtxX867+jpb4GaLwc+6iTfUEYb9AnZWdz+bCeSzUFtNwDGbm2emenH1a24zsUJ//affsapVq+NjNWeBcizB+rY/rCj2DDLUpG7XhuBJL4ywvM2trGhdaytc1spKAfb+YiDc2t5sX2cPuIf62uv1XezxgEB7PA2ANw0wW4g1GBwCtNiHU+PtTfoce5aMit6eb/ZmYYUlwMO+QV1fEc+B9skke/Vwgr16gDVI7Wdv9ra0NwD7YBEedCYJFOCUAeZt9wdzg6CUD1DEByzvAdtd4p7WiTtAd5u4B6z31ASLJ72HJ33Itqeo8Sugfsk1FE+B7zlF8QugFswvOe41sJqWeo0y3+d93WBD/OhNivMCim3Vk6oFKg0QU4HqyoAGdo1sPYlkKoGkTPWh1wnNHqNWraQhjezGoIYuo1d9bQFQClDVYhShsq6eF8ugUQxqCi5mqdoCByo3haq1MlyVVlNX16tJPa6oq2G3RnYFcK4JVor/y/2IASRexCW2xRPnsQKRFPWuEQEPehY41e1QtQUnAf4E3lYTcmiYuAMY5ZS67gfevRy3l+M16dx2wiVcgLilGyrbDT/brZmDVk8W14NA1gDmSl6rn8FyYhnr6sG1GIDVv2ARsVC1Axw3l5jR1ddm98TD9gqxmUrGUORpfcNswYgI++TffsfT5bCO+sh62gnkAByw6t3tnvZSo6Y1A9hbywfak8gBlrepleVhCXIWhlvuHP64uf72fG07e7O5kz3EHjzSEJaZ2ILBJCpT2mALOtijoQH2cmF3e42leFO22F4+mGfPS4H02RJABVolYMBqr2YYZS7bgRd1ffMQW/CQZWI/e7Eh2F4txXPOQU2no5pSTHVKIe4C7SNgfUxo+YA//SHb1KHlQcW+e6jjPYpuVVfdZf994HyEqj7D674C0FcAKp/6hGL5MeBIfZ/y+jnHun341OeA/oDr3BorUCmaR5LJA2cuoGYRqvBPJ1JYTxzU2C71+dQSBjS2K6jrlYHqkALEvE5CadUVMJEkLZ31XIAtIklU0pWLNcjlRtDcB+qXUIgFELB52ALXsKB1YM0lsljXYMoUrplMQnUdCF3NgLxrz095r2auC6KqtBJkB9gfh11QLYHqYs9w3DkgjMIeuC6HAHqOcPCy/xhxAIAFqjrFqJ+BenJt7fyp6xCjaT23ycsC1VaSK8Vm+deuTW2dHoXvZorx+NgVnK9YDqyugzdwLlLrF1Au6AmsHDcPG6Hky3XsBlpNJjcLyzAdPytgw5r+lWumre86dUtha3h6b+ECABZ1rVfHPqxS3dp9UM+e7Bhm5V92tbwNLS1nRYQbCpMzP8JyZ7S07BHBmH6SB1UJzWlrj0YDwXR87RgSpcFB9mhCC7PrC+1F2SJ7+XCe2dOFwIkVQF3tDcnWG4B9iS14jLrelXedZJTxBMtiErCoHrBN4jMHJZ0BcIIUv6mOLhopcJ/i/6FgY9tjAFU84PUDVPExkD4dTwhEPOcDkprH44ERKJ9zzEtev6JoF5TPsAKPAfMuKvsIsJ8QSrJecl1XW8B17o0LsBKgKqYIv8mycIRan5q4VqhMlqlk6zcGNrIUqd/wALvctyGgNLTrwHUVSBMA7KqApTi/AUTqD5CLugrYPHxqmqBXAwLruQ7OZtgFf3dDZKmli22a90udw9VkK5VVF0QNUtS8BzdkRVDgBM1tALQJKOsV3s/Vw8oSAOt5FFT9Ys96ge3v5zrCaLyXJk0WtCdQ4UN9GuNVCY7Z18PHdnZpbDuIXd3VXOuDFfC0cG0EQj3wY2P3ZraB49TlUFMbrQNAp7DsW+5qBzxjv9ygRSBVg8JizRSjhgMpLMuZKKyeTDO7hzrGyM9iFfqG27whYfZFi3+xGprxsPaHrkrLk2N5OnNX0cjYagD7PSR4yB//vr05Oc5uH/jcCje1toK1bSx3aUtLJlFJ4MfW2PonszuY7exrL5a2cb34bVNvIArHt1Lczu1kry/jS8vn2psXC+yFobIGrDbHwWqvAPY54D6YZm9Kx9mrwtH2Om+kvc4eYW+uDbTn21vYk+lNOAwVnRVuj2Y2h+UgmFY7P+AqyNrVN+AhwD0EKq0/Yl2QPRtHwoR6vRmHko7n84yhaAfeN2w3/K9VKKwUVb23buEXb1Ekq9pKyvwEaO+jqndIjsrYV6qsnu8tdc3Dh+bhKQVr+qBGlipYiWQpH+Bcd0VxowqVa4KHpNjGT14BiGuo3Q3WMzhW/QQEeArFfhrKqgGJ6UObWRY3hlrOstUyBvA5WqrRgWu70QtYiowhno4v13mfG+xPxDOrWTa+x6cW0+3n7r0vA/NFqSsgRwOiEi5BG4mynlNtgaK/j50GWMF6lDhC7OcYdere2bmR7QHIfajjbryrenBt7tHENghYLIMmj9sIrOpLoCfTaHTtWgCUh3U+Fkhd762KKi71l3WNCcRiwJzPflkCedhpQDunp56ZIJX1t+nYgzn9Q6zf5/+Jf61qtWtoDi515lYX2Apg6yO11dn42wA755//2t7ETLDbe9pb4dZ2lr26nSWSwFwiebiCR8tArTQNkKq3HqKAj1FaW/cFRXgbe4wSvJzcxt7sGWiWjCW4P9tev1pAsoXSoq5vns201/en28vbk81uTUFR1YAwxt5kAuuNwahrF7u1oBm+0w/lpCgno5dXLUc5Vdl/W+Ov1M6viv+xWAANbxmH4o7GFozCp6KgT4D2lYM2ADhD7A2vXwL4ayB+RSb+BgV9DrD3VV1FcXyL424C5y2K/fskYQ/Hs2S9jG0FI5q6KqgCtfEDbRZwZABSCkV+MkAmA00qACYB7dV+n9hVB6hmcmnglFYRj1W43Ad70F8zwnCs6k4HeYa9JKOeGgKezA2QxY2h2gTX0VuNEwJVYMu3OlhJ4rADacCXiGoKUl1Hw8LdBMpsv9TtE4vr+gsSMG4QtutmkcqqmVbWQA0JsQB9DpjPEKeAVL71CCBqaqNdeOIdXTyw7gUejUDQPFw7AHYrx2xFfbcQm/DCmwB2M9Bpqs633Q5RSO9sMep2uJqlLIFiKbEY2Bf38QNYBUqLp52OH56JnXBeVoMV+wDvgHAb0eVj+/6HNa1mrY/cyG21dNVysxJhCfS4zRqs/C6eYVOT/zK7MsXK9nWw/E1t7Tre9TKJSBJgJk4lSHCyyLDvzWnuei49mdPGbC0J17rP7TmZ+2MSLpvb1Z5v625PTvS2J1H97VlUX3sV089eRaLKp3vZ6zN97MW5fvY8qp+9jidRu0zE9bZH64Lt4ewA1yyqMVl3pgEqRbUSlNtAqvkDNDLgPsX6XQC9T9H6aCw+FpV6yB//iCz+KWC+UB0rn+0558q3PgLK+6N87MEYX4p+juX73McS3MVG3EVdH3HOPbLyuwB6d2RTu00ypXrXQhQ2h6I5X8DiMzMqbIAUNQlgk4DzOomO1O5KvwYkPQ0crLG9PrYLgBoPsBd6sySucNzVfurLKt+rSTMUmiDO44NVh5upulz8q+p25VfT8MMZ2AI3IqFi2w2KfNmMK9w8Cey/ys1zGTCvSsEBMLEXn6UHNwjFuyBOQEkvoJxugGI/PztPqDPMcRTzSLeGdqRHQzvYvaHtJ3Z3b2R7Sa5kCdzEcVJYEjAHLSFbsBVYt+B73aOUUFNVbaljt2v1AsJ1fTVLjBIwP9cC5iwBoZ5ci7mmgFWnmHn4XwGrGoPpXX1slvOxHmBn9wu1yXz2H/12Xateo559ULcmwNb7Clh1fqmF3P4hwB5p2RQPOtFu7ulgGSvC7fpMiqCZoZYyq7klzgy3K0Ake5BDgqK28mfLu9hLgH29tr29WdbByoeqHR7LsLW3vdrXw14d62svowdhE4bbm4RR9uYSy4tDgBZgv8SvHupiz/d9bg/Xqr8rkM2JsKfT1dGlpd2aHuEmwygFWHWgfjQBfwms91XRTjwG1oejUFeK1ycA+5rXr9mvpOkpqvwQf/oAiB+jxPfwivcocj0tWCzHe9T0CevPgPYxx95jWTq8qd3iWNWJZg3FrwpWbgiNGFC1VBoAJ2EHrqN2UswrfRo6GOVfBWZc708crFrG9/3UrV9g/SL7EzhOw12SUFcprKbfTATEG4CXwnVvcEMI3hRglDdWpPI6lddpWIZkbpZrJHiC9TLHXpayc7Mk8jmSUdBM4NTEdEncGJfxtBdlE7p/alHdPrVIwDxHEnWG8E5ppJlhTgLyceIw1uEAwO/rwRKw9PQa1cPK03oHKO4A5m0o7XYgFrCuhsD5WF/Xc0udYLzQSmG1rpm8HbSyBiixlHYRxy0g5mEV5nT31BbMJPma0ZPAMsxEaacNamZ//icfWtXqtSoeBaonLKq2QN0LNTyGUB+C0x39za6OsdytbezGgiBLmxdmaXMjLIniX3FlRrBdnxHqps5MwoMVzGxpj1d3sJdr2put+RxYW1vpYOBZ183scD97c6yPvTkzwN5EDqTIH2CvUdnX53rZq+ieLHubnehnL9a1tyd4VnXKLsVHFrtZVcikJ4ZZPgpZjLrKEjwCWpdM4UsfjuXGGIMiY0MeAezLMSj7uDB8KkU+N9MTzn8EaI9R4edsu0/xeh8QBeZTwHzqQCVQ3ofDmziQb7Nd9uAOgKv5NQNAUwFECU8mwCYNbOBgvTaggSWgpFdQMcXF3g0srtenKOsnFtvzFxbT4+cWwzK6+8/sPMuoiqXUVgMHb6CuThWJG/hSgZo4mJuASOMzpvC+SYMaklg1dDDLMiSzTdtVvyt/fIXzZDNuoKwaLJmpQJVuSMmBOIF9l4nY3o08loA4j4eNqqjW0sBEJV7HAfUYCny4d2M8ayPbD7Aa83UAMPejpvscsPjYCnugzt1S2s3qAAN0sgQbKyyBVFWJl2Bd31dPpgl2c3OpmsvVyzpoPYMUFxELZAVQV3WGmY2HnU5SNh3FnQa8U7Avf/uX37Eq1ao7hdVU87VdbQHAul5aterajwE2unMAxfRYS1+Foi4Is+QFzS1pTrglTA2yq1OD7QqW4Brq5R5jCQxX+XPzZre0Rys/t1frOpmt7mj32P5kQlt7ubqzvdqIv93e3bhlzb7sadzaBLCe7GF2ure92NbBHs0LtdfzW9mLeS3sMSquqqtiimT1LdXTWjRfqzq3PAHeZxTz94HxHkX0Q4rP57zXy9HAi7o+Akznb9kvoKWu9zlOtQEvpoe7PgLOKgDnc/zrc7zqc5KpJ9iBe7wuA+CSEc1c76wCtmWitqkUuVmooZKhpP6fUtRSvAPrZeC7DKSXgfUSHjW2B6B2B9TOP7Xznf4LaIClx8d2ttN/2ulOP7OTXX9up3p8AjBqPgV0ErRrhHzvtf7AP4Asf9CnljqymaWMAMShDUiuuEkGSFlRXRK+lGGADLwJ3EQJqKtUPo33ySLSgT+NzylfK1il6PF9G7nmWfXYigTok0B5qncT1ydW9bDHezWxL3s1di1dbpwX0B2Un0WF93TFy7JdEyHvxEJsZ32HgnXFVo4VtOpyuBGQ1RlmM2q6QbUFPf3co/A9sx6yLlBRYtXLamojp7KsLyBmd21qs7qx7BGMygIt1mBq9wCbNSDQ/v1//ZabZMMzK4ynxUvTZwEsHqEC2NhuZNDnR1jKMmBd0sJSFrWwa1iCBGC9BEiXyKwv4O1iyZavAkkiYCQBSDZA3Frazu6vaEsiE0pR3cb15H+xVA0KPezNlk72emdHe7P/C3t9sAsAd7cXWztY2RxUcE6YvZgFUK5mADBnqzuhRsaShLjueI2tFIXUyNfnJF33ec+HJFsPXLKFVQDYcsCVv9V73pWiSn3xpg9QzXuo6Es8sRoIZBeeAaeUVcC+HOuH78W/jm5i5Sxvj24KsD5WqPcGECVYaSQxqlJKQe2uKaFCLS/2pJgHyHjCC2x0l59abOefWXSnn1o0gJ4D3HN63bOhnaGIPt7tF3aq+ycWDbjxgO4q+vt8Ygm9PwZeQUyRP4AinriBkqfw3TUsJsXZhsaWim1IxMdeBVhZgxsAn85ny3Z9YhtTAijZwt8SajyI4aaK4eaI7NPIzgLsCWA93rORg1VxDFiPEIdR3IOo5iH8pZR1H8fs6dkYRW1iu9i+nf2CdLsXXJYa/i1ot6K8eiDz5r6+toWky80vC5SeB3wIWPWZBVQSuaVAu4QkawnLxYRGJszu3MRmycN2xw50C7AZqOs0lnMHBdt//cPvVQCrmoJKwNZ00x3WdaMMLvQAhDODLBlg05a1stRFLQE2xC6irHEUybFAEAmskRTFCePDLRFfmaSYGGwpU0Itc1aYqyMsHd7GHs/uaLfY93wJkK7vgtp2sOcb29vzzR3t2er29nRJK3s8v7m9WNjKns9tYY9mhNmj6RqnpZ5XwVaCGhaNCLSCIX5WjHqUsSxDQUqIMjLs8lFYBWAtpei/ScKi3k+lwHwLkO8SD+RhUdgnqPVzwH1OMvYEUF8A7EviBSoqa/BwdDOOQ2WJslHNeM8mlo/SplJEJ6OAqfzpKRTFKr5VjF+g6I8D2PjuFPOAGs/rSyhaFMBGfvEzQCU6/9xOf/FT4mdYgk8dsMe6/dyOd/m5ne32sYNWc8MmyAOz7zrWIonf7QawJQOuagXU8TuV4j0VcBNZJgtMJWrsu64EjM+Spc4xfC41KCQSqou9xPISy/PcSOeA9iwqe5rrHwdYVWPpAR+n+vl4Rh6gugcBUsW/nj6jWbt3s203x+5ifScAS2EF6U6gFLCeUD9ZICU2sb6JfWqu3Yx6uieHYwXWorRrgXq1ApVd0cMPcFXN5Qu0vraou6/NAdh5akDo5m8zu/lV+Fm87YAA+4+/+x2A1WzdniEzlRS2ltWuWccBe7FXmN3FV6YsDyfpao2PjbCr04Msnqz6PEBEAscJfrjIUSEWC7AXgPjSOCwCqpY2UXMVNLfkkaF2ubOPm82ldFYbSwei0vkabNjeHq9ob/cWtLL76jao4TCL2wJuW15HeEYLTGruqq40CZsbikKxr2HWNzU36wiAHBpg5UOCyOSDrBCIc0hc1BqkSStyOVbHFwOz+pDeJcl64GANJBnDFghUVXFhCd7wmd84oH2tHN94FxDKuFYpN2LB0MaWg7qms1Rmrp5RGm6t5targBDfuyGKCnCCtufHFtPtZ7z+uZ0HyLOf/4w8QKASwHkacM91/cROd//YTnLOaRT2DMCeY6nHj14lbqB+qiJLp7hXg0HWEHwzN4ta1dSFMR1gkynmb/A5NPQ7UQADpfxqJgqrTt03OF83k6qy4hXsj2VbJDfSGYA9BbDyqscBVk2xR4FSk8Qd5vVB1PYAQArWPXjcXWzfiV3YDZheYAXpNva7JYBvB1RNz7mVELAaPqOniG+Wv3Wv/bAJ3pG2JGOsr3I9ugIqmm3xsoA6r1NTWwDEs4F1Lh5W9kD9DOYNDKyksHqQh6dZVrlWFVddULu6swRxnUPtAZl91rLmlru8paUuwA5MD7ALEwMtimL28CBfOzIkwE6PCbWzFMMxwBiHmiWwL3l8mGVNbmEZY8P5YwPwUU2tZPZnlsG+3InhVga0Ggn7bInUta3dm9vcyuVZsRPqt6px/mWaFRuvqqncNVBPY5zUxl5K0V+K2t4ZpmQKrzomzPWFLRodaDlDKL41kpTPljqQP3wASjkyEOuAZ1UrF8uXitF+9krwcu3nXPfJcB+7j2e8h8rq2NKKDielqLUmf9NAQvcsAwDRBBfyk1f48wVaDBm4VPYCPjZGdoA4B7hnUFnZgLN42ZOsn+iC2nZThk5o2a0BGTvn9tOcAg1dlZgmO3ZVZarG4jNlAGsWSVcurzVlUgZ+NVkJmGwCcCZz46Ry46ShyBqYmMb5qo9VQneB68XzWs9KOM8xmmfrdC/ZgMZ2khvjGKAeRT2/JDRHwZcVwO4jCdvN693A6ZIswNspQIFQkKoeVn1iN6lrIdudmsoW9NVURiisXqPQGv+lUbUaXbuhJ/aA9XWEOnqvYt8yvK4UVs21C53CeoBdTOK1EGWdL1iBduFAP/vPv5OHRWHratrXmla7Atoqtd2L6q6W4Fw7kpTj/S1nWQTR3NIWhtqVGUEAG2SnAOMIUBwbEWzHULXTqFHMaJQWmC4BbxJZuiYwvgZgqRNaW2xfzdEfYAWT21v6yGArmNrSyma3socaQbC0vT1AYe/ObG53Z7RwfV018ZpGChQArOsQPUKV+oF2iwSvlPU7qOw93q8cj6zO0OrNn4cK56hpk5skm5soh5unEFjVLa+MeDAswJ4SL8nMX3Gtp4D6EAV7hJo9Y/05EKtq6wG+vBy1LSG5uTlcjQWa0ELNqVJYlFbFNSp3VcCqRqACVnnROIrdaJT2LMCew6cK5mgU9QwQn2IZ2aORReEJo1GtaJaxJEFxamRw1VzcDIRayZSIJQ/xAV41TjRBZZt6RhigtMkkZbIo8rOpwKjpODO4ifS50jhHJYCAvUTEcm6cA7apRQ/0ca1cJ3sDLe8rWyBgj/BZFAeBeT8+VsoqYHd5YVWxD5hbAdTbaKC+sOrAvYHzNrLcBKBbAFazdruRtZy3kWPcyFqnrp5pjdwwcCBdAdRLSdTkZRd197G5XZpUAOpjC7ECC4FWNQcL8b7zEZ1/+fF3rWrVmvZBBbB1UFp1N6wib1CTDX8EsEdbNLUnxwdazvIwy10BsIvCADbEolGc4/197BTgHBvuZ8cBIGpEiMUQF0aF2iVAugY0SXpwMTAnjYuw66Oa2/FODbEZmpE6wjLHNbfSma3t/pw29mgesUCzaLe3u7wum9HSPcklBwBzgT6HmyDfTXnpmTPrpp57wHsopLwZeNN0AE8DNLXHZ/E6j2JeAwNL2X8XuO+ixg8oDZ5zg71k+QzlLKeYvz+0iT3neKmtWsSeAepD7MNDvqNqH0p1LZQ2w9W9VvhIIg2QBNM1ilzVu14CXlVVxQDreXxsJIBG4Udje6rxoIFFyUMSUShyNBGJlYimaI7mvPOcf0FVUIIU8JJRzuuoqDyqQn5VRX2ummwBNh1YM7mZMvjtU4BSwGbh6TOxRRomo4TrLbDsiyGiucFiEBg9oE4Kq5atk309o2aPAONhwJOH3Q/Au1kXtA5UIN3B+g5UV8O81f9VnbY3s20jaryB2MR2NdPKuwrc9Zyn2MDr9bzWPAbysOoQs8LVEEhdSba6NXWxqFszm09IXeehtPNR1bmAq04xC3oH2ixsy9/8WX2rUk2PK9Ds3LWtdq16HoVVK0J1KNZTDXcG/tyenxpi2csoxldEWPriCLs0JcjOcBefHuhvp/jBTlBsHefHOjOYBEwPQRuGx5VvHR1qN8Y2t2sqnlG9bDzt1UH+dqI1iQmZX+qICMubgFed2cruzWppdzXNkObVmgmsUyOsGJXNJUnTc6/0yKDCUagtgBZoomCgzWGbZv3LQsHVpKknaaeoKZOQdVBvfsF2D3V8htI+xYo8VfGvJlslXONV3eXv4HwG6C85Vgr7iGTrvlq6ALeMpSY0VkfrDBIvVdinDSQJInNXjUUqwEoVPVl9U2wP0AKlMvJooI1GdeN6qkpJw1OAlGJfPtKBy+toYI+R+lFUx3KuoNejkqTmN8erk0tF5xpZAdRd6wI2Azsga6CpjFI4XzbAjcgFWAHsUWiA5fN5gZXC6uF0Ueo3oGotKS0gHANc9YN10xaxzQ0+BMpdUlivXwXO7UC5leRsswBln5R1A+du4gbYwL71HCNAN3COYi3neUJ1skq2BCuJFtbAPRMBG7DE+VcpqqyAjwPWzRBDzOP4OSRj6s01lZvoj/+wnlWpXhdgiVp13HwFFZbA4w00U+Hq//p7e3F2hKWsCLH0ReGWMifC4sjWzwLFueHBdnqoH0t/APazs7p78RqxQwItfniIiysorgNWY+n1uPZxoSgQ/qntL+xqr2ArnNDOiqe3tBJNOqwHyk0D1skRbx8JXwCwephbDoqagUKqd5geIZRJwpXDjZFLeB7aFuS2a4brTJIyzb4i+3CbeADUj7QEyKfA+ox4hPJqWMxToH0yRtD62GNU1C1R2Ueo7W0gLsTTZqNkaUq6ADmdYzIFDZAqMgAlBXg9VU14WlQsHiBj+wItUKppVj2mLrEvBsWM5thzwB3NubGcEzOIhGioDz6zKQFk3AyJQCwY1d9W47ayOSZniJKpxp7WNt5fAw8z8dCZ2Bs3YRwwpvI6jaJTAKsjuaqzLnLdaN0YUnJuiiiOi+K4M7x2vbQAT9VbJ4BQSZjr+ALE+1juZPs2/isB66qxKoDdynJ7Pz/ApbgH7o0utO5R2HUcv45961BWzVOwDkugpaBVRxi1dLlWLl6riVbgCtb53ZthB1BZAJ0P1PN6oqwkX3N4PQZr9bs/qGU1q2s0jGoI6pFneR7eUUWTFotgTVw882/+zF4cH2HpayOwA+F2bVqwxeDxYsjao1C5c/xg54b427nBfqirp7i5ALAXhwVbvB6nPhQ/i2JcR1mzxoRb2pgQSwKw2C6N7WzrT8iIg614ciu7OaW5FZGIleJr9XDiW9NaWQngluCD9aSWotFhlsZ7qLNyuv4kbpIMwMwGVMHqDQ+8nukuSwD1Hp/xEZA/ZvsjLMBTdY5RPwTVGIwDYuC8O9oXP+xj5airqrLkXx+hxGUAU8BrTeqWyfFZAK5xWRpYWMB75FG6SPnSpbgAlQxYKsYT8KOX2aap3S8DZwKJWgKl0AVgi8ErRwNoDEp9nuNjeX0B5bzIMfFc4wqvk3mt2oCsClAdrACcQyJVoKlA+S75lHD5nJPH62TsRSogqsZA1kF2Qi1gqiGI4waJ5KZRA8U5jjuHgp8F4LP9mqD2iA4AuqHeWIETeNqjKO9hlvuJXUC7heTQW40lYLdwrLyrJoVzyRbbFAJVvlU2QLBKVT2gkmRVAKulq87CCijZWs4xHnCVcFH8yxagtvPZP4/tc1RL0D3A5nLOsE7/Zd//UMO9a7vJXfRc4zq1q3mB1WM561hdgB30o9+xlwdGWv7Wtpa2mIRrqr9dnBhocROCLJqi+DQ/0FmA1FOmz/IDaHCboNUTqPXM/4uocDzrl7hrUwE4DXjSAClpQIBFf9bQolr9wgrws7cntrAiYC5Fhe9MaWXlQFs+uYWDtRRrUToexR2L70XJNUVlKhZDkY5yClA9tM373ABNFKyHYpTzXk9GhtgLYH9JvCAJe4gfLudmK0Nt1WlGfWTvoLC3gbFsXICVK+Ea4+fsQClRAMxu/lcUOQc1zsNXa94BeWM3wwsgaoaWHBXTQwCHBC5tOB6SZRJKeB3/fo0bJQGLchF1juE4TaUfDZTRQBhD0R4HpBexLRc5/gr7k6Wqw9QjTPMXeMBNH9DAMoEqi4Qoq09Dy2O7ujhmo9SZFPdZXPMGx+lc+WpVuamxQA+kk+1Q61YUMArYc/1QVxRWIw/OEuqpdZqS4QTLY7w+xHECdjf/2XaK/S09Gns6ubAuO7AVZdbQbnnYrf1RWqB39a5KtgivFZCiqjbAq64KNRqsophfBcganOgFVv51Hgq7EDgXcNw81HkO22f3JuHq728DPvuJ1RegteFSSRf+tZ6bSr6OValZt6Z9VKMu8lvT2tWra/c3DLLinZ8BbIilzg23q9NDATbQzvMnnOYHiwLMcwAYyYXljyoD66zBUKDlrrsxSE8A1BMB8ZtDA+0Kd1B0y08svbMvwGAD8JilKGrZ+Ai7BbilE1if2Jx1qW8LyyEyx4ZZEjdKEp40DfV0TxhEcbJYl8LqaSyavqeU6z8eFmJPeb/7KPJdksL7HKdHGKlfwC3U6AGAP+F1Oa9v41PVP+E+N6L616r/6+3xniErUlglcHkTg7EpoVbAuh6TlKvtKK+GahfgOfNGNMFTAxtqnTYcYEnoErn2NW6sBI6JZ/t5VDYWZY5BHaNRY1kCBysRD6BXgDCVpFHza+UDrVdhc1kvQFU1iYYm3kjp14ASR7UW6txNQsgxqsFwHcGB19UR8x1lM1zCBYTOEhCRvD4HoGpA0PI0inuKJPI4N8Jbhe3fzKOwPRp6GgkQo63Yhy0U/zuAdAf/9RYgVcgWbAJUD7AkWQosg9cSeGHVJBvqX+B5QnhFd0OA1YM71Mo1H5UVsPNR3rmo9mzOnYUqz8dmdgz+e6tetRqw1kNha1j9mvWsfq0KYFWtVa9WXauGT/CpUpU/qoPd2v6ZFaxqbjmLm7veWddQmniKNfWn1BOnY/kCMQP83fP9Ba1C0MaTiF1Gfa/zATIAOAuPqWQpC6twHfm/+nkzu9iqgRUMCKUID0NVKGpRpVIUsWxCuJVNam6l2IX8yZ6ngCcDtWC9QrGayB+fNMzfErluElYhdShWATg1098tkov7bNds25qEohhVVotXqYp6/Ol9eViudUeNCvjxO6oxoKhXy5b6ETzmve7wHQvHcz0UNhc1zud1AVAXCViO1QDEUtZ1TQ1ILOQGLsBOaKbCbDXlYh9ucN4Vtl8B2Msj/OwCKnqR17Esz+NJLwDpRQC9CHQJwHodqJNQ6GQUWsNg1EFcVVkafVA4oqkVsS8X2JN6NsAKqArL1w1oTBnW2G5wgySxT51gNO2mOm+rwSAOQGOBT6MNYlStheKqpSsSZYwENoVGG3zVeRuFFazdP0VhGzlwd/N/bsNWbOW8HVJel3ypvwA2AYC3kWxvBtINbFvP51ICtqqHwmMNZBPWc6zXJsgaaLKN5UDsJo5jfRHrCwFY88jOAdppKP70nsE2f3CQNfvZ75vmJvBMpKHOL1iDOvhZJV3qXqiVqiRf/5uD4jrz5+7pZkWrW1jekjDLmIkP5Y+7wh9wiR8sDhMf1x9V5YOf48u43uwspbQXATZB6sodmo3qebJ6/Cb24BrFytVunNeukSV2aGqFA8n+SaKygasIv3trHAG0xZMiLH8KwKJuqSRtiiSswHUgu8axiXjm64P8UBbgwgIUYgXuobz3R6GeLG8B5s2xIdgLACUZe4yqvkAhXe8u9j/k8ygpezY+xJ5PCwfWYNcvthRwC8f6uaq1PKAsmqApOUPdpG/qk3tvikoDvDLHaciMZj5Ua1wh3jgXldbEGSnYjCRgvYHyXeMGu0bpIntwCTgTgD6BmyEeGC8B5TW2JQJkCtBqZK3mL8jnZlPXxiLO0fsUkPwVcIOlo4LJFNFpfO9k1PUGwOpcTf6mXlnq8CIP62YvREn1AA89VcYBi6KeUbUa/8t5VFDP9FICdhooXasXAO8j4dqOf1Ur115UeQ/vtxOAtnOt7YC7neO2crwswUbVGAC1qrfWc946bIvWNanGim5NsQFNbQ0WYT3XFbjOGrBPwHrGezVz8xaof6zsgKYvmsfraXyHmSTm84aE2H/80w8dsPXreZpj69bWI2QrhnlriIzGdWleedXFbmn8H/bqwEArXNPccpcA28xgu86fIsW4yI8Xx48WzRfQE6bdWHc+rO5ejReKZlscHzgJ9U0fgsck09dD0zJUe8AdGU8xENeFa7RuiD8LseIRenYW0Ao8wYYNKEZlcyeGWTaRiUUQsE5pgUyRCqBS12yuXch11WSrfgVlKGoJ+zWVu8ZNleBtH7L9NTfCmwmh9nJsqD3lPZ6w/TlAGde3ac3tGVCWA9wtQk+XKQVk93gjoCkUyBO9Q8k1xBzFRoX1cLlb4ygZWOqJigWCFlhzsBg5gJ7J+akAmMFNkyKbgKpeBdjLKPFF4LzOtmRVywGt6pHdIz6BWBPBqV9EAVC7GgNU2Y12GIR96PaxJQGSnuuVzP7rHH+5wrtKXd0zvVjXEJlYwLsgq0ZRH4vAaGK4aCA7D/QxwCo/e5rXmhjuCHDv6d7A9gDiHgDcyz7FHs5x0HKtbRwrYDcITo5TTYEXWFcvi0DJGngtgSaJk0VQrOb1KgGLJXDPRWCbF1g3w2Eff1uAvZgNH/P7BdgM1PvP/+hDq1atmgNWj40VtG+HyAhWR3Gt+q6mYOqP/9TswDArWd/ScpeiHLMDLVF9BvgD45Tx8sN4ZsXTqEtP/0pNmusmzu3e2GL4sIn9A+0G1sDBClyyB4l9/VFvfshu2Ij2/JBtG1rOAM01FYqH8wxuLADcooktrWByK8scj7pPjLB0VFfAOnABIB0lzQK8fOxGMTfFbVT6NklXMRDqCS960ov++FvYDQ2OfIU/fghkj4DqMX74Ger5EsVUN8OXbNPoWXUtLAXYEr5jMcVyKcC7R3QKzgm8B8pbNsbHM0oBP68Ruvcm+QGwrALJGu+by/sWTeLzcwPko+p6pkE2N4xsyzWS1csAJosga3WdfalAK/+qXljq86rRBVJYTQTnPDLb1XCQLR+rJKtfQ7tKka3fNAmVddVnAzVphqfBQNCqmk2jZ2UJFPFAqyfMaD0OAC8AmkYf6EkzrqqLkvJIz0Z2EPDcjC/Apyouedp9xG7swi6WO4B1E2DLv0plN/Fa0G5CqDzVXCgq13V+lv/Z0ze2onqLcAoLnKuA0wvsErYv5vUizlnYz99NXbR4gI+N6vaJfVS/utWqVfNbgK1Tw+MR8LG1q1WxzvU/skerBtjN7W2sYDHKMSfCkiYGWjxJh6pnornb9WhIPQdKzzQ9hf/Q5GKn+EAnujS2WO6ihH4kWXzw6wMDLUXP4aIYTx7ANQA2viPFY88QO9P2E4tq9Yklk4zlDEJNB4eSWKCc/Ml6ckym+iVMakExK1sgeJtbBss8lLKQ0BNeioYA51CUEMD0lG1NCaSREIWUBmUUyU85/jHn3wGyO8B5j+3Px6K6qOgzAH2GEj4ZE+K6K2rSt5skNXcAT8PE709BeacEAawsQFOK6GZunoKHmhdhEr54UoA9mKqnzGhYNl6T30ePsneTGHMtjQHTuCwlnRncKBm8x3WStqvAmIJtSMf/eqeXzxrRDGA9CZd73JLsBueo5kB9cbP43OrBdbVXQzfEWyMVrnHsVTysHu+p3lkJKKsetHwJyGKB6zxw6xH2F4BAKus6cqOWsYAVo0k1UNovuzeyQ4S6GB4gZA32SHG5xm7eZzfn7aZE3c7xm9i3BVA3C1b++80wIB+7kaUaEjZoWZF8eaD1NCas7oVFYNtKGJGH9VoCAbuIpR7csQDwF/QNsMXkOp1a/oPVgEOPfyVgU5ZVsHqAdQ/y0o46VrN2VWtA4pUxtI3dO9jRbi4Psdx5LSxxKj4MlTnPj3qWH+esuqjxYU5UTCh2oqevHVcAZCwZ4QWk/SIf4BLgXh0YxA8MsIOC7BoZYnwHfmSyxKt9AlBaEoJWn1pcJx88boilDgwjUQt2HWYy8LLpAJs8RsoaYulj9eijCJKgCKAI97SEcWz28EBLR2GzsAb5WIRCFFvKe2sQmT9qVDxE86tqBCowKDnDSjxE9R9xzr0R+FP2K+4Q5aiyag3ujyeAsnxigN2ZzLVQ0pJxPm6ijvKK7ZoD4Q4qXTiS5Ijfpph1dW8sBUx1zNFNU6ibSCEwyQPSgTMFsLMAMlc2QvW8vM4HXoU63eixoaXcbKUko5q6yE05z1LDvVP4Y68Bjp5Tm8xrQev6wALrVYREE8Fp4GE8KikfKzgvDMS3Aqta11TVdd7lH/52omtDB+xJINNTEr8ExIOcJ4V962Hxv9t5rfrYTcAuW7CRa8gCbO4f4AGU9dUorKfxQCGlVdLltQlAi6ipL0FlD7sUG6AHz83vrYnhmgItAI+OsKaf/JHzr5UnNVa8BVYdC2rUq216pmwN1FadYI5GNLTXh3vgY/mxF5L0zPKzhPG+FovRjxykUZdNPa0mPTU+SNHMjnRpYifxqOeR+QtYgotSVKT+MvAmDQohu+U6/YOAE98F2CncWTcGhFpcdz872aGBnW1H0tBJc/xHWNaocEtH+dKAMwU41WUxiaI/dTjgDg2xjCF64HGQpXDnpg1UX4UAligRxVUWP0g+tqSEuzyPHyELhdDzrjIomvNR+tsjwkjSwtyEzJrS8hZwqAP4Q9XbcmM8xgo8UbFPCErNNCNQNQfWnQn+Vk5o8g4NCy8Z0cRN1el5jpeA9dQivJ3aCPjynerzuVDXDODUbDGZ7Msh9ISZHPyrRuYq0VLf3ltEGbDe4bOVsa6OOLkodR7fIanHp3wfFFklFnCql5Zr5eqnUQjAiSXQo48uAKjswHkpaoWqatSBqzcHslPdGtvJbmpQQHiATeO6jnM9D7TNnCXYA+A7sA3buEE29WjkBh9KZQXuZqDfSKzn+DVccyU3x6qejVFV/C03g0DV+noA1vpqoH0XWD2MbjH/kWY11JxbC7GQM/Hnf/UnH1m1quql5QHWC+1bYPUguaof1LIPa2q6zVr42Ko29a//wp7v7m3560KsYAHw4GOvTqR4GcUXxm+dISM9xQfX1I16Pv8JpP7Lrrzu1syi+AAx3H3qqRXPh7+KT03sT9I0iKRpcLBdAOqLqGwaipo2AOiwDVf5wGe+aGTHsAiR7VGLvmGWOCzcrqt2AXVWd8XrA/0tkWQukR8piT8jlT8uhR8tFdXR8OcMfvQ8thVh2kuxIaUoaR4Kqo40eqarenLlEno0px6IXIYKqg+uHrhxVzUIKPhjPO9z7MILPK4m4Hg0KchNdaQh4I/ws49R0YdYAHVLLANWDcfRvLK3WJbIC49FfTVPLQqqOQ1uAmER6ngTiAvYp+qv9JFKtFTM41dRXlfbANglznf72x0+6x1KBtUllwGpJjrOZ5na81PLH9TYNONhHlYga7D6E6hroq/pMUiXADUOtY1yDQdYAMI9IZH/Sb71nHINSsRjX6hPLgkYQvJ2Zm72nxCwLA+x7QDb3iZerGteLU27qQmO1VSr2Mx1tzgP29TWAexalNUpLHBqudaruFJZhGsVXMjHrub1Kv5vKewSSuGFXEuPql+KCI3q9hOEs7rVqPXVQzi8Cuu1BVX0ILka9TxPQHRPoatRy4Jr1LFbM9pb2bbWlrM4xLLnhljSFIr50RQt2IJzFEFnKCY0X9PJnigtd88RYD3SBQXGEkhlY1C/83ywOIr+S7y+BsDXsQcJLGM6NrFrnf0ss2+QpfNlNF//NTU4sO/k5xRV2ITznUnUBofZDRQ1DUVMHxlumaMirIAkKg+4Cic0t6LxzSmqw12NQCnF+W2SsbtSzhEkZWzTiFc3XTsgqNpIz9DSNmXemiJIdauCpYy4DUQa4PiMbS8B8wU+Vn0PnqK06kTzmGMecd4D7MUjYNPI3EdAfZeE9DYwqqrLKa2qvFDOMq5zG2jLxnhqIJScqYOLHtrhntNFUqWaiCI+h6qybvHZ7qD0GhN3dxjA8n00sqIQONN7fWKF/Ob3+RxlmjYJVc5R3S3ikQq06vaYAKiXUNsLQBszQB24NfUm4gGkkZ0bWBTFfyTQagp51fBEAd85gDyLxz0F8MexAEeB9DCAyhrs7dWYxEsDEPGznKPZuXdzvV3aRkmmxgU3QzfXkmXYAKhSVAEqVd2EkmtaTtXVrgPONQ5YvCxcrOD1cm6YxQC7gGMX9A23Ffx3n0f82KpXqWb16nnGcX0dWNYFrDIw95yDipDK/i22IK5tY3u1r7tlrKTomkdRPDXQElGaS/y4MXzJKL58JF/qNLbgS2zBAe7afZ143cMfw88PhfxHAes5t06ixfoVwNXTqONQ5LjPG1lad/68PiEU7dgGYE1SixiKehbbcKKVJjsLoziPsEyAzRwVatljw/GC+EP8bSGgqgviLYryeyjkPSzEHdTzLvbhJn42l32Fw1E27EIu2+Vx01FdKW6eOtgAsIOWcI8zAjo3ewyAPafofs36a4DUxByPgFmjcJ+i0M95LyVuj4FQI3kfTeTciaFOZVUFprlfi0ii7gBsOWp4HwW+i224j40ox1rogc1fPccA/8uNoAc1C/C7AHkfxS3nN77H5y0iX8jq86nlDWxiJRSXt1HbW7IPw0jGOFctYimobtJAYrBnIjpVdcW7vg38R90bWKTr4knOQJGr5Cua/ZFYCM3KHalmdpRVcYp9xwH3S5ZHAPkwMB4CzN0OXP5btmmG7l2AvUOqC4xS3e0AuQ1Y1al7A15VqroBKNW5eztipJ5eHtWVumpijWa2nOVS9i8G2vnYxwX9Qm0Jv8m//+P3rWqVmvYhOVW9irzqLbAV4YCtHJo2/rcAdvLf/pm92TbA8laTzCxAZaeR8QPsNX5MPSoyxgGreZua2TE840EUdo+K9W4+do7XkRQj53r7o8J+Fk1CFs/yshIxgL0yKNQuctzlDo0stau/5fQBSD60x9eqYSDUzn7OtdvK67aw7MERqJL6y4Za1kRUdnJLuz2tNZCEA0aoPZ7YHOgiULcQZwOyR1b04kJtiwFdDyROY3sy3jBdsIwm4UHRVAUmr3kXz/kQUATiC+I5EL3gmDcCEzCe8J3fTAq3lxNC7QnHPeX4eyRa6kDj+iYAm2aRUWg2whKKfV3TzVAD1A+A+qGmrwfoUm6MIt6zgJtASi9gZQuKUG2NdrjDjXGXhLC0T2Mr7NnA86RxVDZvUFO7yfIWCq8WuxK2Z/Vv6IbxJKGo6qerKq0rqKyquzSy4XSnn9sFoLrMb+6m42R7PCBLfdVfNhK1PEecAcZTgHiKY06w/yj/7zHs1VFs2F6K+/0cs599gnYvodm5NcZLoYd3qMOMOnmrR9dGlFgtYjvZvp3QAEX52VXyrpTGywHc2QEUeBEitQBgF2PhJvRoaN/9oJrVAsoP1DvrHVC98Q1gNY9RjZpVza9aHSud2tHKt7aw/EUhljMj0NLIlq/zw+ru1WPP9cAH1cUe5YMc1BQ3nShWAPccd9s5AYtynsEiRPbk7iYuAaRqEBIGBttVfG0cx8d1aGJXupA44WmzgDaDL5PKnakETdBGt29iaRQZ6cOwBViBvPEtUdiWdmtKS7s7DXBRNzXr3gLanNHBJDbAyjKbZTGKrLpdTXuZBsDpgpmlZhFUdZi6I5Zz3D3gfEQW/0gJF/C8wBq8YvtTVOspf/JrtmnaIw1kfAyoelBd+Xg/z+yIk1B2eVfOvcNx5axrzi63DTA15PyhFJwoB2z1t1XDhEAtBFAtBa76ErjJjPlcub0/tZsAdIfPepPPLstTws12k2NuA+xdVPA2AOWjvBmArIGL6sStSToSB/tZPEX0GWDVfxSPz4/lWurSqMaFK3wf1dued9B6mmvPAqGswRn+1xOo+nHsxwm88RFUeG/PhnYQQDWV/AEUWd52N0DuBsRdhB6PtAf4NOZLfQ9U7eX6ILBP3RJdvS03jKuP5b9dBtALYWahgCV/mdcv0JaTF7Tx+bGrHahdvxY+9gOr+y2P7/wKWFXQukraGla1Xg37K04+EfCf9nB/JyteHmp5c4MtdQpelIvHDW7qfoRY3vhMj8ZuvnwBe6BLEzvRw8/OUASdBdqzWAApbCSJVrRqEFDaaPZdQmkvA288H1b1tlFdSBC+8LXrqG16H24Mioskvkw8nvdUq48tvoMP1qCFpYxtTuISZvnjPH1niyeF2S2gLZzMdpKobBQ4UypMUpVD0V2ATXCdvwE4U34WCPOBtniY/G6I3aXYvcvrcgBS3MEePOL1y9Gh9pA/7zFhrAvYlyin+tJq0g3NmqgGhNus38UKCMZ7gPkA6B/yuUoptqWwDlKAVKi32G2uXwqwSsLkXdXY4ZQWEdAAygKgzOqNqgLUbSAtwp/q6TFa3kZVb1M6lABUObDeV8MJAGagrOmobCrH6cHJ1wAm6ouP7RJgXMZzqjRU44L6ympYjleF3VxbEh1AjOYYTRCnnnhnAFVKq44xh3o1cDUHh7nWAY6T0u4l9gCwgxZFldruAUrvc722AqtqFGQVvM9E2ISSysfqiYkrsCbL+FwLuN48/ueFg4JsISXS3//xh25ITJ0P1LfFYwcqWwLvehXvg+W+esCcZ2rDelVq2LDf/r7dX9/FStaQ6MwPtrTpFNeoi3oaxfHF4/hQUYIW73IMX6qqrVPd/e2Ug5bMH1jPKSMFZsEaxTGRxCUgvSxY+SJxgwItBkWN7uZvkR2bWcwXeDDOv9wvyK7yZeLxxMea/8xiOqtnU0uSL4FJUqUWJexBLmqbO72VpZPxp41HoSeSnAFvFjDksczlWI37cmO/UFT1ndXwcTXp3hQUgKKBjreAuZxtrhMNKvIYdXsB9IrnQPYMaO8C1l3BDZi3UEtPYkVWTzzgvR+i9uoIXs6xAvcewGp6eAF7T+ehwvK6epS9xrDdZJtUthB49SA6jYLN5b3vyBKQLJbgWYtlAwC5FCCL8Z6l3ERKxm4pIQO8bM5Rl0Q1VOixnpfJJy5204gIP1cnK08rSBXqd3BV1WDAqsaGOEGLWp8HWHVkkj1QVddpAD2mOQx4fWqQnx0H4oMI1F4lY4J3gL97BsI+1HuPNxFziutJxtSXVo0NW1lXA4OqulxNAYCuRG1XDQFaSoIF/P9LhgfawM9/YvWqV7VagrKe4NR8Wl/VFFQG9xvAajbuukhyVXzEv6KyN7qgFjs+t1xsQdbcEEueolGyARaLh4riy2gacj0t+nQPXzuOUp4QYKipa0zoQdGERTjPtkj2n2b9LNvPsx4HsFF8YD3L/xxf9BRfMgrljenuZ+c7+diFrvhljk0YFGwnAX5f+E/tfEcfSxvWnCI/3FL5U9XlMA0fmwQsSePwwCRjmtxDzbjZbMsEwmx8bTYg5qOyely9Rieoh5iqt9Qp2zONO8U0RXEpRaOK2nso8GOufZ+iWjPMPAbIx1Jg4HKjalWcCziKfdW7lrCu2WnKuPYdAL8NfLIEdyeocUF9HVBiKS3rpRyrZmCNMFANhSYxVouWrEFSj4/dgzc0A3cJ76vHHUlp7/DZbgpWPpuAvaXPShJWCrRFQwIsDwXOBth0gI3v3MCSKG7VQcg11xJ6XL2bpxZINPNhIoBewz7EcxNc4HpqXIhzDQyaVl7PQWjkmm3PDQpAbX3tBKFuiAeAVWO/9gOhHkK3l6V6du1ELeVnZQPUf1YjFbawTbBu4jobB6KwApX/eymfbRn+eAnCsATvuoz/qcFPfmTVYK1ePaxAXXXWFqgeVf3VwKrNtm5dq1Gvjn1UpZrN+Ks/sVebelrhijDL0fRF04Mtgaw3FrWJGoKactepautkD4/CHu+JWQfYoz2aucdCnupKAoDqnlEDAesC+2x34BXQZJPHFNiH45wf1TsIqxBiCb2C7BKQX+iCheiq4cvBdgqF3Rf+czv/uXo3NbcbI4LtylA8NYqbOj7cEoFFS4Wac9OwDWnAmkHRqYRNoxj0YLh8PGER2b46yGh26zwSNNUiZKM0d4YBqVSWbXeBRvMaaHCiErL7AhYY1Zql5tcigcp6KdtKALQIiG4NB9BRYc4b68HQztcSd9kvnyyIVVerOWlLUFV1dCnifZT4CbhkimB1uZRFKARip7Ao4R1AfcJ3uIsa3UQVbwKgF1i16uXiZVXzoOcfJHRpaJlDgl1jip67oBllErmGprBX3bUeQpfIf6bn1Kq7pubpclVhWIZY9quqMgpFjAbWc6i0VPYEcQzwDgGihoQL1L0sd8ur4pd3cD2NA9uiYJv6HMjLqs/B2j5NbA3HrgLw5Zy3FHVeDLwLsXzL+K3H9/nUvvNRDatVXf0GPjA9kdNNmvGOh/W+Blgd4FFWF5xQ09XL1ib5qmufVKuGt2pl93d8YVmL8YKzQu06icZlfuxYvrQyzJN8oKOo6aHO+FnAPAJkX2IFVN11HFU9I5vQlS+OAh/v5uNaxI6imnow75d9OF7AdgXO7gF2qVegXVZ/hAEkZT1DXGeZOK51ToB3o2hCaU9+1hD/y7FDAi2BPyZpWKADOH1shKWPa25Zk1sBbhjWgJtsjKe5N5/9GupSKLVV9Raf3c2comIV2IqB+xbHlqHcKpLLUd17AhUw7wO41E5gFstiKLtn/01el2of0BYAR8kw1ZOqXwL+FghVtaUaBCVfAtYlZKzLx6oJ1jNVPMACb1qfT9xNo8+nEQgFhBKtgr4N7Q5q+IDveZcoQSGLBaxUligBWD3jN5dtlzr/3K5j0dTfIIliN4n9SsY0zXzKAE1ITQmlRheWeoKiRuxqJkXNYxDDe6leVp2aogEqElgFrJsphmL/GOccZl0J2D6A3Ce15X+XuqqaS3Wx29imvrPbOHYz26Wua4F5FcetFLDEEm6KBYNCbPHgYFuDvQxu9Oeeptg6HxH1UNgajse3qorSOmD1mnDDvDXe29v0Vauiu6FG01YjY/sDLrbw7/7anmzrY7mrURdsQeqMcNRLXQ4p6vmyrjMwvukowJ4A0GMAKyAdtMRJVPVkl6aur8FRXh9DTbX/YJdGDlZNRnYM4CNJyGLwr7GodEyvALvYM8CuqDmXH+l0j0YkcWpWbGZ7W35qB1s1csdc5ge4IrUYxeeaEGHJeNj0KUCrvgjApZG6uYCrvrn5wJRFUZTGD5zOj5jLn6qkR2rrHiOvpVSPbcV8N2XoZVJb7EEJEBcAmkJDZHScnj1bRpGmTtaFKGU5yZ7sQBnXUQjcMjUiVPhaqa7rEQaoRVxfofUCwMnu1RC7wWeg1MgD/kKiANiUWJWhurIBd/iet9iuh87dZOnsAftLsTCJ3T6xi10+tuuAqOHj3oeDpKLOGqyoKaQSsRVpKG0W1iFraCCJmj/elpwC6OO4+TXeK4ri+9xAfzsN2Kf5bU9z7glAPopXPszyMFbjECAeINzQcH5HNSCoz6yUVqqrHl7bgVaNB66LIYq9gusuH0CCxeedMzTMliMis4b9l/3ODzXapfbXm2IJsSg2Fd5119JVeaPbgSX4sLY6xNQG2Dr2QfXq9lOgTepPUrG+AyrLHz4XNSNLvoJKxFKkqCO36wij5lnU81gFlIL1MPAeB8JTKO8J1PUodkD7ZAFkG44C6ZeEmnfP9vazaJK1KAA/h32IB9xLKGkcd7paZtQr7DRqfaKTvwP2SNsGJA+avCPUElCmqxTbiRPx2ZPCLWNSc8smIcseH2FZUtlhbOfGSOazajyY2vM1n4GabbOBRs226qiSy7ZcimRVyueiXBq9IG+qzizqOaWxXXqQsWoabo0Mdt63hGNuOTiVhAW9DUFbyjnyvfKkWqrrokBVx2yN9C3hOI3fyuGz3eKGKgH8UiAvHOx5IqKKfkF6S0OBUFd16FHSJZUt4vWtoUGWxfmJXT+2dIrxNCDLBCY9KVGQSkXT5F+lpgCsGQ417bz8bposFdCqR1c0IGtmwyiuoeH7ZwSrgu0ngU+tYAf7NrGDgHwQFRWwSsA0h4HsgHyroFWd7E7W5WE3Aux6LMBqYplicKAtoZRYODjIVk1obmFN/8LTURtYv5ZgVQBbGdS3wHp3eEMS7Hl2lw6S8srLVrFxf/mn9nJ5d8tewg88B784Lciu4fEuYdzjKDJO9kRdAdADLCCioEe6NbFDAHuYxE1F/jGK9ENA+yXbTgCsOs04tVV/BOK0FBTFPQ3okShyfG+K/YFBpmdNRVKcRHKHRpKYyRcf79jYDrX+2E50aIwiB1p83yC7Mgy7MpoETH1pp7S0nGma2yuM4lFNw5rSx9fSsQYaGJkCXColUlmmANBXS/5IINOkFeohpbm9iqR8qKxayLStgD86fxBJGzfSTXylG44D7ALWq66yEHrKoWyEbIPrXM4251lZKhy82Iu0np9aEX+m+j9ohptiPGkpSe1tKSuwlgFcOd/htlRWwAKcqr4KATqXRCexE3YCBUvn86QBkoCVst7gXCVcN4A3lXOukeBdUtdEtiUDu54llgRA8ahmFNCeRGFP8VufoRQ6yTYlWyf53QSt6mUPc8wh/utDHKOnJbq5uHh/N+GGIOW1WsA00lY+dj0is4ZYxedazu+1mO+whBtsDeIyof8n9p0Pa1qNGtUB9itY3wX2LZffBqwLvITmK/gAo1ufkJf9lypV7VL7hla+uo1lzgyypGlhljjOMxQkni+iyXLPohKnBGFX7AHQKQk76AJ7ALTHUMdDLE8ArhKw48CtkBKfkspy/nHVOHCNGJQ4vk+gacojPRTtNF/8LN4qhuJKw3Ni+pIgcEN82foTO9aiiZ39jCSwk0Y8+AJ5AKpLCcAffI0/RfMkZGIVMiaTNGITElGoRH68ZLbfALIbqGwSICo0CUgy0KazPYtkLJ0/Nptr5Ku2AWCz+YPTKfpS+b7ZQKZ6XdWh5o/wcRBKaUsEI9fU0hX7hCyDVFXzhN0mtP8WnzEbj5qHEmomRs3SWIiSFfN9y6TgApTlHd7zNsApySplWQZAJcBaQOmW0rWRpXGT5/FZ0jkvhc+mecAEq8BUb65kXmv+2Ot8hovYmcuCtr8mlWtm17jWRUKzxJzsrRkOyTlQVgF7nO3HAVZJ13H+Y7WA6SHKhxX8DwJW88YKUs0Ko5Yu11hAqEfXev6n1fxvK1DXpfwni7EdS7ECm8cFW9P/8sydVbeentz9Faz/LWArPzJRIV8rlR34Oz+0u7NbW9aCQEuZFu6m2dTQjyv8oQnceRf4AlFkmWcq7IE6wxzu3NQOdCIhI+k6StZ/qhNg9Qi0M934UaS6AhnVVQeak9ytJ1lGAt2FHv52sXeQRfcJoKjC/GMNzgLpeWyBp/tisF1kGYmaHwLaw1iEE22b2an2TSzq86Z2gZvkQpfGFH9BVjC+hWkmmuTJoQSfe0KIXUXZpC6uayJ3fCrgpQJeOkW+llmoYrq2A3aW1Ba4soDnBkApeXGTfMha6FgiQyMEAFNDzgtY5vObqDXN+wwuheCVfVAnF3naW7xnRs8mVgQgxcBXAFzuWbNAWcT58qmqb1Uz7E1KMvWLKED9NIujenbpsfTJiEMuMORwnib6SOfz3kBdZQVU9KcAXhrX0gw5GjKfyPLSkKYorVq9NIeE/jsfi+e16mLVKf8c19NMPydcsuWLHeC/kadVSQrAx/kNNHWVpjnStJyqf90GnK6RAAYUbjg4yrqW7asQmuWUlMsGBdnacaE2vMtP7MMaVayWMv/6noRKtQBfg1YJV6Xwbvu1gPVAW8f+BGhPNfy5la/pYClzyEYnA+z4QLukH4EfLI4vEc2HPYdSngS6LwHxEOAcIPYD7xGWxzsBFZn/CWB19bYsT+FVj+NhjwL6iZ7c4ShuNAoco1YyAFVn8bP8KOoFdhGPq4aHK/2CLQEbcJmkLIr3kz3YE/pzO9SigR1v0diiWvtbXEesQic/u95Lk25gE0jAVFcrj5tI9i+FVWfotOHspyiWqmbgg9Mp3jUMJ4PEJB1A1Jyr52xp2kv5wSyKbo0IVufxHHlgQSvPC1h6eqGqztR/VdVoSs7kf9WvNY8iWR1ZblKcl/J7FeHzckk2bwLsTX5D+eVCYMznxijiPfVa4YZ869qAl4f3LBGw3EwZfRpYSg+AxXNmUhKkAWkq++VX3bO8WOq5XimAr5YwTfGUyPUu8zniBklp+W1IuBRXeD9Va6nLqEqzk4B6AuCOsu6AFcxSXHzs0T6UoICrboia5XAn/43m2/LMBiO1bWZbSLQ2Aet6lmuAfyWfcRWfY80oH/unv/yuVVGrVv0PUdfqTmHr/LrAVobyXXDfbieq16vn5i6IqPkRf3BLy10WalemB1rCpAC7MNLHDWGO48eJ5svpSSXH8KSHKe4PAd5+POsB4D2I2h4D2OOu6guPy2tVVZ2k+D8JpCeB9ThxkqI+Cm+r7omyGae5610Hmp5+drUXxX0fEqx+QSgw9gCg3dNRuAlOA+epz/lx26HwLRpiFRrYqTaNXUR35nrYjjjU4/rIMMuZ2NqyxzS3NODTlEeaRSYTdcwcEwqw+FygyBqCX++PCitR488VoJmAqJG+2ZyjiT5ytO7qcz1+V5CqO6NC47H0nC03Lgs1lP/Vw+IKgaoY5c9BXctYqlukqrmKgD+XPzVPSipouYkKuKZC19XjkDT7SxFFayGhmoFMgMriJnLTdqKUScBxg//hOjeGew4u10vhMyezVDXXdVT9Ep8hjtcX+GxXea/r/AYXOV+5goY8nQG0E/yPqso6wfWO81pzcskaaMaYY67GQGO/fNz0RluAdj3neYbH+NkG/rcNDmJf24wdWIeKr+YzbcIKdA7+O9dIULP+d1x9/weU3vUE43sgrRxekH8tYDWd0QeaNqZWDavPm0344x9Z3sKOdnVukF2Y7G/x4wWtr2v90tOj9Zjz4xTtXwKYkqz9FNv7gPYgKnsUYJ3yAuxhXh9T/azztPwg3VWjwBJgzwKsag3UvHu2B1ByTgLJ1ZXeBLDG9w20GBQ3CmAjsQ3HATISq3FxQBgeNhhf7Q/kXAMVj+waSJKGgn/OzdP6F3a0zceW0B0gh4XjS0Mtd3SYW+aooWFsqGWQuGVpdAM/fBrvL3CzhgEoCY8GBKpHmKqG5G31/Fg19xbjQUvI8tXsK0DTATRtSDMHuKrU1N1RwGcBixQ6jZssuXsjKwZA1ULI3wpmzXebzbYcgM3leA22zOF99V7ZWJMswMqXogLHje6NLX9osNsvYJNQvWSSG0GaRNzgvTWERuGeXsM1rgJ/PMfrv4ojZAUuqmqL/bGAdbJXEzfL4TE86ZdaAutRVFNzyap6S3EcNfcCq2k5N3HOBhJmwarxXGvduj8+FpUdGGgbue5Wbug5Axra979X02pWq20fwJRT19r1v1VV343atWq93xJ44y3I3AX1ayoBq29V69awvwHarX4/sezlHezidLLziagdviyWH9yNhadIkFIeQTn3A9oeYJQlOAw8R7EAWh6qsAhKxlSD4KCV0qK+x2QVVA1GnFFrF373PMfE9vCzOLxtFDdCpNSVpOw8sKp+Vo0SURT98f1DsCZ8Fn6oy8PCLGFIqF0dFoq/5lqdsQq9Q1jyHi1/YWewEXGfU8xzTJ56do1HebENqShsMsXjDRQiZ7BnVG82wOaQ4RYMCwESlqqwV6BQJcBeqn64qF4ef04uUGgKJXlG+V7Zh0ypuBvmo9GygcCFGvZsyPnyqz6WTyKk6jI9fDl9WBPU3t9dwwEOaLlAps7oubzOJcG63qUhloCbg/VcrEuOSgSgywLUFI6XyiZzbCLr3hYv1c0mAOhltmkO2RheX2Cf1uO15JxTvRq6iTb0pMTTwHoS/3mU5UFAPQikX5J4qTfXl9gjdYhxwFJSqN/rJiB3I2j53TQCYS3qvGpQmG2lBNg1IdB+9k+aBl7VWIJUqqnAfr4HTm+8BbmCyV8LWI1EELQf1PrQ1SDUr1bNGlSvZme782PNb2mXJ39qMRMD7BJ/bBSqospm3ZUHULi9ZPxeYA9gAd56WhKxA535EYgjQHtUwPYMsC9R3EOdNE4MCCnmBWwk6hnFcVLZWGxGpNQXBT+H7XAqS0J2gmucRWFj8baxAwCZovwCapMwRE24+F1MfxQKHsufnD6unaWgoJd6hNjpVk3sdItf2DUUP28wMAJ3JrZBLUIOVCkjCumm+wS6PCIf8AorgM1HaXPxdnkAWEzpImiLSchUrGc5pZQ6a7i7LzZDc441IUEjIeKPTcPqFHOzFAF5Mb6yuMLzunlhWc8G7EzOlfXIxJLkApRukHTe60q3BqiqajEENMfxXgI7ixtAydY1oPJ2enHdCoEygYgDtAsDNDxcpaGA9UNZ+V3Z50Yk8J+dRxmlthKfc0q8+C0ErMZ6acyXhtJo1sNDfN+dnKO5uNTKtZXjNrJ9Hf5X1VnrSIydFRjvb12C/sFqAKvrJwBTXlX9VcpaGVix+EuB9YY6detpMx6vUddqIOcfVqlmHb/3fUsZ29Kuz/Z1gxTjxwPLSCDjzznBH6kWkb1AtQ9LcADQDqKgezs3sT0AuxtrsJtsfnfHJraX5UGgFMz7v2jiIPbUKpCgcdy5L5o6hY0CqvNEJNcUsFH42mjgjcUinGb/WSzDedYFqxQ2Tio7GFjxiVdYXgLk6C4oDYBnjAm3rAnh+NVQrIafnWvd0M6RrJ1v+Yld5f1yhzW3PFkFinp1oFGNgKdID3DQClaBms2fmMufW4TKlQwLdv4yH3gKKPYVmm9Bx+dwrqYR1ayM1yhCYzt8Yudb/9wudvjUEjo2tIQOjexKx0Z2qQPrLK91bWLXKPKv92xK0tiMc5paWl9uAuzOlS6NLAm7lIb6p2JXUvit5bnVEJACIEm8voaqJQDmZYDV0BnN2qPiX6DGooQXsUzxABcLZDFsO927IbkCuUM/f4tEIZWAxQGsGhROIEBS1/38n/uxMgewYQexJPuwAHtY6vFIO9iuYeAanLiGa65AlVf2ww6M8bXBnf7D6teuarWqyQaoc4sHxHfjXVi/FuwXi78WsE66gbaGHpFUu7p9ULsm0NazH3DHTP3xH1nu1LZ2aYafXZngZ5fJvmMoyk7zox3jBzlEoiNYBe1eYneXJrYTNdwJoLsUX6DAnVBiB3Bj28WfpfW9gHuEkMJGdfWzaAELwM4S4GlPA+o5rhuFgp/HHgjYMz0CLNL1AsNCEHEAehnVvAS4UtmrqG08Kh0NFFexDimjwixlDL5VHWaAUnW2UR1I+ppTYnTU02NCsAot3JT0meqrABCaGCQdGLL5c1TFVISClmAHilDjfPYrWfLMGQbQWpfC8v7X+Zyxn5EEtvy5nWr9qZ1u08j1PrtAqXOZ3+WqulRSEl3q1NgufdEIkBvbhfYki20+tXOKdg1cRLb91CLbfGJxn3EMN/sVYEnE02q2SFXReZ+0qN5YlwBW/WEvcpPE4Klj+dwXOfYCcF3gPI3+uIBCn+3dGO/ayM4A9ylU9wzf7SzQRgKkHlmv4TMC1tNYgOhws+zn5tkLuDt7qNuhuhhqZkOSL85dDezLVSvAb7ZgQCP749+t62oFPnSPMJLofRPW/1FgvXLseRqd4GWJylYH3H8C2i0N/relzW9tlyY1sYRJKNmYYDuPsqh1xD0Agi91mKJGydcuFHYrf9JWVHQ7sUsBsNuAeBN+citqu4PkaO8XZKkArWovedrTxHlsQxwhZVUzrepu1TJ2EoVUfa9sxSnVGPQBSlQ0Fi8bx58Sxw94kRsogR9R1uC8WtLws1eHR9j10RGWSLKUgm9NHx1kSSMjLK53gJ3p0MDOAIpGPFzFRmRwbNbIcBQNBevXiGw+FFuAb8XTakp79QBTopTJe2XyHkl8xktYm9gOqFb7RhbZ/lM7/3kjd8NoFHHK0DA39D19BDcM6quO5qo+y0GVcwEvl6XWM1DsZAHJDZcIFNcAJmkAOQO/ZWRHPuNnKCMRybVjAf4yXv2ylFVwAqqK+2heR1ISqNElFrsTy28Sy+8Uz/XiSI5UYsVg4TTtlH4/hR6cfBwQT6G4J3jPY+w/SHG/sw+CA8x7+G31DNpdxD5smUDe0r+hrUHNVwwKsjXcqKtG+9vP/ua3rCqM1Kv3ISW0p1PL1yCtAPFXhRfcXwtYhdfPeqO2pukka6vORX5SpaqdC//YUue1tGuT/O2yuh/ixc7wB+qZUKcozo6htPso5nZ20lOjfWwLf+Y2fOxOgN1BbAHOjRTFW4B15xf8IMQR1o+w75Bg5PhzKG2UK/rJXLkBjnNN13Fc6o1qHgFY9RpT5Xck2X0UP/h5/TkonFT2spSWYjSBOEPScholu0JSILuQBDiauyuR4vsaP3bSiAgAD+U9SRZb/MxOtKYI5/Mm9PS35IGhlsyfqlqEVG6Y62T78Z0bWlTHZnambUOnoCdbfWLRqHQCn/HGQG4IAE0dEUYiFEIWH8SSopxI5jdy04aizpkAmgmsak1Tr61CfHMeyxyUSn5aM+MkoXj/V3ln/l5Hdd5xSfdeCUm2Y8wSmhRCw5JAgQIpNAlgW5uxLXnBYAO2LHlfMWYLS4AuaZK2eQoY8KJdutp1tcuSLe94k/EiecNAmvZvefv5nntHHl9GtkxJnz5Pf3ifmTtz5szcmc95z/c958yZ/3hnAfktIB/NeK4WEwLOtXm2f9lU21My1Qa4hj14388A8SiADeEdh9Cix6neZfpYh2bnlmY9uG6GHcdbaiys5krbB6iDel5qmkSH7gHOwU3ca4DsB2hNX6S3CZpxQi3r9UatZIHeOIhPFldPYYqiv5t+M8fmTr3bNWFlKsiSdw0A1kHrMRXAnWejwI4nscxL54yTSNPK20YybrS0UMhmcTEnViL6//VFZAGe8H1K9q+pvrnBR/nT+/nTveuo8tcWOEjbePgdwNeOxbAmttXzgJvxsA7YVVQ7aoYiXc/KAtuJXFAbrrp0dwF+H/n04yl3okm7KQSdeJnBtUWuq9cFDmoSU8sApf/4y/Pc+2Qj6NsRbugIMmEEcA4TCB7inKdfnWcX3nkOUJ+xi2/pTQfkDRr1FF75FHANvVRkhzn3XjzuviUAWUwVCpAH0bsHFk5jmWefLUNnUwucoPCcoaBcIHrXxHX/ief8Gg/6FeBdwoNeBMyL5C37gnN9IYCpjdTb5jowgFhv96onTc1fAlVvB+t7BpeA4jywfAm4lwQvoF94G0nwThFyB0fBvT6DNj1KFb97xTTrLZ5mXS/m2wDSQ5p/iAKrca4HXinANK8ENd/qXDtIwfsM2NxHO6gR9Q2EPTiaQTzqbi0FL89vF+fW1Jwa4NKwNt99YUbfnnWvfVPztL66wFq4ty2/nWvLCu91nlXBegbAZrhgK8NJAgdpAkBZEG/JNgps0M4g8wOr34r01KGQxYWkZ2dYNl72xYnZdn4TXuR3L9jJv0dvqkOBkq3q5wB/tl96B+sioOpcPRtoKal4zhYedCPrUXRbizzsCrQt1rX8aTwt2hYtq+7dXZgG0OgNXdeuK0MTd+OBO6h696yd65rFjuFdh4BV3bx68+Hwujk2vGm+XUC36s1dVYVnAENe5SA3/uBKqlTyPrkeL0z1fw6Az1HlndMbvOje88AjO/fms3aUKv0zCtUJAshhQP6CSPjLt/Cg71LFE8B9DXieaZCNes++UjMWnvQLdKam0NdYBjeG9x0VEM1qM98uCWi2fQ20AvePQCrv+yeW/4Xn12Ccr/Gm54HqSwpSvK1VHQV46Dc4Xh0i7NN+FbgzAK1xrQPUOD38v97FudZXkmuaUmof/1+zvaitdQAvOYi82stx+vas4Ny1KQ6q5ijow0PvZLu+PKN2WScLBCrPMUbB1EAX94YB0iNGzdPzm3m2+YX7LUOvvIRvsOxMACX+cd/S0HjXxKis/zVgvd+X3bnWNbNcpk2hRK25aYpdfI1q9reA8fZMG1HJ50FocPAgf7xvAzcP4DqBtgXYWgBWAVgzwDTgRZuRBTHgbUfXCloFZu1s68F2s65Oh+71lHK87E7yUDtuD7pYrQ271snD8kCoCvdTFQ+q54wHdli9ZgRqJ13bLVUjuuw4ek5V4hA3/DRV9nF5Ubz3Yc57YnWhXdz8DFX08w7G83jGc+8BxPsEbXij0wR3X7650AH35bvA9B6BlWZVfH9B3FMC6h9Z1/tnLnoXfHha9TJdIO1F1i+yTdr5AgXhEssvOMclYBawmp70K2BVe61eT/+T8sMz/xE9e5H76N4WUKeAxhLI26KbL1LVX6CqVzPWaRxEvAUAr0oajcQ6SEHeWZpjnUumWjtBW9eyfOvl//ZQQw1QsAfwrP3OgFSeFzj7cTJ6w6ADsLskBzR2YOMMa16XZ83UZE0b51g997V2vabhnG0tv55tby162G5MT7W0iD5ZpKne5dQ8Vr7Z5a/a2g+vZ372ZC6OYvu3BtbfNKGMtIwQiGUA7aZbptiFDWir33Lz3pthwzyIY9zIfeifAaLRPol1oGuVPHAAFlob4DVJ1+JtY1gL8EoaxAQscsEBuwbvCuSx1VRHWDfbd7Kthxsf4wH0sT5ANL4bYAcoFBpnqw6MQ5hefpRU0JsLarc9AniaP+EoD+vU6/MJzrhePNUwHvMMGvmEInVAP4+OvYD2HAGcYcDRpMBqZhsB6LPyeAIL4P706wX2nwIWGFX1XwCoLznmKwqrxix8wbFn8awjbD/LMVcY3lLp9cqK0iva1zSd8XEOcbmgbXona+RlfQJ/JpJDwOq17tl2nnurSY3V1jqMpzuJdPgcTzhE1K7vHegDHfHZt4knuAca/rlzVYG1LZ1mzUuetPblSCruZRe1Vw8Ftw8Z1f9qkWtzjSG74nItz5kcSwv3VR+QqyNtLfexBg/bQgF8Z+njNjkj1cKheNUf1Hx1BawuDeYD1TM/ex5v2u407Dd2JjK72ragi1EXbmZ6lk1CHqy+9SYb2VBgl94rtJPc1CFu8CE1QnMz+9C03YDSgeDvAY4OlVZuoICVnlXrQZvztFqfhVHCuVH9rHeRrhXN2oJXbSWdArcY642l+daxkrzJS7PQ9HPz+yn9uwBYLzEeAlS9d6Z3yTTBx5FNc9HWc91wyONUbZ/jldykE3iwi3hfVfVqs927PMf1qJ0iwDmGN9O4hl2lucgOjdVFNgDSRTziJYBVlf4lcF0EsvOCk/98jmPOAt5Z0g2zVHrpzfPoVvXhX0CaXJCudcACKfY12zVpsyD9inQaVaY059G9ZwDw7GtqutJUTpp7lrzxriNsG2Z5Cpg1H4E3bfwx0mumlyNu2ngCMX5rMr9D0qZ4y+5VeUiwGdawNN/qCNbqSvJcTddEgW1cmYsDycOx5FvzmlyLoWM7uE8dyCW1EnRS8FuRIrF/WGjvlv7Cbs4OWUooQnwz0X2GwOMiGcRvsOXb7ywoTSLddwqs5qPPdheY7cYcrLpxsp0isNGbCcffABS0135gcKPV0UT9wLOT4KiDUt8GYDIB27m+iNJeBKizrRko1QzWKWDZ16N0ahrDC0eBuo6ArAlrRFe2AXgHutbpWzx3H4BqLIPedNgHyHo5ch+S4eAGCs8GtT8CrNpz8bRDVIV6l/8cD/4iD+E8smGYaz2sIGQZEThg6y3Sg2zvXYYWJM8zv1qAl52D15xnp1lKOwqq8wAnT+r1KJ0GqmGlo0pXen3L7JJ0KwGVTKDGdS0G5PKkX6kpi4BPAZleARLwOv5zvJ6GciqoO891nuMaR7AzmGYsdN4VWOVhj7+cABX7jGr+MNtl+zcROLJv7wZ9nANZ9eoc66IgNq0B2hV5VolkKHthmlUtmcE2AmIcSyP3qA7t6mYk5B40oYNjBH3t/7TAfvXiozY5M80iqTfYRL1I6KYKmAQTV06ZKXNBWIKhUZZ8+51pu8daIr23LxDYq9mV0ApSLsits00vM2bG56NPzwBeoF06eYLtIZg6rSCHqmuQarSPG62eksHN86h65hN1zrE2qpcY0kBNXmo5aEWfClhp2C40bS+A9gJrhyBGrzbIgLQRmJsoFAK2GQ/bznHt0rSA3kNe/eSpMQ39VIOCdwD5INgO4H01ycd+vMch7HM8/jCF58Ir0olU3wKWavEUIBzj4QysysX0gbb5aGmkDRJEzUFDaLvTBDdDeJ4hwQJMOmYY4E6jI52HTUB1jm3nHGxACahqQrsgE7AAqbnFNKD6grx8wnPKayofBa96M2AIrykPelZ5YcOAqYIygqnb9Thwyqtq1Jxm5jn2ChKImkMzpat5URNR70eb7md775ocZNc0a10x1ZqWYytyuZczrI4CX8s9qkQqlBXnWDlB7w7u61YZ93QrBV5TZja/W2ivLHrQJqanWFpa2LLVbQ8HWQDrva3iuPCZY8UP51iWlM47/lsD68bMSrP69in4ik93FF9mpmtCjhR7OivTWp590o6gcwbfpErlYeyiStkNrHvefsF6f7XI2vF2MYDswrtq2SAvCpyueQvPKb3auoKqaTnal98tKvmA3CDvSlq1MERLCzhmFvtnuBYIdUr0cJPdaDEegLSuZMIgptaDA2jdg0TJB9HSJygwGlwzwvIsNgzMpzG1KpwAlsMUMA2w2bWcSJr8FXHvQ3rotehjAKFetRNA+TkQnaJADr8xz81pdfY1D1SqdWleDVyRNFBHBsthqvqzrMvrurGpgHcBQB2s1ErDbD/F8SeVL/sFrGbS1hREAlffRJOMOUPApflhh7BDpNE3DPSOljpRZAeBdJ+aq7je3dRoCrbaALSDZY9+U933Umi70ad6g8C9BcsxUbzrp6T7kAK7hbhjK1Ko+vUFVv3uLCuecZcbV5IeCltWFs86M/HcnUWuYMMzP4TXY97x4w66/JYOiEHbR0HF9G17edoQkWIYTfsEf2xH3iN2mOpSYyx34cl2EdDsItruee1Z63xpLpoWeYA1A0Y9XrMB6ARobDnin+q/hZLevBJ9u7ZoFNh6tkWRCzWlM6xmaQFBQbzFoRnP20Y+MTxGB9YOrAoq+oByJ9JAXlfBxyHBy7k0hPEw+46z7RQwn0Zbn0QGnGb9hFoWiII1+ccxdVogCfoIQPrReZIUR4D5BGCqq1NNZqeBU8Mb1V+vN36lj0+5faR5Az1M1X0mIRO0lBdWu6yg1TiAr5AYkhanCaDUQ6e+fnnMI0B0gvz0YY3PVUgAS1V//BsGBI9APKTgCoD3vZRn+wBbH95Q85VAHUT2DFC1t6+Ybm1o8x5kUQ//u2PD09axiRhgY551bSxwH+hofwmgOV5vvlZTaLchGf4Vj/xvbN/yRp7N/mV8puyQc1JU/zgyPXfvmwR6/oGMBMA4HvOO/1bAjmkJWPUSo5aa30CTy+mNyFA44oYl/vNjP6E6mmuDPLgeIvPuV+ZZ+0Y06wZ0lLwrcqCBqrdmdYHVAmc9sDYtA1Sq/CZAbARcRa0OVn7X4e1qgLayZIZVlygNx/NbHroZEFvX4m3xoG1Uc23k3QWoGtcgr7sbiDUJs15N38351MV7QF4TUNVd6eYDI/3JTepNAjii7NNIBbXFShL0FefafmoBjQBTwDYiGYGNEIydplCeBNghQNWs1xrboIHmx/GemoTtOAA6mF2e6FL07gignXcaWh0Xev+qEK+trtVZ5j7ip+NVODBNYXqCQnQUQPWRlCHlxzVovjN1sx5Gsx4ALr2nNahmKqxvA/diBRJgJbDiVbuBV7CqXTVGTdOyroB1ajMkWgeFtJG8qslXb71W8D+q3n/O/mnTdLv/xxNcp0Bm+gTL1KeJEpAmWxAjgi9Z147HvOO/NbCSBp5duT3Rm5EZH5aYqY/asi2clW1plDpN5bnh9u9bLyAOoOU6uSlda+cTaHGTAEfDEVuophoArBEv2oguFZxNwKuuW+lWt6TqryW6rSIgqmFZw/YavHG1pAHANiIVWlfn41lZyvC2LeSjJrMuQNRAHL3Nu3stHhfZ0IXH3I13V0vCIR7mQUySQXYYL6Ses6Pq8uUB650zvbnbs3iq7eG8R5EQmnpUVfVJtX/iZY/i/fQZKNlRGd7vMx6+vveqdc18rXHDx/j/ehfuJF5QyzOkHZGXxru696wU5RMgHQNm5aPvbemVIF3LcaBVU9URjjsO/PoG1zE8qaaJV2/XIbzlgY0zbA9AKgBtKp3udGoPx/XiRXu45i7SdwF+B1KgXQCzTz1ZrZuLrJGCWA2oldQYDe/Pt/dWPW533gY0KSH3TCdkZFp2+kSedXzyC21zJofF8w/k4yowJlvQOIP/kYdNviDXppbY5pkG6F5uSdCAGdJL12ZnWk3hL61381xrA4IWBUvAqp6wGIDptxtfAIzOq8qjqvlFXhcTrJWlcVjr2FeHt60lXQXbqvF+kgXtAnZNHvnku1aFVvJrZ6mWhE517wKs2m678LwxAoydeEvNVKNqfi/Xshv9poE7g2g3dURI97o5w4B5D8seCkvn4uno2Ry8NIDgzWQH5d02CJgZdgQgpXFlWtfkeQqCjgCtZlk5DnxDwHeMtCf4rdYKVfn6RJE87wm8pGDWl2E0ifRRvOsxFQaOOcq1SUMf5pjRJfkcf1lf9CbIYl2vHQ3wP5pLp1kjhTKG7OkE4M4N3BuusZ00Me6/nkETaaP8z7qX51nlpjlWQeGKvlOEZ821ZXPusskEU2kpmlLocvTvzYHlf+Z+Nrzfo4wkwSrz73cG9MnbvHzGHXT5L2CsY5LTyC7DetnSNA4hJc3uT4nY639zj3WuynGSoA2v1cbNjVHltq+bg2csdMAKVm9d0EaxqtJcAJ1htU4SIB98y4qlOUgJBW3ysnkEZQRm7GsB4hjnELAaVN6HpnXNZGjc5hV51oPU2A2wmithAEj7MY0y63c203byUGV9WC8PVmN6Y0sKrHvJDOuVPMBzH8JbHQCIeFQOtA4kPCLHn+AYvYMmePX6+km82Any1pvGn5FWPW/ylvoewXG2neA8pzj2HHJihO0n5EnZ/jlg6nu+J1k/gqlg7F+fRyFDt27II684yJrzbIDaKlYyzVooVOoEaGVbK+lbgbVFS/LSGwOC1U37zrXVbipyUqD2/Rn24aYnbfoDNzu9muKkngaxXH5LwHumQc8+kAsfqJ75GfIfE7T9WwMbdJx/m5fGD6pn6qqbFM5231NQK8KiW2+2yjk/dx0IbVTBGnrYsWYOcBFc4f0ErPO2rilLHhZvCrTyqPKwtex3S37L01aW5lsd8qANL90KjPVoYunaZtLIw0oSaFxup8YgAHAzQDdQVXaiedX0pbEK6nzoBdhersfNfcu2Ho7pxfrY3r0x30HfWlpgnSuBF53dVZxjg5xT3llf2NmPBzwICHvXFzjTkEjN1hiXAnhTvKUDzsEtwEjDUp5xH7XMIWoB6dRT7B/BY2qi4lN48NMAeZY8htkuTyuveojfe/HCgwROBznvIap2BZXtS6dbe4kKY6HTqU0bc60JWJtIo0/KN2BR8pBnrUcC6MPHbW/mW8O7M239/AfsjskRiyABMjImWnp2GGD1XTffs/TGBiSet9+SWXA2TmDHsmt2HPiXyeY/xp/WW3emP5Nk+sMZaBzNkJiu9HjbR8Kp9vajd1rL8lwiVHUgzCG4Qvgvn8U2yQMFWQCr6t/p1QKrBkCZPG2dg7fAqlbku22VJbl4Y7wrkXwNwEblZdmvTgfJgY6VVOfAGwPeKLBGl/NgAbgHaLsFM56pC2g7SBsHFc8qrwzgAwRnvUDTjQds45qaqGrVAtGFfm5fkmM7ubbdALprnXRxnutR6l+Xb/2kHwCWXXjCPevzHaRqatrLtn3s24v3U9pdgKvZcPZTMD5jm+TCSUA9ynHysEOY2o2PAaC+DKPvTGjk1R5Mx+/RubnudjxrJ/dD7dFql47xn+RZ5U0bqEVqAbUK2VG2mfuFp2+gcMTeKrIPX8qzqQ/dZpHUlHg3qwbuC9SIxrQCKFW2B6yAc+v+Z5149t9gQeaBqu2J/eMx7/jvtpVgnHbFH8DSKaWR8AS7OSXVFt40wSqefsR5gVoeYi2wNErPojUVcEUT+lUetcrB+rTVA4q8bh3gCtpaqv96HlQDGlOg1wJs7Sp+A28z6x3A2wWwgreebdXLcigcRNDk0cWxArSdNNLSbRoSybracLsBthtwe4BcIDsAOL528VPxggBAXVxDx5Jc61g6zQ19HCCdpmzaRT5xgAUzYApQoHPTknIeTd2kbTuBrQ/oNMpK30DbC+jumxH83g/k+wUnEGuAzx7yFpwyHTuIrlZXdM/yHOskwNKM6HrVvkuygHNowJDkVsP62VaDN65A61Ztnm+Vr8y36Juzrfr1HFuVf6/9YKICK71/BawJMMcyD8DkdVnQsw8y7zi/BaWTXRNYARW03W8eeEH7gsxL7zd1xaVp3GRquv0kNdVW3X2bVTzzd3hANBYPpwZPVqeACw97GdgCllRry6nSkArRVbOQBLOAlQACSSCQGzkmiserJ20DEGu8gsYmtMnrooPLlzxlVXjIBra1kncnwZdGfwnS1jUEawAmHdy6Km5tBHCy5lW5SBe2AUXF87/kN0EMMqF9LVKBc8SQB20v5FhPCV6Va3DzjQHfwJpcN0HeoHQyIMkTCmoFRv0A2sf5esijV7Dj4QdY34cnlBfeTaA0ALS7WNfMj/0qDNwbjQ3eSX5qrmsBVI0N3ul6+TA8cA/p21jGKCitpKvfVGgVmD5Q3PAa9/SNmfbWokft/tsnueaqcISqPyvTsjPVRHkZwCDzAEtelwU9+2Qbq+crKK3sW/V0jUIWsP96zeWTmWGR7JBNDmfYRLRtiGonC2/7SHrENj30Y6tZNM0a8GyVVOGCVdW/07AAVsV6FbBWAWoFYJTzuxpYG9GVNewvX4YHZLt6xJqASsBGtW1pntWqRQFAa9C9khj16NCYPDCwqIUhpoEhgNsCHM1r8/DCuXh6ZAZBYgsgueYy4KstmW41gC+J0Uq6NjxpOyDHFPghEVqLp1sP592Jl+4h3y5A7ybPXiB1BnhOdrCUPlYvlH4LuJ38ltftRyZoXGofy15+d3PuHulsAGyjtmgoUfcq10TBk1TpJN82rrGdQtAGsBps3cL2Jqr+6MuaEXueRd+aa/+47DF78q+nWFYozX1ySONW48MAAU/tqTwjD8AgC4LNs6DnnWxOQlzl2GTOrgNYNQT72toCmh6u11zp4vz64xMiE9zwRI1FmJiB0Kd0p2Ca0+uXWen20kM/sm3PPek8WR0BWDlQCshKdGoZ1XD5ylm2Da27ZcUs2wGstatmWyUQbwPOcjyu5IIGyQjWqqW5TgdHE95aBUBeuBFTANYMUPKincArTRsfYoe8ELhYI95VvxtW5rj0LYBYs3iqteJN1ZbcvHY623Mc7JIR7XjwJiRCffFUi7KsXfqU1RQ/SQGJt4u2A2g3gOkVIsHay3GCuhPgugGuE0A7ga4bOdCJB+7kepx2RvI0UlgakQCNQNtCdd9IHq2CFbAb17Md3atvaDW/rO9qFVrH63MJqmbZH1Y+bLMfvcVuzEij+g9bSN3szqNiTqOqt0rPKABSvwkw71l664nlWM/crSegDAQ2kUY9qt8A1lvRDs/8CeImWNXVptdilEncktNdPY/L+5NvQLBx0zLD6Fs0bihikwH34eyIrXn4Tvv02Z9TvU+zKrzQJ8D7MR72EyDdiifdVpJvZUTulQAp20GELGCr8Z617FPrQS2/5XVrXdstHhfPJJhbAVSDyhspFOoZ07DFDoDVuryzoKhH79YDSBPrKjxqOhPQjeRRvnCaNSM92oHNeWf0bSdLzXLTyXodkDaTpzoxdL4GQK4lio8unWoNxU9ZK3l3KEhCd7tB6vLUABuj2m/lHHo7ox4ZU7c0x6IaBojkaaKQtQFqM+mia3OtZl2uG1AdxaPWA2odXrpJLwm+UWT9bxbaJ8sft8K/vdUmZ6c6nZqRHnJjANzAJd3zwGcRNw+osZ6rtx7UjurZFWAm2dXO4dk4g67xASvzX/xY+5JvRLBJ8IfwuGpNmIAHYBkK2fe4yQ9khmzxPVPsX2Y/alU8tB2AtoWq+AM838clM4B0plUAcTnadsfSfKtY9rSVF1P9lxB84YElGSoAuBLvqhFJtUDmOieAV7Cq1UDL5gS8GsEkc60JWD0mYD1otVTHRPmLU63s+SfYRvUrDwjYzcunx+dioKqOFk/DoyotBtQyaeEmBYgUpnrkQ8NijimmcAhMovy6khwKWq5VISuq3H/gevGs9RzXwPG1KgjKG8Br8aY1wFq7ociial99hcL0hsavzrZ/X/iI5T54i2VnhZxHzUB+uS9g8mxV9btnqvXAZxG3sWC62jNPtmQw/eZtd97X1eJX5imPex1BVxzYyxYMbLIF/RGvJAd91sa7cJnezHXjE9C02ekTbEJ6pqUDa0p6tqWnEJyFUm3eX0y0V6beY1te/IWVA88Hq4vsg5VzbfsyYJUVExQ5S8CKlQHuDhnQlqMzq9W+izxQYBbF60UpAHWAUKMWANZldQCr5jGta3udS8O6vCTARYFS8Gxd9IRVApaCvQaup0GDoNmvToYoQEpnqqVC4DYsp2AAv6BvJq8W0rXJQwO8BqmrbVgdHvGuaGoErAY41XJSR9VfRd5VeO8qZEgNWrYajapXVTo2FVns9SLbviHPNs661x67k2A2nGYhCnuWPKoa/jM0bjXeY5UFHNnc56zEc7mWeYAGPVu/BT77xPP1P+8gSz7Os+sAVoAm2zfTj8cErNNG+tO6eO8PeNs9k5ZSyafKSs/SeAQBm8U1sZ1ALQzwKXgKveHwd5Mybf2Dt9vvCx+2T5ZNs+1U5WXyokvRuUt4mEsL8U6z8MgzbTsB13a8VDnVqYKySskFtTSggaOSDC6QYx8AVQBiOSBW4jFr8KJVwFaJVbG9gu1aVgNRFVV/Lbq3Ag/4KUFiPR5egV50BV6Tqr5NmrkYAKkRmvHk6nWTJ24AYAcugZx0cROesw0d2yaZQWDVsA7Pq0APQOvQtJVrcq2C9fK1hfzH2UgirkdtqJuLrOm12Va9Mdf+/rmHreihW+3OyekEUmFLSY3P3qPPWWWlT3JgajTVDTdksyTA5V5Lu14NWD2f0XXP3PPjmY4BmNJ8Y1sCyGtZ8nGeXaFh/Tv+XDbWedyflynw8tYD7IqbmLhpGiisBm4NGL8rnGp5t2TbhkfvtN8VPo6eVdAFoAD1KYB9CqRb8K5blqJvS5EOyzRQeaYbNFNVmgfQwMD6Nta3AdwnQLuVY7YBcBnHlynIw/M5YFmvwMNWA6DzvACrQvDRc0+hTZETrKtDQm296mmrRnu610/kUQGtkfS1AF0vaKWpXYEATEDWa/BNgFq7LgcvirfHu1ahpcsI+soAuRwJUPXybKsB1K2rp9t7Cx6y5x77of30FsBKS3HeND2Ne6v7Q4GP3zN51ivv4ViWDJC3zb/Pvx74TBP7giwoP78F5Sf7Pwesfz3I9Af9Js8wQeNz8RaaPimM7o0ArV47v5PqL+f7E23lA7fZ+3n32YfP/9y2A9hWgQgQW/GmZcBahlesENjs2y5YgfZTlp+icT/CE39MELeN9e1AtwOAt+MxdwDrDtKXOU+N5wPOSvKtIN+Pnp/qvGxUXptj9CqPtOf2F9Ck5OukB+kkKarJT01rkiXS1OXOs7Odc9bjueuAsxrAoxq5RiDVsAkpsLHAPih9yl6d+VOb9zd/YfffnGkTgTSF/5wSkTflHmq0FLXQDUgoWfJ9u5YJGv+6Z/7fWs+IxAuD87RJ5j8u2bx8kvP3LDkvz8YZdF2/Ca6g7eMxD87k3zL9wSuNPy2JIJ2bkWUTI/FXi8N4lTAgp6dyQ1My7C9Tw/az7Bus6I6bbd1jP7LfzLzP/vDiz/BYBC9rqFLXzUcDLsBbFdoWQP4QYOI2w7YA8CfYVqDaJm8r6IFMtoPfFQApLVxGcLcDCLcQ+f/h2SetrPhpqySaVwtFBR53+wtax1OSbwWmVowy583JR9sUDCIldgBz+Zoi4HzGmonwa/CqnxRPtbdn3W9LuPaf/+h7dtuECB5UkGJhzXWmJkF1e+v9/4lAy28NMiIOuIFC/c37Nn4LAirZvOfkPTPZeI8NMi8PL09v+WcDNqgNbbym4/zHer9lyTdTlu10mMDlISYGE6stV7PTaBC5Arcw6VIjgJwScjMv/iAUsb+emGH5t0+x5Q//yN7EA/9+0d/aVqLzCgKk7c4L59knBDgfr5xtH6+YbR+VAnIJ8OI5t7K+DdteAnQlao2QxOA3VfpHJdPt3xY+ZdvQzzuW4JUXA+vzwL4ISEuL4sEgcqRSnRsEiTXIizrOVY9MqFiZZx+UTLPfPfMI13S3Ff/sDvvFHVPsh1xrhmvcJ3hKC1sYzxb3pET8gBrJlB6N1ziax1f3I4v74ToB0i9/A2vc5o4j/2uYl97FH75n5gwGRvcHHHs18z97//KqHQffdp/fgi7mWub9waA/O5ov5/fsinTevsS2LLaNBhM8BPXkCN4QaTQzSQjPm5aaYhOw28Mp9uCkdHvqh5Nszt1TrPSRH9jmJ++2d57+qf3jvAfs9wQzf3j+Z3jQX+BJc6ycIElWRqC0nYi9HJ1ZhnfcUjzNPlw81XYAotObBFFbCQS3lU6zrcVP2KeLH7d/X/io/fO8B+3Xs+6zl574sS1+4Ac268c32+O3TbJ7Jt1gN4ZDblBQCNPXVkIAGn+pT4NPBCBL/pv7j/w/Rfrx+3C55SXIRkdXecf6wfTdV/8z/C5t9Fw+C0o3ll3VwwZduLdtrPe6ki3oAq9l/hvqrXs2mi/XoRchvalv/Om836OmDz4kHoR3/e549rkxDEiFVExtvWlAnIaMkCfWmN2JqWl2Uzhst6GN/4pq+L4pGfborZmW/5cTbNZffc+K7rrR5twzxebfe5M9+5NbbMG9t9i8u6a45cKfft+euedmmwv8BXdMspwfTrDHb8m0+yZn2u14/snykgSLaSFF8ujPNODkXCnUDhGuUXOpCihV864WCYBt9D9ep/nz8O7buIG91v6r2Oi5fBaUbixzwF7zArHxpAmyoAscjwXdYGeJG+q35LRB5g8KvOPSXVWqdX2TLNu+F852AZx7TZmqNpIVsnB2CJAnWloGQZ0CGoCKhEKWSrWcIksNjS5T8dZxiwB9xDUppWm/lwYZkhIByvQUgKS6piBlheNAxpvw4tW4zq/10f+na+S6R/9P4osryQCPx0bvY8Ax/mYo79yyoG3J+8Zr/vN7FpRuLPt/DayCs7h5ek8dFdovGYEeBAx1VmhyECcrBIpn/vNq3W+JbTqH8nMgcrw+OO3ycaDF/+Node7Oq2MkWxQ4xttHXR5ZCiLZn3S+KyAep/nvsWs/xUb3kV/yPXLnT9rm/f425j//6HUEpBvLAFYPyutqjfdifRcXJnN5+C5s9IYF5O1GBiXMNWo7D+S7mTqOZfJxMn/+V6T3mX/baDrAExRunWuKm7wdGhGLz7hHlSkPlzAFOKoS/dDEH7SCOwHvM3cvOR/HuPRKq2NcRK/BJuQFjP78R03pEqbzee3T7v/69gWZpFJWljpYgvd/FzZ67wP2Xa9dLa/kfeMGNmjbeMw90CRoFD26fb78xgLWf9z/BFi/pYcjV5jaEj2TNo8bOjISt8vb0t1vnTPCfv0WGGNZdrbmRc2wMOfw8krObyzzp3fHJK7NOz55//+mXe06/7wWsf8GEJ4XO0HZJvsAAAAASUVORK5CYII=;" parent="ulKWUaOaeuFDGbGcjOlc-95" vertex="1">
          <mxGeometry y="20" width="172" height="150" as="geometry" />
        </mxCell>
        <mxCell id="U6wbf_MllzvQ8ceGgnBG-1" value="" style="shape=image;verticalLabelPosition=bottom;labelBackgroundColor=default;verticalAlign=top;aspect=fixed;imageAspect=0;image=data:image/gif,R0lGODlhNQJIAvcAAAAAAAEBAQICAgMDAwQEBAUFBQYGBgcHBwgICAkJCQoKCgsLCwwMDA0NDQ4ODg8PDxAQEBERERISEhMTExQUFBUVFRYWFhcXFxgYGBkZGRoaGhsbGxwcHB0dHR4eHh8fHyAgICEhISIiIiMjIyQkJCUlJSYmJicnJygoKCkpKSoqKisrKywsLC0tLS4uLi8vLzAwMDExMTIyMjMzMzQ0NDU1NTY2Njc3Nzg4ODk5OTo6Ojs7Ozw8PD09PT4+Pj8/P0BAQEFBQUJCQkNDQ0REREVFRUZGRkdHR0hISElJSUpKSktLS0xMTE1NTU5OTk9PT1BQUFFRUVJSUlNTU1RUVFVVVVZWVldXV1hYWFlZWVpaWltbW1xcXF1dXV5eXl9fX2BgYGFhYWJiYmNjY2RkZGVlZWZmZmdnZ2hoaGlpaWpqamtra2xsbG1tbW5ubm9vb3BwcHFxcXJycnNzc3R0dHV1dXZ2dnd3d3h4eHl5eXp6ent7e3x8fH19fX5+fn9/f4CAgIGBgYKCgoODg4SEhIWFhYaGhoeHh4iIiImJiYqKiouLi4yMjI2NjY6Ojo+Pj5CQkJGRkZKSkpOTk5SUlJWVlZaWlpeXl5iYmJmZmZqampubm5ycnJ2dnZ6enp+fn6CgoKGhoaKioqOjo6SkpKWlpaampqenp6ioqKmpqaqqqqurq6ysrK2tra6urq+vr7CwsLGxsbKysrOzs7S0tLW1tba2tre3t7i4uLm5ubq6uru7u7y8vL29vb6+vr+/v8DAwMHBwcLCwsPDw8TExMXFxcbGxsfHx8jIyMnJycrKysvLy8zMzM3Nzc7Ozs/Pz9DQ0NHR0dLS0tPT09TU1NXV1dbW1tfX19jY2NnZ2dra2tvb29zc3N3d3d7e3t/f3+Dg4OHh4eLi4uPj4+Tk5OXl5ebm5ufn5+jo6Onp6erq6uvr6+zs7O3t7e7u7u/v7/Dw8PHx8fLy8vPz8/T09PX19fb29vf39/j4+Pn5+fr6+vv7+/z8/P39/f7+/v///yH5BAAAAAAALAAAAAA1AkgCBwj/AAEIHEiwoMGDCBMqXMiwocOHECNKnEixosWLGDNq3Mixo8ePIEOKHEmypMmTKFOqXMmypcuXMGPKnEmzps2bOHPq3Mmzp8+fQIMKHUq0qNGjSJMqXcq0qdOnUKNKnUq1qtWrWLNq3cq1q9evYMOKHUu2rNmzaNOqXcu2rdu3cOPKnUu3rt27ePPq3cu3r9+/gAMLHky4sOHDiBMrXsy4sePHkCNLnky5suXLmDNr3sy5s+fPoEOLHk26tOnTqFOrXs26tevXsGPLnk27tu3buHPr3s27t+/fwIMLH068uPHjff8hXz5aOfPnnp0X/ScduvWn1YVSz369e1LuQLeD//dOXrtR8eXTTz+/Xb37oON7io//vj5N+iDxP5xvv79C/SIB2JGADPFHEYH+9YbggCotmJCBEVGXIHQOblThRRcaBOF+GU6IW4cWgTiRiAJt6BCJHtImYYMsZoRehClehyJEK6KE4ov/mRgjczWW1KNJN7an4Xwz7vhhkQv96KNGOBKEpJG8PfmglP9ZKKSTUPanZH5UPmjlj1tm+RqRzt3oY5cIzdhkmGK6RmaJJLLJpJwfqXklAGi2OdmbcMaJ5p1LztljnnpCxqeTfoYEKEl21khnoZvhp+NAjzZU6YiXMsnRnYRCKhibRE4ZJ5edwvlldaV6Cth4oeboopSLKv+66ZWZqmqZkq3mOKpHsdY5IK2p2uoXmE26ilGtJyJbEZI4BitsckJOOqWLvCp74K+OPlsamcj2SiOz1o6IrXQZhqutXspJm+SuX545LqWYnvtYrhGyK2igp5IrrryO0futvRh6a2G1tErkLL9mqWupufAKSuiTEGbKMMJ4KbywiI0yCvGi+qUbnsAUfwxygRNXO1LJBxWL57rajRwyT/4ajHK7Adap8sopH7wsty8fZfHF982cJqw3Dw0zty73rNPPCwf9J8FJ46nzv0gr7TPTJDtd86xYC21z1VYjFXO8M3mtIddY42wT0lGHvdPYMk+d89avsk2v2XWz7fZScNf/K/eQsuZrN39/52z33kz1/W/ZVAY5+OOQ3xz55IojPlTlHBaOaH7H8jwk5aCHDrnlUWGerOZ9cr6z5xeL7vrkpE9lOtAwtQ3jgWBn/vrurDeIeshpk4y67TTG3Xu9wg/O3u/8zk77S8Qn6/eh14JVdOxoCx09tlzqTv2y1l+PvcNFbs+1zacfD/5Xzr+8sdnm3+tr6+2zVT/wUHMPPdHJf3+sV/dz37vOtz+I9S+ASeqK/8ZXPvFhSnPxS9kBg3ciBSIQf/nSn0vAFR/lzU8rCxyf2vJGsAJaaWiHCxwIKRi2BuItgp0L0udSeLIVOhB72oPh507SKhi2B3Q8zEoI/0VYolMNUFGUm+GgXrcS5p2JhXtrFAeJxrsqqi+IVxkiEaVGwiOSz4pghCBVrrjFgvjphV4LoxrxVj2o0LCMEgyYDhFVsjVaMSdOzJ7e4BjH1cEvfpGbYOh8kse8BZKPm/OjF6fnQSR+7Gp3RCQXcffHcO2Rh4XM2uVgJ7U3lrFcc6QU8fTmrEw27SdJNFzutlghKK6rW55jY5WIIktDcvKVZLQcLG9ovPTdLSWm3E9NeOe9C55rl6Hsk4BWOUkgfUcmoouhFq2GzEp2jJkjZJRSaunLW0qTl+5bkDENJ0hWYTJxNnJdgMapqmouUonXSxU3fQekQT7RlbZyJ9p0pf+4UiUzJrLcne/Y2SZ90gyFlevUP6E5LntuEJ+FQuY7RWm6h81zg19s5DAJaqRaQVSVquzayS4KPTmO7m0cjZE4wZm5kLI0Twsdph81erSUTmilyZRc/WAazE09EJsi+2iKJLpPOrKQmySt3TJPKjab1gen1jQqS83oSKtc83FNmWZEGalBoAoTfVnkpye36VT1QLWEnRxn43rKK4SONXFahZKDpnq6tAo1m5oSolQvOca7ugeq74vrV2cFQrvStK9+JQ9RG0pXS/1qK0yFbFkpxFXGNrZAjxXiYSV72adSDY2TLeIJsfJWCybWOoANbGcdO9qqlDZ8p12OR52ay1f/tdaNWFVLaImTWsta9Jtelc8h7bdaGfU2o/KcaSprGtm2xJa3xptZcNsaXYHeBIhyeW5wWilUvmqzmGFUajTnstsocdeHtVWdWO04XT0uty7lzc15I9he9e6Vvc0FLjErpl3dWOuj9bUvfgdM4FgmVXaCRc6F8OldGxmWiW4t8BpRyN/0ypaS/21wOqsIXgmrE5cVju+YFkzX194Twsr1cG59eRcN+4Y+lpyqi0/sUNtSVMUI7K9mE6yiu81XYhYm1XhNhssBm3QvAfZvACuaZN/mN7MmDXKUkdxk8zKSTiZGInbxBckDI7bKR7oyq7Is5OFisak81i2Z5Ttb6wLT/8xNJCuqYspZKdumbZGs55PpieYdhtjOPb5UeDW2Z5awta7kRFeaZ5M0NULNmwzts9H4sujY8NKbMy6ym+/zHTl52arFVfOnQ3TDJ8/Yw9fttKQOTUtWbzLUmIznZu8LKAJTVaaSnhYDdWxZl8Y1d0aeG6dzrWsc8pqxZlwzrfGL2WFD8pTGhnWsOQXoZNt6sABVNbSjTeevoafa8HT07SL9bNaK8NiPBre1wUgtcl9NekREd7oBjGoOuZs99j63vN3bWRyXdtR9fDe2ue1qZYLb3yjGaKe/xcpuz9uun4VzxD9saLIiT98OF5yEujZkfhfavsszWMMBLmYLQ/rNHf9nkLb9hvFDvymhEndapkNkcdztmuTd3Hg/P844njN84TtjLnCkreVv983nS1txG5sqR4D2LuOaIbq3XxvzV4NZlHzDGNRvLOOtk5rSXq+uzidVdVWnGedEPvJICYsTtDtF6u41OK7KnvUku53tXdQg3rVG5buHm+u+rjSaMef3ORU1793reeHNvtGIGei9dVZYwbftsKbXGeyLf/qmAdjgyWsyf3HjvOeFDs1D7XcsNFy8jcv8KNW3JOyuhXuKs3P6syibkP7E8ui/Bi3Yh5tjtbe9utv+6Vi5/vW7T7rvf//7Pc6cfc9/4gObOPbjG9r6y0P78Wp8da4g3eOtl9v/8oWbfDzKvuTLBqrSy7KiWZM6+OOHOPuxb3WcA/vkzRcxfOaMdISfX3hpRRbxhx37xnxyd3sPJni4FWEIl3/dR0k3Jhb/F3nixyeQV3L6l3Sicm0YFn0BA1LQR3/7N4ETdIAPyIAFeF0Ikmfzhn8JuHPlJz95kYHrFi10F2U0yHcT5357x4GUt2NpAVjU93g3qHExCIFfJ14d+IAkiFIiqHDeM1AvUoROdoQXtz5OR3ymhRZnJYXV54Gsl4LIhyGMY37e94SvNz0oZ3Q8uGEKiEpkWHooZUNcSDVemC7r53Qn+DZxmIVzSFpoWHG6s4ZfOHzTloP1RHNlIx9AWIf0/+OGhfiGd2iFgIOFSsWIrcZyjtg/h0iFjYeIa2eJD4WJIxh6m1hkndiGTgiKVbUvl1hT4bE6QfiIqQiGq9iE6RR0D8VqeChc7zeLnFiLkmh+YghWrnh9vKhMWmh5tkeLNGaIuMeKPiWKKEeKprI2dQOMqKhntthqwzgdFZiM6+Zsv3iKGyiMA8hn0phtQ2iNM1RS2WiOCIWOlJhvXFePxdOOMANvcSZN2shP3AiNl+NSgHgw6ciPrQNM8SiP7/iMxfiKfwdquJg6fOiOSMiQ4zhS38c3GziRa2NR+Fg7C9mMYqWRF7iAJQlZGrmPFjl9/wiCRZdyBHhAvceSNlmOGP8ZgWFIcTNJPyFpQhV5k7L4kjUYk8EGjgTykAQojkH5fj85jfO4k1MobqX4WRXWktjoj8IHkFPXPjJ5ND/1lBuGleTIjPPHlS0YPXZEaJ7YkHRxkBWkgTJ4lueYlgHFkx3mg26ZXYGIV2V4UHQZlUZ4bP5XmI4Cly2DmHG5UYcXmIk2mPtmmJL5jWPUSXCYleTDhTCWRhtpS5NpmGp2jYSEmfq1lYKpXwKJg3oJgHm5h0uZSLj3l9nokS1Tl6hJmUaJgAgZlqm5crA5mpeoQ4cplp1jm06pipynlQd4hmNmHshYiTZHUaYJk7OHh0qJSiCiMrjpi8YSi3w2aTJjbdP/uZe8yYaKKZc4WYPECZ3F5p3nlEDhKZ4Js5nZaYHriJ3KqZ7raZmf90juspjPY1SyE5+niX5y51xaByrbKYf2uH/fNXDd+ZhuRKDUmZf36BYoAzK9yaANCh/rdIUsoysIBqLkmXPtd521GUOCxHTH6KGJ16HtGaOvuZsZ2ZrLiaFnlHP4tnTOuXc0Cp4hWpk/CngmqpvQZ3g66qB9uElQ+XPm1p9SUSkCw3FbhqBzSZOFdR63BaEUBqO4tWr0GX41ZqUj6ZN9iaS0tHqkQqIIZnqeZjFfuRbSlWH3qZBauqS8x6YrhHUdqaAuSKZlWqRWdafUmHaLE4L8GWEo2I0J/wOYO7ifDZOmikg3FGpaGqojVfqWjgNKC5pqklqoKkc2sCWmS/SnfHmlYgepZ/qbIheKohqCpIqXV6miqqmqAzmpKhSdsAogstp3gVqeq6qnS5OElPqqpXOS+omcLXZGm7qhsimkxeqSx4qs6VenmvWr1Xme7UaWAGqMQzmtY5qstDl/OQp++NiX2VlD2Fp3cfqCkIqe6WmuHrMe3PqkH2SWzKl+zmqiW0irnNOWftiULUpd+WmpY6Ov7BR8WYembGmk1CeUxhqq/ip6zKSvfuaADBasUEqsARkqT4iGACOxE5uvq4RNb5pEc/onhINGPtqxVdOLHOqpxQly+EqBPP+prWhZs3s1s1uKjIcDQT2lJi+KeJF3jxqFsz9YqUnrpR8oc/sasWWJq02Kqjs2nGamsdKptHYorBz7ka6pq6S5rVO7rllEbb06grzqQkyrs047rnwqswwrti1rQ7SXqb55sVAWpASkfDmIfbAisj1Lt9X6tWZocK4Kn492i7RpfWzELEObr0abh28He8sUk8xFmJl0l2MbuAVpnS/7tKhXuZaruBN4fEi1uXFLtx67sp2Ket26ppdLuM0UsLn6P7BLssBinig6oK+LVuTnsMkWtfdqu3mKu1YbiVgLnEubt6R7gpnnTAPTilnFfavbuhKYjw8KluLadfcWrbr4uPX/x7qRZZ+7y7tcSrDaG3hR43fBIrQfanbgMb6OZ63H6qTSq3yaBnPsCL1y661fKr6lmruyK4Dj5r3LKKhAKohnRrz3G1TuN78CDLyaWcC1W7gdKGxpaKcM3MDYSWYQfLySe6rYa8Bwu4Ss2iLv2bQribsPFrmMOp72SrMW/E2zi8ILLLXva7wbYrdvScEVfMAZdH02DKrg27maR61wIU78+4cTxWU3zKP/abM7zMPZhUfcCXoa7GAqrMU6TCxI/BbBFIhd4rZQCLa5aLDFEq7kNawQOzBI25VjpX0Um8bOR79iw8ZVCMXRW8Nvp4Z+ycVSXK1Giy54rHYJHMN7zMc1/yetGay6H+ym5btN8NpNXBtwIpu8s9S1/ejIuus/kSzJkwxPPKu3gIvJ7Pm9jfxlm/cp6Ru86JvJwyuahPp1bveUXqywhOFybEjCbxvLojXLk1o4Yslei+Fq5YtUzZmJeaXITwy/LIgY7/rKvtzL+LnMv6zAcva5pjoYpjzEMnzCArvBwjy9kGyDL0zIGLrEhwzE/TvO2WwiuXLOigaoOSwqbbzBf5zC2adTZmu9YOxc6iyjuBbQWRy+vQLPoBsX3ezERbzOMZu9m2zQYVq3/pzEuhXFQwqPgBzRDnyp2pnQCh3NUCvNy4vNG+3NsRur3CHPVEaSh9tStFvQKM23l/9GdiAd0o7Z0BmtZ2X8sNFIpcaHVZK30Ivoui+tx3DMvhqd0sW0qM9MXiKNyG3XsEa3vxxNjF1XNDgGX1HNkUJmz6MoxIpbXX26mlGayNExr4Yk1Sfd1p/4Yx20yi5M1M2WupGSsTK21DOteMpV1qpFxjI9snfNbq2ayoHN1zOVv7n5xnjKuZnhudvM1s3M0DLX15rmkOi0poxt1Ca91+pKfB1CePp3028Wa4/d01dN2aXHMExT0eqbfDpD11kV1qgN0Tp4wT7ps4Ddv4lYGe4MlKqth4aMpUNox717xpIhzMyjUMR4nElpra5t1/rYLyJZ1LwM3Lx5ZQJai+E8dFb/rYTfLNyW3WGGRYiMLduUBpE9R9IPHV2pSm2Q+MZdbdHqXdm83d4R994rXUrR7cPCwb5sRV8z7N76Hb+T+DvzrdD43XhEjN0EjoHAV9y7jSXPgeDGXFEDXlkFPne6LceU1b2xCcvkHGPm/NG7SMbozc3WXZWnDFfm0kM2feIiluAVs+DKC86MZ9kh9DeRPcLdUXhH2CzDHGowrtVAG8KVTJHDYeGU+MkNpZoH6tAHTuTXFN7R8awhN+IJOpXiM+HJY8ZSTtan4UR0neLy59wnWmqmNDvgxKlezspBw6LsmihE2OZrTsVeorUj5rX0Oud0Xufra7oAe80BWhthPHo//8lRaV7iOOW1SG7JIupfNN3fhf3Oo1Xko+TkIHbcZ/NivvrOdnKjrkTpbHtrde3pM0jo3phT5FK9dbTZOG7qAr0bNJ52sP7leYvpRGvFiBvmkk5aZ57fLf67G3NfwR6vWB1cZl7jmkhsnxfXnvd/t+ystz7XQX0cJMauihqpvv6J/vty/4SuarxdimTpUyrZ9m2oJrhQ5/rmazzZ9gvsnK54jRu/A0zN+eTWST6h2s4/+ee/7aTv+97H57va7afuLqzTgQZwXhbqYaXtqj7K6afwd1Z8nj3woJzjEb/F4srBSBbiBP3Z940dls7t0r3uHp/qIG/bLI/KZz14K828Hf+f8snZ4CoY8tdd6S/fZZDO8QaoZaGbron5NIft8vzO88OOwxFZzzWv9P45zTmv55mdfXnu2CjP9Hsq8VYn8yKPurONlDCG8D9/u9c68kyK1sHd2CQP9iKupii4wnplzXWn9S1P91/vjb2O9s0H94jl9Xfr38C89njf9m7/7+sUzS8UpdYJ+IHPmvWKv3l/8uv+WyMKuEXv9i5j5mXS48Ibjadu9e5K+Shp+b3d0DGT+AVk3HL/9IRv9xNf93JO+nwv9lIV65q8hjt/9Fy/vRg997SP9buva2PM4++6n5qbv17nehPD7vKEi8qic1H/wwSv+8Fv7fAOVvzXb40r8FT/W+gAX/q5P700P/ntG5ZFOncrWO/XT7aOH/3V3xnIXE5hJ9pg8+h05P2F7/5WWep+L/2gwVMAAUDgQIIC/x1EmPBgQYYNHT5kqPChRIMKLSKEmJFixIUZPXL891GkyJAjR5Y0qRFlypQrWb4E0BHmTJo1bd7ESVBmTp0uHV7cyPMj0IRCWxLdiROjUY1MjSZ16tPpQKhTrV7FalMqz6ogkWadaBGsR6BMl441iHZmV6Fbp7oFW1bt3KdW2XpdKJbuXr4/+cLtW/DsW7R37VY1HFjx3MRUJepdHHls46iSIQ6uPJkxZsGALSv2TJOy46KQP5/mGpowao5YVSu9Kpfs/2vWmt/Sjvk4aG3eR3HX7V3xd8vJw08arxh8MfLZL8XuVh69IWfGp6FSTx036miVzKXD9K7Sue6i380LD38zPdewrrNyJwl/6PrzZG8Pv5gbe33U5ZdLvms/2GKjT6fV+DvQLOSegw5BywTcq0DR5ouNQAUTdLCtw9Zi0L8MI5PPtp4kvEw1CGsiUbALPzQvRapE6/BEFl2T8a/OamTJtNlcTOs2s2Zs0UcOyWsQSBp5zAml8pBisskQk8Mwux+NjI7H8PTKj8rCkExSv+ucdFKpJ4eKskstg3NxTNJKy/JMArkcj0nl1GxKQdkmdJO3NK+MUcc8k6RzSDCL7C9Qv/+eyrJNk+D8c63MUMTyzkbVMzTOQStVC9PO2nrNQ/EmtW5FSCOVFNQcNT3Oz0NbRPVF9k4NjVFTiUOUUtOImhVWWW+Ub9fU9jQTvAB9zTVCMXX8asZL2fI0ridbdbbM8bRyi9hi6aJP0TUJZW1Zb5t9D8dNzxP3KGoBdQnaawHMVlU59fz2277KHZdVJOl1rFZX13UTU21H/Bc0eVPF91cY6yt4UUftzI3fPP0N2MtSIwQTyIT1I1fd1sy9z+GHC4wYvYl/HVjLixu2d8tFGcUVYI+l03RkkUMGON5BJ7345Ex1zvG4cKfD8uUqJaR5ZnAltvlSUAPV2M6mf/KM5+b/hDaZaFXxyi/pm9c9WuHvut4QarCDpdrIVos2WumyfTvZ2lFB9plXqclc22wS0d62ybotpdTe9MbuqeanI9rbbKe5e7dwXf8enGRqf+sIcLsUV/bwEGWm3CsphzbUuLzmBg+0zCFF9OruJFecW2Fh1vlZ1bUTffSFOX0daNMzr71nzge01O3p/pN9ddpzx9p3/pZCnaQ5eR4TdPVADD700okX3PiUbX++t+RLHDJU4KOndfjt8248Q7CZ1t7f7r3/HnzlLb8cb4clV9P6HddrvvzwBXb/pO1uD4v8uIa4BRUKYutj33LsZ7L7UI98+vtar9SWrwfNrX4LnIh1IPin/3sJsHoY/Mz42ObBBh4LRiAkHLxQiLA3AbB4zjPfBiMHQ4KRLU61WWGJaNgoLrWMYA7koO/SRbFK0UmE0RLf2foXkxZ60Ice26F9AgNEoNkKh7S7ERajB6fEzceFSzOe/Y74O1vlkIIPXFYApRZFi4UrWff74sf+IsbO1XGDcRNOfEQYx8vIzlddVCMVlXVHKM2RcegyI8owZiM8Uc5tb9QhH+0WRv6dC12FOqODEgk9bEHSdpJk0Rh5N0fSGUyDeaxc6ublSbmJMmOEzGQnmYMqVx5okxxS5RRZ+UBT1bKUq1zQ3WCpw0VSiY3kUuATP4gzXx5Ml65jWAWbqb21of8QkLw8EyhN+UzhabGCubpldUI4MhIub5rdFBh+9pTDYS5xShp0VzlV2M4eJRNyh1khPd2pIRzGU57wxKA+17QyKwk0lvvUJJr+hTlzGjSf8OmhQeuJ0A+FE5vLPN4x9/dM2jRNoyujaCoVqi2GduujXksmSEsIoJCKdKSKUuY82WlNxL0phC11afruVFIQnRNQ7OooPkGWP5yGEmZIWxJPDXnSU/U0qPjcTlOLWtGjpi1M0vSpvtKJR6cJyX9TBSvdrHpNYDIVndx83/+e1imLhlWKc2rl1soq0fY4lavT+9lb3Yqwtu4rrnojollxCdT4CHVXhrnSXilWpUjKtTj/WfVqStOq1p3VdVSK3VJbE+OtzAp2sISlUAOt1RWrYfY9iuzWD8lqOdbBc7LTE6JUUnS2viJISdRU7S7FF0ED7siwhlSRqEap2JXcEqIVE21tCynN0Kp1gWfp4ONM61fjCguwSWSVSaMWUYneNmw3nO5ExctS6+pWUHQtrElP10J2jVerKg3veDfpHeS+Db3Nda0a2TtOlnVUuUbd2E3tu9rTebZv/VyvUHvrHt/GN3Bk/OaxCCw2Ax9Yu8Tcb34txD0HB3dVnExiSQXZ0/RhOMOnPC3UOhzgKpI3xDHdlvl0GkBnWbRxPoFsWPPp3KuKLIYjFVuNFZri5a74rIyE/x9nbXtf7PHqsctjMBONbMUpJlfJGeVcuphaYanadMqvQnKS05gx1skkxyYeMlS/bDjDxiu7ZdYmlaEMW9SuWcZNlMuEIwznYXJ5Wpesl53vfKR3mZfEfKbjf4tI2v8KOoM1ThyMD21ASXeWt5elsaMT2tlIx1nBQM2znwfaWgRyWNPH29nW/olXpxZJ1KR585/xe+ogqWysRDpzelsNoVd7KdYc0zWta12cD5YMiXMloD3J7BtgC/trlX2hsf/HUc8FtNfNfu1Xnf1sW1PYZt8N7C/Luuy7anvbjO12IL/tzcVactznLd9oEtbobRNLgtLWylLx91zQ5brIQW7kuf/RtJkTOjbfsmwXv6EVRQ8ptU4CHzi04X1dcT95m8DtWK08rVeIX1HiE++xrC3uuHer+aew67ieCP64K8PXjQv3s78D7e4op7w/nSwjvk2d15WGO7MWrrnNH9Rulps55DunEaGXSnTrikjoQ8d5zrV89BGN/NMIJ2V5nf709n3cvt6Oqf62XOERZ49vKOd619NddHWT9OV/JPur1Slzv6a9ykwvOlyuula6R/uYZRcT29z7TrvPa5XYbbvDtZ7qdb9t0vc7KOELb6ysIxKx9R0e47WmeMCDuTssftTksaXLEMPR0OCF9OZV3/nNZRr0/BQ95StveRNRvemPXX3u+47/UoCrOPSxzxTpS6/H08/ayrpH/u4/1eQ+Chf4xD48bAmoZ9e3meKJT/7Gaf7g5Xv++ceePcnurXhY45n65dX9yqvuRdh/H+3hpz3kbM98MVfa/C0Pep0hb3b38xz+8e8d+ysmCcO/qCs2AQy8yCO+Auq/wogdKwO5rrEgN2uvTzI44BjAz3K5Bkw6w7M+1yErI0oaTMK+4puddmKypxOjt5s3ihu/EUQwL5qgwIs5DhQnvIPACFSq1SszgrrACUFBehM264m3VTvAxuDBCJK/MZMuHLTB/Fu7DyTAnUI+LBsw8uu9G3zCrfO6+4u/7EtBbCu488vC4NtCB/w/KdTB/yo0JqvBPD1ywjOUFjfSPCDCjtyTo/pzIFgSwnrDONwTsbHRGmb6QAHiQzlEQ1mCtkqrHVwxwUEitEckpDDkOiKUoc9Rpu3BwjxkwS8SIkTkwp8TRaQijwCsm0s8vUcCRfDbDHtLivmTQUpMtcDiljvqQ2dLtFb8qzjTvja0xIi5xFUkMiLSRQskv16csWBDOCr8I2Ecxjg0OWMEJdbjr+NSuDfkMSZ0xmxTP6srQR+8RfpjtnS6Pj3Exm18NOHrQrDLHWosxE1cv12DxwLTOXTkOGgEN9OrEXcUv1GsxkcswWsDPoGaRNygPuVDI34kqJfiPFi0x+FKww4coRNBSP+BBImGmrBzfMj2i75uBMfz+SiERD2ZKkeH3Ejvi8gNC8BhYSOLRLMYvDXkmceTnB1aDLPF2Q+FLL/dSbNdJEOatJu6i8KPpA5kfD0g60lpNEKgXDIDucmJbBaj5D4lnLPGmkmmJLfBe7+VHAyp/LeGqkp6RECszKjr6EgdrJmT85u+kq3kI8tXyskw2rdboUYh1MkVAUOAfMtZNLd1RD/oop5yRDaTtKe8LMC9HMqH88grLAk8zKKs1K4fBEPEXEyxqswxlMkZnJpLI8nxyRoKpEzo0x0D/MKx7MukpLScwZulDM1UqUktFD/TXEhz6ifWk83WZMXRJM3YvMoyPKX/RGLNXcRNBTo4fGRMr7xIFEOv4FTKcDzDIjrLF0PO5JQsrVxG7mLO4XxKM8zG6fQ2+HMo72xO52xNOro/z7pN6TnKOnTFu9ROiSTGd7S2grKs63wk93zPyamkdwS1A2o++yy5/ARLYIpEkZzNgPswTpNFAR0noeTLQnypLvvPOmRQ8HlFtPLCfjGR66xQP+KMIJSV7EwgxUw98uxQ0fI9RSxRE13PFkXRE3WkqPnDTmQgbsQzGE2dWImt9jRQ/UzNBcXRy0xQIVNQIDW+/gzSwmlHFQVElzyy/mTRJJU6Kes+Im3SHlVLgDJSKbWpqavSI2FPLOW/f4xSLkWntiRR/zAtUvzMRyg105cprq0ADAgSLMIcUXnc0je9uPrBPc1DKmTS0jzVU5abOQmNRkA0mpYS0UEtMQhD0Izz05lRVPFkVKxKUWfyslaMUzGNITatVI5K09ecNp9L1CVa1E99vAmtuGjCOsExVUpF1fi0UfWEVE3FGvc51VhNSf9jVVu91eDJVV21NLVjt2L81RiFVWHlF48CUavMUU9V1mWtVSYFu70J1miFU8oKUGMsm97E1hyls7kSSzi91m/N1imkp9fxVr5KVnOFIgCktjldV0RzUnfNKUFBGn3brnIlU0G112FbPBe9UX0sU3Ys2H+90wO9VAXNrSBqV4QVmvFTxv8mJcqq4VeIpRqDFJcdLReS6kO9xFiEkjf80FeoBFl9hdaQzVj2o1WG5cr0vNKHVdmV/TwN5DTM/MlOTNmZ7dYvdQ5anKXDXNGL5dlTDNWWRdQ1tNO8m9eixdWjFTmKxVe/OzONdNr4Yha4WcaCC8isEsyrXbFqwUCX7R2CRUarBVusbbGxHdayXUATFNq07bBX7KGtDdi3Ncx6ldtZwTEofLu7Jcoq1Nu9XZpCdT5IA1yl/Vr9I1wHG6Kt/Ftd4c3FNdzGNa3HhdxIlNywtNzLTaHMbaLN5dzO3au+FU2prSFuI13iqtw5bDMfBNjV1TGnhE0WhN3YlV2c2olPpNDg1OXM3J1UD6tdzfVd1QXekDLd3SRe4mPX40Xezx29SJXBJTtY55W9643c6bXet3yum2Xe7S1asWvHwQXfh4S7ffTX8kXEw6If8lVfe2RfGeHU96XMG2vf9KVfOewvinTf/EXH/Q2Y+fVfew05AR7gb0UWNsHfA4bRqyFaBp5Z03lgCMbY25lgCv5XCza66sVgrKxFs+xg//1gHFvgEK5fXithE87P/lVhbE3hFobhGJbhGabhGrbhG8bhHNbhHebhHvbhHwbiIBbiISbiIjbiI0biJFbiJWbiJnbiJxa2gAAAOw==;" vertex="1" parent="ulKWUaOaeuFDGbGcjOlc-95">
          <mxGeometry x="1331.58" y="25.880000000000003" width="143.42" height="148.25" as="geometry" />
        </mxCell>
      </root>
    </mxGraphModel>
  </diagram>
</mxfile>
